SplineFontDB: 3.2
FontName: fegish
FullName: fegish
FamilyName: fegish
Weight: cute
Copyright: Copyright (c) 2022, Ferhat Gecdogan
UComments: "good alphabet and good font is good"
Version: 001.000
ItalicAngle: 0
UnderlinePosition: -100
UnderlineWidth: 50
Ascent: 800
Descent: 200
InvalidEm: 0
LayerCount: 2
Layer: 0 0 "Back" 1
Layer: 1 0 "Fore" 0
XUID: [1021 419 -1583939628 2863231]
StyleMap: 0x0000
FSType: 0
OS2Version: 0
OS2_WeightWidthSlopeOnly: 0
OS2_UseTypoMetrics: 1
CreationTime: 1652919348
ModificationTime: 1653219940
PfmFamily: 17
TTFWeight: 400
TTFWidth: 5
LineGap: 90
VLineGap: 0
OS2TypoAscent: 0
OS2TypoAOffset: 1
OS2TypoDescent: 0
OS2TypoDOffset: 1
OS2TypoLinegap: 90
OS2WinAscent: 0
OS2WinAOffset: 1
OS2WinDescent: 0
OS2WinDOffset: 1
HheadAscent: 0
HheadAOffset: 1
HheadDescent: 0
HheadDOffset: 1
OS2Vendor: 'PfEd'
MarkAttachClasses: 1
DEI: 91125

StartChar: a
Encoding: 97 97 0
Width: 541
VWidth: 994
Flags: HW
HStem: 18.3428 504.556<24.9991 516.199>
VStem: 24.9991 491.201<18.3428 522.899>
LayerCount: 2
Back
SplineSet
353.89453125 72.2685546875 m 1
 353.89453125 550.373046875 l 1
 819.34375 550.373046875 l 1
 819.34375 72.2685546875 l 1
 353.89453125 72.2685546875 l 1
EndSplineSet
Fore
SplineSet
25 -199.956054688 m 5
 25 304.59765625 l 5
 516.19921875 304.59765625 l 5
 516.19921875 -199.956054688 l 5
 25 -199.956054688 l 5
EndSplineSet
EndChar

StartChar: b
Encoding: 98 98 1
Width: 471
VWidth: 987
Flags: HW
HStem: 29.1145 41.6926<81.4921 383.858> 493.539 21.1065G<417.876 429.044>
LayerCount: 2
Back
SplineSet
765.358398438 496.928710938 m 0
 772.287109375 569.018554688 789.705078125 568.899414062 798.670898438 488.999023438 c 0
 807.637695312 409.099609375 808.154296875 249.4296875 799.358398438 169.62109375 c 0
 790.5625 89.8125 772.455078125 89.873046875 707.408203125 89.9423828125 c 0
 642.360351562 90.01171875 530.377929688 90.08984375 470.892578125 92.30078125 c 0
 411.40625 94.51171875 404.419921875 98.8564453125 403.653320312 104.352539062 c 0
 402.885742188 109.849609375 408.340820312 116.49609375 463.797851562 121.030273438 c 0
 519.255859375 125.564453125 624.712890625 127.984375 683.340820312 130.16796875 c 0
 741.967773438 132.3515625 753.759765625 134.299804688 757.875 207.422851562 c 0
 761.991210938 280.545898438 758.4296875 424.83984375 765.358398438 496.928710938 c 0
EndSplineSet
Fore
SplineSet
203.858398438 -199.786132812 m 4
 60.2080078125 -199.786132812 23 -197.010742188 23 -184.543945312 c 4
 23 -176.1015625 40.0595703125 -170.775390625 87.30859375 -166.912109375 c 4
 118.490234375 -164.36328125 165.196289062 -162.255859375 269.311523438 -159.03515625 c 4
 282.079101562 -158.639648438 289.856445312 -158.389648438 296.905273438 -158.126953125 c 4
 384.262695312 -154.873046875 392.782226562 -148.48828125 396.547851562 -81.6025390625 c 4
 397.883789062 -57.8759765625 398.709960938 -24.947265625 399.485351562 58.779296875 c 4
 400.390625 156.521484375 401.461914062 195.299804688 404.493164062 226.83984375 c 4
 408.220703125 265.615234375 414.168945312 285.74609375 421.208984375 285.74609375 c 4
 436.65625 285.74609375 447.326171875 188.811523438 447.326171875 48.8828125 c 4
 447.326171875 -19.6015625 444.770507812 -78.322265625 440.705078125 -115.208984375 c 4
 432.036132812 -193.872070312 413.576171875 -199.786132812 203.858398438 -199.786132812 c 4
EndSplineSet
EndChar

StartChar: c
Encoding: 99 99 2
Width: 237
VWidth: 990
Flags: HW
HStem: 23.4583 30.4262<123.453 183.281> 493.141 25.4463<52.9087 127.736>
VStem: 65.2598 29.513<90.3774 245.477> 141.211 26.1193<383.742 479.272>
LayerCount: 2
Back
SplineSet
559.763671875 498.9296875 m 0
 560.052734375 498.174804688 560.62890625 496.666015625 557.037109375 497.954101562 c 0
 553.443359375 499.2421875 545.6796875 503.327148438 548.986328125 512.302734375 c 0
 552.294921875 521.278320312 566.67578125 535.143554688 588.0546875 543.330078125 c 0
 609.431640625 551.516601562 637.8046875 554.022460938 658.37109375 540.032226562 c 0
 678.9375 526.041015625 691.69921875 495.5546875 681.78125 445.533203125 c 0
 671.865234375 395.510742188 639.2734375 325.954101562 625.3515625 274.123046875 c 0
 611.4296875 222.291015625 616.181640625 188.190429688 623.58203125 162.729492188 c 0
 630.984375 137.267578125 641.037109375 120.447265625 652.662109375 113.549804688 c 0
 664.2890625 106.65234375 677.48828125 109.676757812 689.9765625 116.903320312 c 0
 702.462890625 124.129882812 714.240234375 135.559570312 721.837890625 133.393554688 c 0
 729.4375 131.2265625 732.857421875 115.465820312 723.197265625 103.151367188 c 0
 713.537109375 90.8359375 690.798828125 81.96875 669.28125 80.9365234375 c 0
 647.76171875 79.9033203125 627.466796875 86.7060546875 613.318359375 109.626953125 c 0
 599.169921875 132.546875 591.169921875 171.58203125 589.015625 206.250976562 c 0
 586.861328125 240.919921875 590.55078125 271.21875 606.287109375 315.168945312 c 0
 622.021484375 359.119140625 649.798828125 416.715820312 657.84375 455.163085938 c 0
 665.88671875 493.610351562 654.1953125 512.904296875 638.173828125 520.987304688 c 0
 622.15234375 529.0703125 601.802734375 525.938476562 587.96484375 520.51953125 c 0
 574.126953125 515.099609375 566.80078125 507.392578125 563.138671875 503.538085938 c 0
 559.474609375 499.684570312 559.474609375 499.684570312 559.763671875 498.9296875 c 0
EndSplineSet
Fore
SplineSet
23 252.291992188 m 4
 23 270.346679688 66.0712890625 294.987304688 103.32421875 294.987304688 c 4
 142.557617188 294.987304688 167.33203125 267.65625 167.33203125 221.642578125 c 4
 167.33203125 196.830078125 160.127929688 160.916992188 126.009765625 70.525390625 c 4
 103.528320312 10.96484375 94.771484375 -19.5439453125 94.771484375 -56.6484375 c 4
 94.771484375 -119.057617188 119.546875 -169.715820312 150.454101562 -169.715820312 c 4
 158.802734375 -169.715820312 167.655273438 -166.01953125 186.12109375 -153.067382812 c 4
 195.504882812 -146.484375 199.41015625 -144.39453125 203.2578125 -144.39453125 c 4
 209.677734375 -144.39453125 213.64453125 -150.21484375 213.64453125 -158.479492188 c 4
 213.64453125 -181.409179688 183.111328125 -200.141601562 151.325195312 -200.141601562 c 4
 96.59765625 -200.141601562 65.2607421875 -144.61328125 65.2607421875 -64.9833984375 c 4
 65.2607421875 -20.3759765625 75.0947265625 28.515625 117.489257812 130.349609375 c 4
 134.288085938 170.701171875 141.211914062 191.30078125 141.211914062 214.443359375 c 4
 141.211914062 250.83984375 124.0859375 269.541015625 96.3232421875 269.541015625 c 4
 69.15625 269.541015625 35.6376953125 251.634765625 32.4970703125 244.83984375 c 4
 29.6689453125 238.720703125 23 245.188476562 23 252.291992188 c 4
EndSplineSet
EndChar

StartChar: d
Encoding: 100 100 3
Width: 472
VWidth: 987
Flags: HW
HStem: 29.1145 41.6926<88.4901 390.834> 493.539 21.1065G<37.9917 54.2171>
LayerCount: 2
Back
SplineSet
427.426757812 496.928710938 m 0
 434.35546875 424.83984375 430.793945312 280.545898438 434.909179688 207.422851562 c 0
 439.024414062 134.299804688 450.817382812 132.3515625 509.444335938 130.16796875 c 0
 568.071289062 127.984375 673.528320312 125.564453125 728.986328125 121.030273438 c 0
 784.444335938 116.49609375 789.8984375 109.849609375 789.131835938 104.352539062 c 0
 788.365234375 98.8564453125 781.377929688 94.51171875 721.892578125 92.30078125 c 0
 662.40625 90.08984375 550.424804688 90.01171875 485.376953125 89.9423828125 c 0
 420.329101562 89.873046875 402.221679688 89.8125 393.426757812 169.62109375 c 0
 384.630859375 249.4296875 385.147460938 409.099609375 394.11328125 488.999023438 c 0
 403.080078125 568.899414062 420.498046875 569.018554688 427.426757812 496.928710938 c 0
EndSplineSet
Fore
SplineSet
25 50.419921875 m 4
 25 188.385742188 35.0634765625 285.74609375 50.9375 285.74609375 c 4
 58.078125 285.74609375 64.064453125 266.047851562 67.76171875 227.578125 c 4
 70.7158203125 196.838867188 71.931640625 157.004882812 72.9287109375 49.2431640625 c 4
 73.609375 -24.2333984375 74.2880859375 -55.1162109375 75.6796875 -79.8466796875 c 4
 79.5419921875 -148.485351562 88.0625 -154.873046875 175.294921875 -158.122070312 c 4
 182.278320312 -158.381835938 190.159179688 -158.63671875 203.805664062 -159.059570312 c 4
 306.943359375 -162.25 353.408203125 -164.329101562 384.90234375 -166.903320312 c 4
 431.875 -170.744140625 449.326171875 -175.997070312 449.326171875 -184.533203125 c 4
 449.326171875 -196.905273438 412.66015625 -199.786132812 267.192382812 -199.786132812 c 4
 58.7548828125 -199.786132812 40.2880859375 -193.872070312 31.6640625 -115.606445312 c 4
 27.7177734375 -79.7958984375 25 -21.2822265625 25 50.419921875 c 4
EndSplineSet
EndChar

StartChar: e
Encoding: 101 101 4
Width: 476
Flags: HW
HStem: 3.94076 22.1618G<441.654 450.585>
LayerCount: 2
Back
SplineSet
606.321289062 522.010742188 m 2
 700.262695312 307.349609375 l 1
 805.786132812 66.2275390625 l 2
 806.94140625 63.5859375 807.014648438 60.2255859375 805.752929688 57.3984375 c 0
 804.4921875 54.5703125 802.219726562 52.9990234375 799.885742188 53 c 0
 799.881835938 52.990234375 610.227539062 53.0625 610.227539062 53.0625 c 1
 397.188476562 53.1328125 l 2
 394.85546875 53.1337890625 392.590820312 54.716796875 391.353515625 57.544921875 c 0
 390.115234375 60.373046875 390.220703125 63.7236328125 391.3984375 66.3642578125 c 0
 391.393554688 66.3740234375 487.115234375 280.961914062 487.115234375 280.961914062 c 1
 594.630859375 522.014648438 l 2
 595.80859375 524.655273438 597.999023438 526.432617188 600.498046875 526.431640625 c 0
 602.997070312 526.430664062 605.165039062 524.651367188 606.321289062 522.010742188 c 2
EndSplineSet
Fore
SplineSet
355.560546875 45.1337890625 m 4
 442.524414062 -153.555664062 453.1484375 -183.596679688 453.1484375 -195.69140625 c 4
 453.1484375 -198.826171875 452.434570312 -200.059570312 450.583984375 -200.059570312 c 6
 448.4296875 -200.059570312 l 6
 434.571289062 -200.059570312 354.458007812 -200.032226562 250.370117188 -199.9921875 c 6
 25.544921875 -199.91796875 l 6
 23.7109375 -199.916992188 23 -198.732421875 23 -195.694335938 c 4
 23 -183.37890625 34.6767578125 -151.708007812 121.890625 43.787109375 c 4
 202.920898438 225.423828125 220.446289062 259.963867188 239.911132812 259.963867188 c 4
 259.461914062 259.963867188 276.784179688 225.119140625 355.560546875 45.1337890625 c 4
EndSplineSet
EndChar

StartChar: f
Encoding: 102 102 5
Width: 605
VWidth: 987
Flags: HW
HStem: 29.1145 41.6926<220.896 523.238> 206.256 21.326<225.9 318.691> 247.048 28.7443<71.8522 156.366> 493.539 21.1065G<170.397 186.622>
LayerCount: 2
Back
SplineSet
340.560546875 256.90234375 m 0
 336.499023438 248.81640625 333.611328125 242.985351562 328.571289062 241.72265625 c 0
 323.53125 240.459960938 316.33984375 243.766601562 314.591796875 250.703125 c 0
 312.84375 257.640625 316.540039062 268.20703125 325.98046875 281.587890625 c 0
 335.420898438 294.969726562 350.604492188 311.166015625 369.6015625 318.651367188 c 0
 388.599609375 326.13671875 411.411132812 324.91015625 433.560546875 317.397460938 c 0
 455.709960938 309.884765625 477.197265625 296.0859375 500.92578125 287.80078125 c 0
 524.655273438 279.516601562 550.624023438 276.745117188 568.213867188 278.53125 c 0
 585.803710938 280.31640625 595.012695312 286.658203125 601.243164062 294.333984375 c 0
 607.474609375 302.008789062 610.727539062 311.016601562 615.321289062 315.553710938 c 0
 619.916015625 320.08984375 625.848632812 320.15234375 629.986328125 317.0078125 c 0
 634.123046875 313.862304688 636.463867188 307.509765625 632.252929688 297.502929688 c 0
 628.041015625 287.49609375 617.279296875 273.833984375 599.354492188 265.607421875 c 0
 581.4296875 257.380859375 556.34375 254.588867188 524.557617188 262.447265625 c 0
 492.772460938 270.3046875 454.290039062 288.811523438 424.928710938 294.45703125 c 0
 395.56640625 300.1015625 375.330078125 292.883789062 362.59375 284.10546875 c 0
 349.857421875 275.326171875 344.622070312 264.987304688 340.560546875 256.90234375 c 0
481.854492188 496.928710938 m 0
 488.783203125 424.83984375 485.221679688 280.545898438 489.336914062 207.422851562 c 0
 493.452148438 134.299804688 505.245117188 132.3515625 563.872070312 130.16796875 c 0
 622.499023438 127.984375 727.956054688 125.564453125 783.4140625 121.030273438 c 0
 838.872070312 116.49609375 844.326171875 109.849609375 843.559570312 104.352539062 c 0
 842.79296875 98.8564453125 835.805664062 94.51171875 776.3203125 92.30078125 c 0
 716.833984375 90.08984375 604.852539062 90.01171875 539.8046875 89.9423828125 c 0
 474.756835938 89.873046875 456.649414062 89.8125 447.854492188 169.62109375 c 0
 439.05859375 249.4296875 439.575195312 409.099609375 448.541015625 488.999023438 c 0
 457.5078125 568.899414062 474.92578125 569.018554688 481.854492188 496.928710938 c 0
EndSplineSet
Fore
SplineSet
361.021484375 28.0224609375 m 4
 361.021484375 2.8134765625 323.380859375 -22.6435546875 279.081054688 -22.6435546875 c 4
 259.859375 -22.6435546875 239.880859375 -17.8505859375 194.690429688 -1.330078125 c 4
 153.390625 13.7685546875 135.668945312 18.1474609375 116.020507812 18.1474609375 c 4
 85.044921875 18.1474609375 67.671875 7.2626953125 49.4091796875 -26.1689453125 c 4
 43.6259765625 -36.7548828125 40.716796875 -39.982421875 35.599609375 -39.982421875 c 4
 28.833984375 -39.982421875 23 -34.3388671875 23 -24.0224609375 c 4
 23 6.0615234375 72.6123046875 46.8916015625 119.763671875 46.8916015625 c 4
 135.986328125 46.8916015625 149.395507812 42.05859375 174 29.9482421875 c 4
 225.8359375 4.435546875 253.458007812 -1.318359375 278.422851562 -1.318359375 c 4
 307.013671875 -1.318359375 322.654296875 6.228515625 335.455078125 30.9638671875 c 4
 339.77734375 39.31640625 342.538085938 42.064453125 348.331054688 42.064453125 c 4
 356.053710938 42.064453125 361.021484375 37.1806640625 361.021484375 28.0224609375 c 4
157.404296875 50.416015625 m 4
 157.404296875 188.377929688 167.46875 285.74609375 183.344726562 285.74609375 c 4
 190.485351562 285.74609375 196.471679688 266.045898438 200.119140625 228.086914062 c 4
 203.015625 197.942382812 204.33203125 157.368164062 205.375976562 44.5791015625 c 4
 206.010742188 -23.888671875 206.63671875 -54.12109375 208.05078125 -79.248046875 c 4
 211.947265625 -148.485351562 220.467773438 -154.873046875 307.259765625 -158.10546875 c 4
 314.215820312 -158.365234375 322.622070312 -158.639648438 337.70703125 -159.106445312 c 4
 439.216796875 -162.247070312 485.1328125 -164.272460938 516.9453125 -166.873046875 c 4
 564.28125 -170.744140625 581.732421875 -175.997070312 581.732421875 -184.533203125 c 4
 581.732421875 -196.90625 545.06640625 -199.786132812 399.59765625 -199.786132812 c 4
 191.163085938 -199.786132812 172.6953125 -193.873046875 164.0703125 -115.612304688 c 4
 160.123046875 -79.8017578125 157.404296875 -21.291015625 157.404296875 50.416015625 c 4
EndSplineSet
EndChar

StartChar: g
Encoding: 103 103 6
Width: 716
VWidth: 921
Flags: HW
HStem: 44.6275 31.367<88.277 160.4>
VStem: 164.207 409.4<76.3061 496.53>
LayerCount: 2
Back
SplineSet
294.529296875 132.639648438 m 0x60
 297.11328125 212.00390625 297.11328125 370.549804688 297.716796875 449.838867188 c 0
 298.3203125 529.126953125 299.5234375 529.126953125 371.962890625 529.126953125 c 0
 444.400390625 529.126953125 588.068359375 529.126953125 663.046875 529.126953125 c 0xa0
 738.0234375 529.126953125 744.30859375 529.126953125 747.451171875 449.579101562 c 0
 750.59375 370.03125 750.59375 210.943359375 750.59375 131.634765625 c 0
 750.59375 52.326171875 750.59375 52.8017578125 771.865234375 53.0966796875 c 0
 793.13671875 53.390625 835.6796875 53.50390625 858.513671875 51.314453125 c 0
 881.34765625 49.125 884.4765625 44.6357421875 881.92578125 38.970703125 c 0
 879.375 33.306640625 871.146484375 26.466796875 746.875 22.248046875 c 0
 622.603515625 18.029296875 382.302734375 16.431640625 260.396484375 21.37890625 c 0
 138.490234375 26.3251953125 134.994140625 37.8173828125 137.0390625 44.3046875 c 0
 139.0859375 50.7919921875 146.67578125 52.2744140625 171.697265625 52.8935546875 c 0
 196.71875 53.513671875 239.16015625 53.26953125 262.96875 53.2099609375 c 0
 286.77734375 53.150390625 291.9453125 53.2744140625 294.529296875 132.639648438 c 0x60
EndSplineSet
Fore
SplineSet
23 -176.0859375 m 4
 23 -170.047851562 32.3994140625 -169.005859375 92.2998046875 -169.005859375 c 4
 100.147460938 -169.005859375 111.830078125 -169.0234375 132.932617188 -169.07421875 c 4
 135.65625 -169.081054688 137.069335938 -169.083984375 137.583007812 -169.083984375 c 4
 159.810546875 -169.083984375 162.381835938 -163.06640625 164.264648438 -105.25390625 c 4
 165.578125 -64.9208984375 166.40234375 -4.09375 167.166992188 150.728515625 c 4
 167.252929688 168.201171875 167.32421875 181.192382812 167.427734375 194.91796875 c 4
 167.90234375 257.297851562 168.499023438 257.828125 233.96484375 257.828125 c 6
 495.076171875 257.828125 l 6
 565.046875 257.828125 568.072265625 255.258789062 570.53125 193.01953125 c 4
 572.788085938 135.873046875 573.60546875 52.76171875 573.60546875 -122.022460938 c 4
 573.60546875 -122.16796875 l 4
 573.60546875 -167.372070312 574.596679688 -169.215820312 588.447265625 -169.215820312 c 4
 589.463867188 -169.215820312 590.5625 -169.206054688 593.026367188 -169.176757812 c 4
 602.001953125 -169.072265625 607.578125 -169.036132812 614.169921875 -169.036132812 c 4
 670.346679688 -169.036132812 693.24609375 -171.647460938 693.24609375 -178.4453125 c 4
 693.24609375 -193.275390625 584.266601562 -200.373046875 337.587890625 -200.373046875 c 4
 107.697265625 -200.373046875 23 -194.208984375 23 -176.0859375 c 4
EndSplineSet
EndChar

StartChar: h
Encoding: 104 104 7
Width: 574
VWidth: 1035
Flags: HW
HStem: 39.9675 22.1618G<24.5858 27.9654> 208.655 21.327<416.098 508.888> 249.448 28.7431<262.048 356.185> 501.875 40.9392<301.963 343.416>
VStem: 349.616 32.0329<217.486 501.103>
LayerCount: 2
Back
SplineSet
537.6875 211.934570312 m 0
 533.625 203.849609375 530.73828125 198.017578125 525.697265625 196.754882812 c 0
 520.658203125 195.4921875 513.466796875 198.799804688 511.71875 205.736328125 c 0
 509.970703125 212.672851562 513.666015625 223.239257812 523.107421875 236.62109375 c 0
 532.546875 250.002929688 547.73046875 266.19921875 566.728515625 273.68359375 c 0
 585.7265625 281.168945312 608.537109375 279.943359375 630.6875 272.4296875 c 0
 652.8359375 264.916992188 674.32421875 251.118164062 698.052734375 242.833984375 c 0
 721.78125 234.548828125 747.75 231.778320312 765.33984375 233.563476562 c 0
 782.9296875 235.349609375 792.138671875 241.69140625 798.369140625 249.366210938 c 0
 804.6015625 257.041015625 807.853515625 266.049804688 812.447265625 270.5859375 c 0
 817.04296875 275.122070312 822.974609375 275.185546875 827.11328125 272.040039062 c 0
 831.25 268.89453125 833.58984375 262.54296875 829.37890625 252.53515625 c 0
 825.16796875 242.528320312 814.40625 228.8671875 796.48046875 220.639648438 c 0
 778.556640625 212.413085938 753.470703125 209.622070312 721.68359375 217.479492188 c 0
 689.8984375 225.336914062 651.416015625 243.84375 622.0546875 249.489257812 c 0
 592.693359375 255.134765625 572.45703125 247.916992188 559.720703125 239.137695312 c 0
 546.984375 230.358398438 541.748046875 220.020507812 537.6875 211.934570312 c 0
355.43359375 126.903320312 m 0
 393.4296875 212.8359375 476.724609375 371.1796875 533.603515625 450.528320312 c 0
 590.482421875 529.877929688 620.94140625 530.231445312 639.525390625 529.393554688 c 0
 658.109375 528.555664062 664.818359375 526.528320312 668.173828125 445.720703125 c 0
 671.52734375 364.913085938 671.52734375 205.333007812 669.60546875 125.836914062 c 0
 667.685546875 46.3408203125 663.84375 46.931640625 660.900390625 47.052734375 c 0
 657.95703125 47.173828125 655.912109375 46.82421875 652.755859375 119.890625 c 0
 649.59765625 192.956054688 645.328125 339.428710938 640.5859375 413.814453125 c 0
 635.845703125 488.200195312 630.634765625 490.489257812 622.193359375 490.672851562 c 0
 613.75390625 490.856445312 602.0859375 488.934570312 553.1875 409.125 c 0
 504.287109375 329.315429688 418.162109375 171.629882812 371.44921875 99.541015625 c 0
 324.734375 27.453125 317.435546875 40.9716796875 355.43359375 126.903320312 c 0
EndSplineSet
Fore
SplineSet
551.220703125 26.3232421875 m 4
 551.220703125 1.11328125 513.578125 -24.3447265625 468.908203125 -24.3447265625 c 4
 449.434570312 -24.3447265625 429.951171875 -19.505859375 386.98046875 -3.7958984375 c 4
 343.4453125 12.119140625 325.193359375 16.447265625 306.125976562 16.447265625 c 4
 276.004882812 16.447265625 257.91796875 5.6474609375 239.21484375 -28.5869140625 c 4
 233.840820312 -38.423828125 231.053710938 -41.6826171875 225.864257812 -41.6826171875 c 4
 219.034179688 -41.6826171875 213.19921875 -36.037109375 213.19921875 -25.7197265625 c 4
 213.19921875 4.36328125 262.80859375 45.19140625 309.959960938 45.19140625 c 4
 326.182617188 45.19140625 339.591796875 40.3583984375 364.193359375 28.25 c 4
 416.036132812 2.7353515625 443.659179688 -3.017578125 468.911132812 -3.017578125 c 4
 497.939453125 -3.017578125 512.880859375 4.5849609375 525.356445312 28.69140625 c 4
 529.990234375 37.6455078125 532.916015625 40.3642578125 538.615234375 40.3642578125 c 4
 546.252929688 40.3642578125 551.220703125 35.4814453125 551.220703125 26.3232421875 c 4
381.649414062 -59.0234375 m 5
 381.649414062 -141.192382812 377.810546875 -199.293945312 371.61328125 -199.293945312 c 4
 366.29296875 -199.293945312 363.28515625 -156.458007812 357.30859375 13.986328125 c 4
 354.19140625 102.877929688 352.229492188 147.162109375 349.78515625 185.501953125 c 4
 345.43359375 253.7734375 341.741210938 268.874023438 329.844726562 268.874023438 c 4
 315.432617188 268.874023438 296.55859375 246.712890625 256.58984375 181.478515625 c 4
 239.274414062 153.219726562 221.643554688 122.822265625 189.673828125 67.02734375 c 4
 110.185546875 -71.703125 81.83984375 -118.858398438 64.8154296875 -145.130859375 c 4
 45.0634765625 -175.612304688 30.798828125 -193.033203125 25.37890625 -193.033203125 c 4
 23.7890625 -193.033203125 23 -191.532226562 23 -188.442382812 c 4
 23 -147.247070312 163.170898438 123.875 238.704101562 229.248046875 c 4
 282.970703125 291.001953125 315.0625 309.813476562 374.75390625 309.813476562 c 5
 378.79296875 309.813476562 381.649414062 157.036132812 381.649414062 -59.0234375 c 5
EndSplineSet
EndChar

StartChar: i
Encoding: 105 105 8
Width: 372
VWidth: 1040
Flags: HW
HStem: 43.4771 22.1618G<309.371 344.251> 302.161 74.7734<188.177 226.978>
VStem: 23.0008 326.042<53.4893 77.5535>
LayerCount: 2
Back
SplineSet
460.440429688 64.42578125 m 0
 457.821289062 72.140625 457.97265625 84.3779296875 483.939453125 134.420898438 c 0
 509.905273438 184.462890625 561.682617188 272.303710938 590.380859375 317.575195312 c 0
 619.079101562 362.84765625 624.693359375 365.54296875 630.633789062 367.485351562 c 0
 636.57421875 369.426757812 642.83984375 370.61328125 657.93359375 343.12109375 c 0
 673.02734375 315.62890625 696.94921875 259.461914062 718.055664062 206.284179688 c 0
 739.163085938 153.107421875 757.446289062 102.943359375 764.625 77.4306640625 c 0
 771.803710938 51.9169921875 767.866210938 51.0927734375 758.317382812 52.5693359375 c 0
 748.768554688 54.0458984375 733.610351562 57.8251953125 712.75390625 105.890625 c 0
 691.897460938 153.956054688 665.345703125 246.303710938 646.775390625 280.373046875 c 0
 628.205078125 314.44140625 617.619140625 290.225585938 593.17578125 243.959960938 c 0
 568.731445312 197.693359375 530.432617188 129.380859375 508.233398438 93.4326171875 c 0
 486.033203125 57.4853515625 479.934570312 53.90625 474.19140625 53.7119140625 c 0
 468.448242188 53.5185546875 463.059570312 56.7109375 460.440429688 64.42578125 c 0
EndSplineSet
Fore
SplineSet
34.70703125 -198.056640625 m 4
 28.896484375 -198.056640625 23 -189.577148438 23 -181.366210938 c 4
 23 -155.15625 83.0849609375 -42.671875 153.012695312 67.64453125 c 4
 189.034179688 124.470703125 198.009765625 133.934570312 207.3359375 133.934570312 c 4
 215.09375 133.934570312 221.532226562 127.384765625 231.63671875 108.979492188 c 4
 266.575195312 45.33984375 349.04296875 -166.751953125 349.04296875 -193.427734375 c 4
 349.04296875 -197.740234375 346.887695312 -199.5234375 341.243164062 -199.5234375 c 4
 314.4609375 -199.5234375 290.611328125 -159.370117188 246.489257812 -18.0087890625 c 4
 228.484375 39.6796875 220.520507812 59.16015625 210.504882812 59.16015625 c 4
 198.54296875 59.16015625 180.930664062 31.375 141.888671875 -38.48046875 c 4
 68.7001953125 -169.432617188 45.3818359375 -198.056640625 34.70703125 -198.056640625 c 4
EndSplineSet
EndChar

StartChar: j
Encoding: 106 106 9
Width: 467
VWidth: 1067
Flags: HW
HStem: 69.8727 22.1618G<404.681 439.562> 328.556 74.7734<278.208 319.003>
LayerCount: 2
Back
SplineSet
406.05078125 -65.7978515625 m 0
 417.36328125 -32.9765625 454.025390625 31.818359375 498.248046875 108.140625 c 0
 542.470703125 184.462890625 594.248046875 272.303710938 622.946289062 317.575195312 c 0
 651.64453125 362.84765625 657.258789062 365.54296875 663.19921875 367.485351562 c 0
 669.139648438 369.426757812 675.405273438 370.61328125 690.499023438 343.12109375 c 0
 705.59375 315.62890625 729.514648438 259.461914062 750.62109375 206.284179688 c 0
 771.728515625 153.107421875 790.01171875 102.943359375 797.190429688 77.4306640625 c 0
 804.369140625 51.9169921875 800.431640625 51.0927734375 790.8828125 52.5693359375 c 0
 781.333984375 54.0458984375 766.17578125 57.8251953125 745.319335938 105.890625 c 0
 724.462890625 153.956054688 697.911132812 246.303710938 679.340820312 280.373046875 c 0
 660.770507812 314.44140625 650.184570312 290.225585938 625.741210938 243.959960938 c 0
 601.296875 197.693359375 562.998046875 129.379882812 528.606445312 68.7568359375 c 0
 494.21484375 8.1337890625 463.734375 -44.7939453125 446.752929688 -71.6884765625 c 0
 429.772460938 -98.5830078125 426.291015625 -99.4443359375 417.532226562 -99.453125 c 0
 408.7734375 -99.4619140625 394.73828125 -98.6181640625 406.05078125 -65.7978515625 c 0
EndSplineSet
Fore
SplineSet
23 -184.659179688 m 4
 23 -162.909179688 46.6826171875 -115.27734375 132.60546875 33.013671875 c 4
 182.959960938 119.918945312 231.034179688 200.56640625 258.430664062 243.787109375 c 4
 283.76953125 283.759765625 292.950195312 294.130859375 302.67578125 294.130859375 c 4
 310.40234375 294.130859375 316.838867188 287.583007812 326.940429688 269.185546875 c 4
 361.875976562 205.557617188 444.3515625 -6.5537109375 444.3515625 -33.232421875 c 4
 444.3515625 -37.544921875 442.196289062 -39.328125 436.171875 -39.328125 c 4
 408.260742188 -39.328125 387.34375 -1.046875 347.703125 119.538085938 c 4
 321.794921875 198.350585938 311.330078125 219.356445312 300.134765625 219.356445312 c 4
 291.61328125 219.356445312 282.763671875 207.1875 258.626953125 161.500976562 c 4
 215.087890625 79.0908203125 101.311523438 -121.356445312 67.2578125 -175.2890625 c 4
 54.333984375 -195.7578125 50.1982421875 -199.390625 39.802734375 -199.390625 c 4
 28.2734375 -199.390625 23 -194.921875 23 -184.659179688 c 4
EndSplineSet
EndChar

StartChar: k
Encoding: 107 107 10
Width: 527
VWidth: 1036
Flags: HW
HStem: 41.098 497.158<164.644 362.76>
VStem: 22.9993 481.405<187.378 391.977>
LayerCount: 2
Back
SplineSet
358.376953125 289.677734375 m 0
 358.376953125 419.766601562 460.493164062 525.224609375 586.4609375 525.224609375 c 0
 712.428710938 525.224609375 814.544921875 419.766601562 814.544921875 289.677734375 c 0
 814.544921875 159.587890625 712.428710938 54.1298828125 586.4609375 54.1298828125 c 0
 460.493164062 54.1298828125 358.376953125 159.587890625 358.376953125 289.677734375 c 0
EndSplineSet
Fore
SplineSet
23 47.677734375 m 4
 23 184.963867188 130.765625 296.255859375 263.702148438 296.255859375 c 4
 396.638671875 296.255859375 504.404296875 184.963867188 504.404296875 47.677734375 c 4
 504.404296875 -89.609375 396.638671875 -200.901367188 263.702148438 -200.901367188 c 4
 130.765625 -200.901367188 23 -89.609375 23 47.677734375 c 4
EndSplineSet
EndChar

StartChar: l
Encoding: 108 108 11
Width: 730
VWidth: 1036
Flags: HW
HStem: 41.342 29.1162<26.6352 329.317> 439.645 44.5947<240.825 383.258>
VStem: 141.839 36.2387<212.202 373.621> 434.865 46.153<159.127 379.031>
LayerCount: 2
Back
SplineSet
238.133789062 58.302734375 m 0
 234.408203125 62.9853515625 233.657226562 71.7568359375 237.241210938 76.142578125 c 0
 240.826171875 80.5283203125 248.745117188 80.5283203125 283.493164062 80.5283203125 c 0
 318.240234375 80.5283203125 379.8125 80.5283203125 427.958984375 80.14453125 c 0
 476.10546875 79.7607421875 510.821289062 78.994140625 540.126953125 89.0234375 c 0
 569.43359375 99.052734375 593.328125 119.87890625 607.571289062 152.587890625 c 0
 621.815429688 185.296875 626.40625 229.885742188 625.043945312 271.883789062 c 0
 623.682617188 313.880859375 616.366210938 353.28125 600.303710938 381.5859375 c 0
 584.241210938 409.891601562 559.432617188 427.096679688 525.90625 429.928710938 c 0
 492.379882812 432.760742188 450.140625 421.217773438 421.8671875 394.232421875 c 0
 393.59375 367.248046875 379.291015625 324.825195312 382.361328125 279.94921875 c 0
 385.432617188 235.072265625 405.875976562 187.747070312 428.943359375 155.837890625 c 0
 452.01171875 123.927734375 477.701171875 107.435546875 513.864257812 97.8154296875 c 0
 550.028320312 88.1953125 596.662109375 85.4482421875 661.834960938 83.33203125 c 0
 727.0078125 81.216796875 810.715820312 79.7333984375 850.236328125 74.857421875 c 0
 889.7578125 69.98046875 885.08984375 61.712890625 879.291015625 57.5791015625 c 0
 873.493164062 53.4453125 866.5625 53.4453125 804.475585938 53.5048828125 c 0
 742.387695312 53.5654296875 625.145507812 53.6845703125 546.6640625 62.6337890625 c 0
 468.182617188 71.58203125 428.467773438 89.359375 393.947265625 147.564453125 c 0
 359.427734375 205.76953125 330.10546875 304.400390625 359.27734375 373.018554688 c 0
 388.44921875 441.63671875 476.112304688 480.236328125 542.096679688 471.260742188 c 0
 608.081054688 462.28515625 652.379882812 405.734375 665.052734375 335.708007812 c 0
 677.724609375 265.681640625 658.770507812 182.182617188 635.658203125 132.267578125 c 0
 612.546875 82.353515625 585.280273438 66.02734375 558.384765625 58.5009765625 c 0
 531.489257812 50.974609375 504.966796875 52.248046875 454.5078125 52.703125 c 0
 404.047851562 53.1572265625 329.665039062 52.79296875 289.112304688 52.908203125 c 0
 248.55859375 53.0244140625 241.859375 53.6201171875 238.133789062 58.302734375 c 0
EndSplineSet
Fore
SplineSet
310.057617188 -200.15234375 m 4
 306.017578125 -200.15234375 299.9140625 -200.125976562 281.543945312 -200.033203125 c 4
 226.198242188 -199.750976562 198.020507812 -199.658203125 172.239257812 -199.658203125 c 4
 166.3515625 -199.658203125 158.440429688 -199.663085938 135.861328125 -199.688476562 c 4
 117.944335938 -199.708984375 109.247070312 -199.715820312 100.692382812 -199.715820312 c 4
 35.7861328125 -199.715820312 30.5224609375 -199.30078125 26.62890625 -194.407226562 c 4
 24.2607421875 -191.431640625 23 -187.553710938 23 -183.598632812 c 4
 23 -180.032226562 24.025390625 -176.805664062 25.6875 -174.771484375 c 4
 28.89453125 -170.848632812 35.142578125 -170.541015625 105.533203125 -170.541015625 c 4
 135.620117188 -170.541015625 164.200195312 -170.596679688 227.561523438 -170.828125 c 4
 274.204101562 -170.998046875 297.845703125 -171.057617188 331.63671875 -171.057617188 c 5
 392.10546875 -171.057617188 434.86328125 -93.330078125 434.86328125 22.7783203125 c 4
 434.86328125 135.758789062 394.377929688 198.64453125 315.280273438 198.64453125 c 4
 240.053710938 198.64453125 178.077148438 141.763671875 178.077148438 48.0390625 c 4
 178.077148438 -40.908203125 233.897460938 -130.114257812 321.634765625 -153.453125 c 4
 352.534179688 -161.672851562 404.212890625 -166.197265625 535.458984375 -170.005859375 c 4
 669.853515625 -173.90625 707.068359375 -178.15625 707.068359375 -190.731445312 c 4
 707.068359375 -196.014648438 700.501953125 -199.067382812 691.21484375 -199.067382812 c 5
 303.026367188 -199.067382812 242.626953125 -187.2890625 190.775390625 -99.861328125 c 4
 160.26953125 -48.4248046875 141.838867188 13.8251953125 141.838867188 63.98046875 c 4
 141.838867188 168.794921875 222.330078125 243.240234375 318.305664062 243.240234375 c 4
 417.004882812 243.240234375 481.015625 164.508789062 481.015625 38.2314453125 c 4
 481.015625 -73.1435546875 431.221679688 -175.051757812 356.263671875 -196.028320312 c 4
 344.875 -199.21484375 334.26953125 -200.15234375 310.057617188 -200.15234375 c 4
EndSplineSet
EndChar

StartChar: m
Encoding: 109 109 12
Width: 600
VWidth: 1035
Flags: HW
HStem: 77.2145 35.9717<220.139 506.67> 163.879 21.327<225.901 318.694> 204.672 28.7431<71.8507 153.958> 541.639 21.1065G<165.507 181.731>
VStem: 152.514 42.5191<364.294 531.038> 159.994 43.4374<126.319 309.716> 506.673 70.1864<85.842 122.455>
LayerCount: 2
Back
SplineSet
342.978515625 171.168945312 m 0
 338.916992188 163.083984375 336.028320312 157.251953125 330.98828125 155.989257812 c 0
 325.94921875 154.7265625 318.756835938 158.034179688 317.008789062 164.970703125 c 0
 315.260742188 171.907226562 318.958007812 182.473632812 328.397460938 195.85546875 c 0
 337.837890625 209.237304688 353.021484375 225.43359375 372.01953125 232.91796875 c 0
 391.017578125 240.403320312 413.828125 239.177734375 435.977539062 231.6640625 c 0
 458.126953125 224.151367188 479.614257812 210.352539062 503.342773438 202.068359375 c 0
 527.072265625 193.783203125 553.041992188 191.012695312 570.630859375 192.797851562 c 0
 588.220703125 194.583984375 597.4296875 200.92578125 603.66015625 208.600585938 c 0
 609.891601562 216.275390625 613.14453125 225.284179688 617.73828125 229.8203125 c 0
 622.333007812 234.356445312 628.266601562 234.419921875 632.403320312 231.274414062 c 0
 636.541015625 228.12890625 638.881835938 221.77734375 634.669921875 211.770507812 c 0
 630.458984375 201.762695312 619.696289062 188.1015625 601.771484375 179.874023438 c 0
 583.846679688 171.647460938 558.760742188 168.856445312 526.975585938 176.713867188 c 0
 495.189453125 184.571289062 456.70703125 203.078125 427.345703125 208.723632812 c 0
 397.984375 214.369140625 377.747070312 207.151367188 365.010742188 198.372070312 c 0
 352.274414062 189.592773438 347.040039062 179.254882812 342.978515625 171.168945312 c 0
479.63671875 496.928710938 m 0
 486.565429688 424.83984375 483.00390625 280.545898438 487.119140625 207.422851562 c 0
 491.234375 134.299804688 503.029296875 132.3515625 552.610351562 130.203125 c 0
 602.192382812 128.055664062 689.561523438 125.706054688 734.657226562 124.505859375 c 0
 779.75390625 123.305664062 782.57421875 123.25390625 763.991210938 135.791015625 c 0
 745.409179688 148.328125 705.452148438 173.436523438 652.994140625 205.493164062 c 0
 600.537109375 237.549804688 535.610351562 276.53515625 499.625976562 296.474609375 c 0
 463.642578125 316.413085938 456.600585938 317.3046875 450.77734375 327.958984375 c 0
 444.954101562 338.61328125 440.353515625 359.025390625 450.008789062 362.264648438 c 0
 459.665039062 365.50390625 483.579101562 351.568359375 523.229492188 327.9765625 c 0
 562.880859375 304.384765625 618.260742188 271.141601562 657.163085938 246.755859375 c 0
 696.065429688 222.37109375 718.48046875 206.84765625 744.7421875 187.720703125 c 0
 771.004882812 168.592773438 801.096679688 145.872070312 818.875976562 131.18359375 c 0
 836.655273438 116.495117188 842.108398438 109.849609375 841.341796875 104.352539062 c 0
 840.575195312 98.8564453125 833.587890625 94.51171875 774.102539062 92.30078125 c 0
 714.616210938 90.08984375 602.634765625 90.01171875 537.586914062 89.9423828125 c 0
 472.5390625 89.873046875 454.431640625 89.8125 445.63671875 169.62109375 c 0
 436.840820312 249.4296875 437.357421875 409.099609375 446.323242188 488.999023438 c 0
 455.290039062 568.899414062 472.708007812 569.018554688 479.63671875 496.928710938 c 0
EndSplineSet
Fore
SplineSet
361.0234375 -62.4521484375 m 4
 361.0234375 -87.6611328125 323.380859375 -113.120117188 278.34375 -113.120117188 c 4xf2
 258.615234375 -113.120117188 239.625 -108.235351562 199.416015625 -93.5341796875 c 4
 153.040039062 -76.5791015625 133.919921875 -72.328125 114.971679688 -72.328125 c 4
 84.57421875 -72.328125 67.638671875 -83.26953125 49.7099609375 -116.094726562 c 4
 43.6123046875 -127.259765625 40.5966796875 -130.458984375 35.5458984375 -130.458984375 c 4
 28.8359375 -130.458984375 23 -124.813476562 23 -114.49609375 c 4
 23 -84.4140625 72.6103515625 -43.5849609375 119.122070312 -43.5849609375 c 4
 134.978515625 -43.5849609375 149.215820312 -48.3310546875 179.255859375 -63.115234375 c 4
 225.145507812 -85.7001953125 248.243164062 -91.794921875 273.625 -91.794921875 c 4
 301.036132812 -91.794921875 322.424804688 -84.6865234375 336.643554688 -57.21484375 c 4
 339.733398438 -51.24609375 342.036132812 -48.412109375 348.098632812 -48.412109375 c 4
 356.055664062 -48.412109375 361.0234375 -53.294921875 361.0234375 -62.4521484375 c 4
152.514648438 50.4130859375 m 4xfa
 152.514648438 188.393554688 162.578125 285.74609375 178.452148438 285.74609375 c 4
 185.591796875 285.74609375 191.577148438 266.052734375 195.201171875 228.346679688 c 4xfa
 198.072265625 198.48046875 199.438476562 157.5625 200.500976562 42.62890625 c 4
 201.115234375 -23.7431640625 201.72265625 -53.7216796875 203.2578125 -81.0009765625 c 4
 206.90625 -145.795898438 213.500976562 -154.7578125 281.370117188 -157.698242188 c 4
 313.375976562 -159.084960938 467.00390625 -163.813476562 492.357421875 -163.813476562 c 4
 501.288085938 -163.813476562 506.671875 -163.2265625 506.671875 -162.149414062 c 4
 506.671875 -155.461914062 299.290039062 -27.88671875 192.362304688 31.36328125 c 4
 188.228515625 33.6533203125 185.297851562 35.2587890625 181.857421875 37.1298828125 c 4
 166.549804688 45.4580078125 165.477539062 46.2470703125 165.477539062 48.4970703125 c 4
 165.477539062 49.8681640625 165.079101562 50.9931640625 163.82421875 53.71484375 c 4
 159.400390625 63.3046875 157.95703125 69.7099609375 157.95703125 78.1064453125 c 5
 157.95703125 84.013671875 160.631835938 88.19140625 166.059570312 88.19140625 c 4
 207.723632812 88.19140625 576.859375 -157.918945312 576.859375 -187.360351562 c 4
 576.859375 -196.9140625 537.993164062 -199.786132812 393.513671875 -199.786132812 c 4
 186.344726562 -199.786132812 167.8046875 -193.880859375 159.173828125 -115.563476562 c 4xf6
 155.232421875 -79.80078125 152.514648438 -21.29296875 152.514648438 50.4130859375 c 4xfa
EndSplineSet
EndChar

StartChar: n
Encoding: 110 110 13
Width: 471
VWidth: 1035
Flags: HW
HStem: 77.2145 35.9717<93.1889 371.53> 541.639 21.1065G<417.895 434.495>
VStem: 23.0002 70.1864<85.0779 116.441> 396.428 43.4374<131.218 309.716>
LayerCount: 2
Back
SplineSet
765.315429688 496.928710938 m 0
 772.244140625 569.018554688 789.661132812 568.899414062 798.627929688 488.999023438 c 0
 807.594726562 409.099609375 808.110351562 249.4296875 799.315429688 169.62109375 c 0
 790.51953125 89.8125 772.412109375 89.873046875 707.364257812 89.9423828125 c 0
 642.317382812 90.01171875 530.334960938 90.08984375 470.848632812 92.30078125 c 0
 411.36328125 94.51171875 404.375976562 98.8564453125 403.609375 104.352539062 c 0
 402.842773438 109.849609375 408.295898438 116.495117188 426.075195312 131.18359375 c 0
 443.854492188 145.872070312 473.947265625 168.592773438 500.208984375 187.720703125 c 0
 526.470703125 206.84765625 548.88671875 222.37109375 587.788085938 246.755859375 c 0
 626.690429688 271.141601562 682.0703125 304.384765625 721.721679688 327.9765625 c 0
 761.372070312 351.568359375 785.286132812 365.50390625 794.942382812 362.264648438 c 0
 804.598632812 359.025390625 799.997070312 338.61328125 794.173828125 327.958984375 c 0
 788.350585938 317.3046875 781.30859375 316.413085938 745.325195312 296.474609375 c 0
 709.340820312 276.53515625 644.4140625 237.549804688 591.95703125 205.493164062 c 0
 539.5 173.436523438 499.541992188 148.328125 480.959960938 135.791015625 c 0
 462.376953125 123.25390625 465.197265625 123.305664062 510.293945312 124.505859375 c 0
 555.390625 125.706054688 642.758789062 128.055664062 692.340820312 130.203125 c 0
 741.921875 132.3515625 753.716796875 134.299804688 757.83203125 207.422851562 c 0
 761.947265625 280.545898438 758.38671875 424.83984375 765.315429688 496.928710938 c 0
EndSplineSet
Fore
SplineSet
23 -187.231445312 m 4
 23 -157.879882812 388.469726562 88.19140625 434.494140625 88.19140625 c 5
 438.833984375 88.19140625 441.903320312 82.6787109375 441.903320312 74.322265625 c 4
 441.903320312 68.5009765625 440.4140625 62.5048828125 435.799804688 52.15625 c 4
 434.653320312 49.5849609375 434.264648438 48.548828125 434.264648438 47.6513671875 c 4
 434.264648438 47.3046875 434.322265625 47.07421875 434.504882812 46.7138671875 c 4
 434.579101562 46.568359375 434.600585938 46.5078125 434.600585938 46.4248046875 c 4
 434.600585938 46.0771484375 434.220703125 45.830078125 428.838867188 42.9794921875 c 4
 422.91796875 39.84375 417.981445312 37.1728515625 410.213867188 32.869140625 c 4
 301.408203125 -27.421875 93.1865234375 -155.407226562 93.1865234375 -162.087890625 c 4
 93.1865234375 -163.018554688 97.23046875 -163.813476562 105.498046875 -163.813476562 c 4
 123.5234375 -163.813476562 264.483398438 -160.038085938 309.298828125 -158.095703125 c 4
 383.858398438 -154.865234375 392.828125 -148.0234375 396.763671875 -78.0927734375 c 4
 398.163085938 -53.232421875 398.744140625 -23.634765625 399.329101562 39.6162109375 c 4
 400.421875 157.799804688 401.881835938 199.46484375 404.701171875 228.795898438 c 4
 408.241210938 265.623046875 414.1875 285.74609375 421.2265625 285.74609375 c 4
 436.67578125 285.74609375 447.345703125 188.813476562 447.345703125 48.884765625 c 4
 447.345703125 -19.5986328125 444.790039062 -78.3193359375 440.728515625 -115.176757812 c 4
 432.0546875 -193.876953125 413.549804688 -199.786132812 204.041015625 -199.786132812 c 4
 65.033203125 -199.786132812 23 -197.184570312 23 -187.231445312 c 4
EndSplineSet
EndChar

StartChar: o
Encoding: 111 111 14
Width: 498
VWidth: 1039
Flags: HW
HStem: 505.192 41.6885<108.775 350.884>
VStem: 151.081 75.9389<294.356 336.507> 350.894 86.0441<491.441 542.391> 403.073 72.2497<178.878 216.438>
LayerCount: 2
Back
SplineSet
462.727539062 530.904296875 m 0x40
 527.0625 532.434570312 651.0234375 530.25 713.134765625 529.08203125 c 0
 775.245117188 527.915039062 775.505859375 527.764648438 775.634765625 524.622070312 c 0
 775.764648438 521.48046875 775.764648438 515.346679688 740.24609375 478.296875 c 0
 704.727539062 441.247070312 633.694335938 373.282226562 599.782226562 338.040039062 c 0
 565.87109375 302.796875 569.083007812 300.27734375 611.994140625 287.8203125 c 0
 654.904296875 275.36328125 737.508789062 252.969726562 779.569335938 237.87109375 c 0
 821.62890625 222.772460938 823.139648438 214.971679688 782.033203125 170.724609375 c 0
 740.926757812 126.477539062 657.20703125 45.7890625 611.291015625 6.8447265625 c 0
 565.375 -32.0986328125 557.266601562 -29.29296875 552.453125 -24.048828125 c 0
 547.640625 -18.8046875 546.125976562 -11.123046875 549.984375 -3.26953125 c 0
 553.842773438 4.583984375 563.07421875 12.6064453125 598.256835938 45.787109375 c 0
 633.439453125 78.9677734375 694.57421875 137.307617188 723.887695312 169.895507812 c 0
 753.200195312 202.484375 750.689453125 209.3203125 709.768554688 222.569335938 c 0
 668.848632812 235.817382812 589.520507812 255.475585938 545.189453125 270.622070312 c 0
 500.857421875 285.767578125 491.524414062 296.401367188 525.064453125 332.775390625 c 0
 558.604492188 369.150390625 635.014648438 431.26171875 670.77734375 461.708984375 c 0
 706.541015625 492.15625 701.65234375 490.936523438 650.143554688 492.58984375 c 0x80
 598.634765625 494.243164062 500.548828125 498.767578125 450.397460938 501.33984375 c 0
 400.24609375 503.911132812 398.11328125 504.52734375 395.879882812 507.124023438 c 0
 393.647460938 509.720703125 391.314453125 514.303710938 392.500976562 519.216796875 c 0
 393.6875 524.129882812 398.393554688 529.374023438 462.727539062 530.904296875 c 0x40
EndSplineSet
Fore
SplineSet
157.928710938 388.880859375 m 4
 299.291015625 388.880859375 436.939453125 382.59375 436.939453125 373.859375 c 4xe0
 436.939453125 370.174804688 412.438476562 344.375976562 336.397460938 269.583984375 c 4
 249.479492188 184.095703125 227.021484375 159.779296875 227.021484375 150.036132812 c 4
 227.021484375 144.025390625 235.56640625 140.110351562 270.76953125 129.889648438 c 4
 276.767578125 128.1484375 283.737304688 126.166015625 295.213867188 122.920898438 c 4
 380.869140625 98.7060546875 416.1015625 88.0419921875 438.98828125 79.8251953125 c 4
 465.901367188 70.1640625 475.322265625 64.037109375 475.322265625 57.7822265625 c 4
 475.322265625 35.9951171875 361.029296875 -82.01171875 271.27734375 -158.13671875 c 4
 231.991210938 -191.458984375 216.842773438 -200.271484375 209.083984375 -200.271484375 c 4
 202.005859375 -200.271484375 195.721679688 -192.9375 195.721679688 -184.809570312 c 4
 195.721679688 -182.71484375 196.138671875 -180.822265625 197.134765625 -178.795898438 c 4
 201.109375 -170.706054688 217.02734375 -154.931640625 250.79296875 -122.754882812 c 4
 373.278320312 -6.033203125 403.075195312 30.3408203125 403.075195312 42.13671875 c 4
 403.075195312 48.8017578125 393.560546875 54.4619140625 365.811523438 63.4453125 c 4
 352.655273438 67.705078125 335.29296875 72.74609375 290.001953125 85.28125 c 4
 236.514648438 100.084960938 215.037109375 106.358398438 197.596679688 112.317382812 c 4
 163.4453125 123.985351562 151.08203125 132.291992188 151.08203125 143.576171875 c 4xd0
 151.08203125 162.086914062 184.344726562 196.40234375 290.403320312 284.875 c 4
 337.2578125 323.958984375 350.895507812 336.618164062 350.895507812 341.650390625 c 4
 350.895507812 345.111328125 344.447265625 346.6015625 289.005859375 348.383789062 c 4
 145.220703125 353.006835938 23 365.5546875 23 378.802734375 c 4
 23 385.495117188 54.193359375 388.880859375 157.928710938 388.880859375 c 4
EndSplineSet
EndChar

StartChar: p
Encoding: 112 112 15
Width: 471
VWidth: 1035
Flags: HW
HStem: 521.033 41.6916<81.4981 383.856>
LayerCount: 2
Back
SplineSet
771.358398438 143.009765625 m 0
 764.4296875 215.098632812 767.991210938 359.392578125 763.875 432.515625 c 0
 759.759765625 505.638671875 747.967773438 507.586914062 689.340820312 509.770507812 c 0
 630.712890625 511.954101562 525.255859375 514.375 469.797851562 518.908203125 c 0
 414.340820312 523.442382812 408.885742188 530.088867188 409.653320312 535.5859375 c 0
 410.419921875 541.08203125 417.40625 545.427734375 476.892578125 547.638671875 c 0
 536.377929688 549.849609375 648.360351562 549.926757812 713.408203125 549.99609375 c 0
 778.455078125 550.065429688 796.5625 550.125976562 805.358398438 470.318359375 c 0
 814.154296875 390.509765625 813.637695312 230.83984375 804.670898438 150.939453125 c 0
 795.705078125 71.0400390625 778.287109375 70.919921875 771.358398438 143.009765625 c 0
EndSplineSet
Fore
SplineSet
447.326171875 35.5263671875 m 4
 447.326171875 -102.430664062 437.26171875 -199.807617188 421.387695312 -199.807617188 c 4
 414.248046875 -199.807617188 408.26171875 -180.108398438 404.602539062 -142.036132812 c 4
 401.692382812 -111.7578125 400.3984375 -71.35546875 399.362304688 40.5009765625 c 4
 398.719726562 109.92578125 398.083984375 140.2578125 396.673828125 165.306640625 c 4
 392.782226562 234.42578125 384.263671875 240.811523438 297.630859375 244.0390625 c 4
 290.862304688 244.291015625 282.426757812 244.568359375 266.11328125 245.073242188 c 4
 165.673828125 248.1796875 119.889648438 250.1875 88.04296875 252.791015625 c 4
 39.990234375 256.719726562 23 262.059570312 23 270.481445312 c 4
 23 282.967773438 60.3408203125 285.724609375 203.665039062 285.724609375 c 4
 413.57421875 285.724609375 432.036132812 279.810546875 440.66015625 201.552734375 c 4
 444.607421875 165.739257812 447.326171875 107.229492188 447.326171875 35.5263671875 c 4
EndSplineSet
EndChar

StartChar: q
Encoding: 113 113 16
Width: 498
VWidth: 1045
Flags: HW
HStem: -37.6009 24.5116<379.583 445.369> 158.725 26.3553<183.026 256.083> 512.665 41.6885<108.775 350.884>
VStem: 151.081 75.9389<301.829 343.981> 350.894 86.0441<498.914 549.864> 403.073 72.2497<186.351 223.911>
LayerCount: 2
Back
SplineSet
543.619140625 151.83203125 m 0x00
 535.030273438 148.986328125 528.864257812 146.905273438 524.407226562 149.576171875 c 0
 519.951171875 152.247070312 517.204101562 159.670898438 520.873046875 165.811523438 c 0
 524.541992188 171.953125 534.626953125 176.810546875 550.764648438 179.59765625 c 0
 566.90234375 182.384765625 589.090820312 183.100585938 607.817382812 174.959960938 c 0
 626.543945312 166.819335938 641.806640625 149.822265625 652.15625 128.84765625 c 0
 662.505859375 107.873046875 667.942382812 82.9228515625 678.86328125 60.28515625 c 0
 689.783203125 37.6484375 706.1875 17.326171875 719.887695312 6.150390625 c 0
 733.587890625 -5.0244140625 744.583984375 -7.0517578125 754.416992188 -6.0302734375 c 0
 764.250976562 -5.009765625 772.920898438 -0.939453125 779.376953125 -0.98046875 c 0
 785.833007812 -1.021484375 790.073242188 -5.1728515625 790.774414062 -10.322265625 c 0
 791.475585938 -15.4716796875 788.639648438 -21.6181640625 778.584960938 -25.716796875 c 0
 768.53125 -29.814453125 751.260742188 -31.8642578125 732.768554688 -25.0068359375 c 0
 714.27734375 -18.1494140625 694.564453125 -2.384765625 677.645507812 25.646484375 c 0
 660.725585938 53.6787109375 646.600585938 93.9765625 629.831054688 118.73046875 c 0
 613.060546875 143.483398438 593.647460938 152.689453125 578.43359375 155.487304688 c 0
 563.219726562 158.286132812 552.208007812 154.676757812 543.619140625 151.83203125 c 0x00
463.227539062 530.904296875 m 0x40
 527.5625 532.434570312 651.5234375 530.25 713.634765625 529.08203125 c 0
 775.745117188 527.915039062 776.005859375 527.764648438 776.134765625 524.622070312 c 0
 776.264648438 521.48046875 776.264648438 515.346679688 740.74609375 478.296875 c 0
 705.227539062 441.247070312 634.194335938 373.282226562 600.282226562 338.040039062 c 0
 566.37109375 302.796875 569.583007812 300.27734375 612.494140625 287.8203125 c 0
 655.404296875 275.36328125 738.008789062 252.969726562 780.069335938 237.87109375 c 0
 822.12890625 222.772460938 823.639648438 214.971679688 782.533203125 170.724609375 c 0
 741.426757812 126.477539062 657.70703125 45.7890625 611.791015625 6.8447265625 c 0
 565.875 -32.0986328125 557.766601562 -29.29296875 552.953125 -24.048828125 c 0
 548.140625 -18.8046875 546.625976562 -11.123046875 550.484375 -3.26953125 c 0
 554.342773438 4.583984375 563.57421875 12.6064453125 598.756835938 45.787109375 c 0
 633.939453125 78.9677734375 695.07421875 137.307617188 724.387695312 169.895507812 c 0
 753.700195312 202.484375 751.189453125 209.3203125 710.268554688 222.569335938 c 0
 669.348632812 235.817382812 590.020507812 255.475585938 545.689453125 270.622070312 c 0
 501.357421875 285.767578125 492.024414062 296.401367188 525.564453125 332.775390625 c 0
 559.104492188 369.150390625 635.514648438 431.26171875 671.27734375 461.708984375 c 0
 707.041015625 492.15625 702.15234375 490.936523438 650.643554688 492.58984375 c 0x80
 599.134765625 494.243164062 501.048828125 498.767578125 450.897460938 501.33984375 c 0
 400.74609375 503.911132812 398.61328125 504.52734375 396.379882812 507.124023438 c 0
 394.147460938 509.720703125 391.814453125 514.303710938 393.000976562 519.216796875 c 0
 394.1875 524.129882812 398.893554688 529.374023438 463.227539062 530.904296875 c 0x40
EndSplineSet
Fore
SplineSet
177.153320312 -11.6064453125 m 4
 169.590820312 -11.6064453125 164.22265625 -7.478515625 164.22265625 -1.5380859375 c 4
 164.22265625 11.974609375 191.998046875 22.6806640625 221.110351562 22.6806640625 c 4
 260.59765625 22.6806640625 288.383789062 2.986328125 306.3671875 -33.458984375 c 4
 310.346679688 -41.5244140625 313.60546875 -49.9228515625 320.297851562 -69.615234375 c 4
 326.245117188 -87.1171875 329.047851562 -94.4189453125 333.370117188 -103.376953125 c 4
 354.112304688 -146.37109375 384.737304688 -175.48828125 410.626953125 -175.48828125 c 4
 414.740234375 -175.48828125 419.092773438 -174.752929688 428.868164062 -172.100585938 c 4
 434.969726562 -170.4453125 437.540039062 -169.920898438 440.223632812 -169.920898438 c 4
 447.66796875 -169.920898438 452.642578125 -173.953125 452.642578125 -180.634765625 c 4
 452.642578125 -191.8046875 438.740234375 -200.000976562 418.014648438 -200.000976562 c 4
 385.62890625 -200.000976562 356.034179688 -179.98828125 332.499023438 -140.997070312 c 4
 326.712890625 -131.412109375 321.250976562 -120.609375 309.591796875 -95.41796875 c 4
 296.030273438 -66.119140625 290.24609375 -54.966796875 283.614257812 -45.1787109375 c 4
 265.412109375 -18.310546875 242.159179688 -3.67578125 217.563476562 -3.67578125 c 4xf0
 210.712890625 -3.67578125 204.305664062 -4.8115234375 191.114257812 -8.6708984375 c 4
 183.383789062 -10.9326171875 180.208984375 -11.6064453125 177.153320312 -11.6064453125 c 4
157.920898438 391.954101562 m 4
 299.276367188 391.954101562 436.939453125 385.666992188 436.939453125 376.485351562 c 4xf8
 436.939453125 372.497070312 410.9609375 345.994140625 361.719726562 297.5625 c 4
 247.293945312 185.017578125 227.021484375 159.943359375 227.021484375 152.154296875 c 4
 227.021484375 147.098632812 235.560546875 143.186523438 270.734375 132.973632812 c 4
 276.903320312 131.182617188 284.225585938 129.100585938 294.755859375 126.123046875 c 4
 380.990234375 101.743164062 416.260742188 91.05859375 439.047851562 82.8779296875 c 4
 465.900390625 73.23828125 475.322265625 67.111328125 475.322265625 60.85546875 c 4
 475.322265625 39.0673828125 361.009765625 -78.9580078125 271.26171875 -155.078125 c 4
 231.9921875 -188.384765625 216.84375 -197.198242188 209.084960938 -197.198242188 c 4
 202.006835938 -197.198242188 195.721679688 -189.86328125 195.721679688 -181.735351562 c 4
 195.721679688 -179.641601562 196.138671875 -177.75 197.040039062 -175.916015625 c 4
 200.5390625 -168.793945312 216.21875 -152.627929688 269.538085938 -101.81640625 c 4
 370.8125 -5.3076171875 403.075195312 29.853515625 403.075195312 44.126953125 c 4xf4
 403.075195312 51.8759765625 393.567382812 57.5322265625 367.622070312 65.93359375 c 4
 355.719726562 69.787109375 336.134765625 75.5869140625 282.146484375 90.5283203125 c 4
 236.810546875 103.076171875 215.991210938 109.10546875 198.12109375 115.2109375 c 4
 163.4453125 127.05859375 151.08203125 135.365234375 151.08203125 146.649414062 c 4
 151.08203125 165.161132812 184.349609375 199.481445312 290.401367188 287.947265625 c 4
 337.255859375 327.032226562 350.895507812 339.69140625 350.895507812 344.725585938 c 4
 350.895507812 348.190429688 344.434570312 349.674804688 289.11328125 351.453125 c 4
 145.249023438 356.076171875 23 368.631835938 23 381.877929688 c 4
 23 388.568359375 54.1923828125 391.954101562 157.920898438 391.954101562 c 4
EndSplineSet
EndChar

StartChar: r
Encoding: 114 114 17
Width: 597
VWidth: 1037
Flags: HW
HStem: 8.79202 30.9363<65.0966 282.708> 20.9435 22.0928<40.1736 199.971> 526.251 22.3113<345.459 517.179>
VStem: 295.144 31.803<50.7266 285.869> 306.261 26.5532<328.597 515.305> 518.055 56.1445<497.159 537.934>
LayerCount: 2
Back
SplineSet
325.151367188 44.095703125 m 0xe0
 332.580078125 48.91015625 342.208984375 52.357421875 347.936523438 54.05078125 c 0
 353.665039062 55.7431640625 355.50390625 55.6875 388.112304688 54.7001953125 c 0
 420.720703125 53.7138671875 484.086914062 51.794921875 521.49609375 52.369140625 c 0
 558.90625 52.943359375 570.3515625 56.0107421875 576.07421875 136.767578125 c 0xe0
 581.796875 217.524414062 581.796875 375.966796875 585.622070312 455.190429688 c 0xd0
 589.447265625 534.4140625 597.096679688 534.4140625 637.192382812 534.4140625 c 0
 677.288085938 534.4140625 749.826171875 534.4140625 790.254882812 532.012695312 c 0
 830.682617188 529.611328125 838.999023438 524.810546875 839.955078125 516.864257812 c 0
 840.91015625 508.91796875 834.506835938 497.826171875 797.055664062 465.6640625 c 0
 759.60546875 433.501953125 691.111328125 380.271484375 623.051757812 317.747070312 c 0
 554.991210938 255.223632812 487.373046875 183.413085938 438.928710938 133.924804688 c 0
 390.484375 84.4365234375 361.215820312 57.2734375 341.610351562 43.81640625 c 0
 322.004882812 30.359375 312.0625 30.6103515625 323.478515625 50.0205078125 c 0
 334.895507812 69.4306640625 367.672851562 108 449.404296875 184.733398438 c 0
 531.13671875 261.466796875 661.795898438 376.33984375 726.471679688 436.223632812 c 0
 791.1484375 496.106445312 789.791992188 500.954101562 785.458984375 504.926757812 c 0
 781.126953125 508.899414062 773.821289062 511.991210938 744.149414062 512.946289062 c 0
 714.477539062 513.900390625 662.401367188 512.717773438 636.553710938 506.776367188 c 0
 610.706054688 500.834960938 611.072265625 490.13671875 611.254882812 413.255859375 c 0
 611.4375 336.375 611.4375 193.317382812 606.091796875 116.563476562 c 0
 600.747070312 39.8095703125 590.056640625 29.361328125 564.447265625 25.2890625 c 0
 538.837890625 21.216796875 498.310546875 23.5205078125 452.958007812 24.8525390625 c 0
 407.604492188 26.185546875 357.430664062 26.546875 334.958984375 29.8203125 c 0
 312.487304688 33.09375 317.72265625 39.2802734375 325.151367188 44.095703125 c 0xe0
EndSplineSet
Fore
SplineSet
332.748046875 223.788085938 m 4x6c
 332.748046875 219.830078125 332.75390625 216.217773438 332.770507812 208.395507812 c 4
 332.802734375 193.268554688 332.813476562 184.158203125 332.813476562 173.708984375 c 4x6c
 332.813476562 37.248046875 330.997070312 -49.5712890625 326.837890625 -109.294921875 c 4
 321.377929688 -187.680664062 313.149414062 -201.208984375 243.049804688 -201.208984375 c 4xb4
 200.977539062 -201.208984375 57.57421875 -196.3359375 34.8857421875 -193.030273438 c 4
 27.62109375 -191.97265625 23 -189.657226562 23 -186.555664062 c 4
 23 -178.681640625 52.7763671875 -166.963867188 73.0205078125 -166.963867188 c 4x74
 75.05859375 -166.963867188 79.3896484375 -167.083007812 89.833984375 -167.395507812 c 4
 160.74609375 -169.516601562 202.680664062 -170.272460938 222.178710938 -170.272460938 c 4
 284.565429688 -170.272460938 289.865234375 -162.537109375 294.982421875 -90.3193359375 c 4xb4
 298.084960938 -46.544921875 299.595703125 -0.595703125 302.049804688 117.532226562 c 4
 303.793945312 201.508789062 304.786132812 235.733398438 305.842773438 257.62890625 c 4
 309.547851562 334.366210938 317.866210938 338.563476562 438.083007812 338.563476562 c 4
 549.227539062 338.563476562 574.19921875 334.975585938 574.19921875 319.783203125 c 4
 574.19921875 307.124023438 556.858398438 288.8046875 458.961914062 207.954101562 c 4
 411.08203125 168.41015625 379.102539062 141.04296875 337.75 103.053710938 c 4
 330.075195312 96.0029296875 325.532226562 91.8984375 307.6328125 75.92578125 c 4
 305.717773438 74.216796875 305.717773438 74.216796875 305.717773438 74.216796875 c 4
 232.834960938 -0.369140625 219.2109375 -14.3056640625 210.869140625 -22.8271484375 c 4
 81.12890625 -155.364257812 43.6123046875 -189.057617188 28.189453125 -189.057617188 c 4
 25.2109375 -189.057617188 24.021484375 -187.80078125 24.021484375 -184.709960938 c 4
 24.021484375 -160.907226562 94.5830078125 -89.3017578125 334.48046875 126.5625 c 4
 475.923828125 253.836914062 518.0546875 294.567382812 518.0546875 305.357421875 c 4
 518.0546875 312.922851562 497.34375 316.251953125 453.508789062 316.251953125 c 4
 412.942382812 316.251953125 376.879882812 313.400390625 356.703125 308.762695312 c 4
 334.581054688 303.676757812 332.748046875 296.716796875 332.748046875 223.788085938 c 4x6c
EndSplineSet
EndChar

StartChar: s
Encoding: 115 115 18
Width: 386
VWidth: 1039
Flags: HW
HStem: 211.46 21.327<227.897 320.689> 252.253 28.7431<73.8488 169.108>
VStem: 24.9985 335.736
LayerCount: 2
Back
SplineSet
470.676757812 211.934570312 m 0
 466.615234375 203.849609375 463.727539062 198.017578125 458.6875 196.754882812 c 0
 453.647460938 195.4921875 446.456054688 198.799804688 444.708007812 205.736328125 c 0
 442.959960938 212.672851562 446.65625 223.239257812 456.096679688 236.62109375 c 0
 465.537109375 250.002929688 480.719726562 266.19921875 499.717773438 273.68359375 c 0
 518.715820312 281.168945312 541.52734375 279.943359375 563.676757812 272.4296875 c 0
 585.826171875 264.916992188 607.313476562 251.118164062 631.041992188 242.833984375 c 0
 654.771484375 234.548828125 680.740234375 231.778320312 698.330078125 233.563476562 c 0
 715.919921875 235.349609375 725.12890625 241.69140625 731.359375 249.366210938 c 0
 737.590820312 257.041015625 740.84375 266.049804688 745.4375 270.5859375 c 0
 750.032226562 275.122070312 755.96484375 275.185546875 760.102539062 272.040039062 c 0
 764.239257812 268.89453125 766.580078125 262.54296875 762.369140625 252.53515625 c 0
 758.157226562 242.528320312 747.395507812 228.8671875 729.470703125 220.639648438 c 0
 711.545898438 212.413085938 686.459960938 209.622070312 654.673828125 217.479492188 c 0
 622.888671875 225.336914062 584.40625 243.84375 555.043945312 249.489257812 c 0
 525.682617188 255.134765625 505.446289062 247.916992188 492.709960938 239.137695312 c 0
 479.973632812 230.358398438 474.73828125 220.020507812 470.676757812 211.934570312 c 0
EndSplineSet
Fore
SplineSet
363.01953125 -131.87109375 m 4
 363.01953125 -157.081054688 325.377929688 -182.541015625 280.791015625 -182.541015625 c 4
 261.370117188 -182.541015625 241.771484375 -177.7109375 198.27734375 -161.807617188 c 4
 155.286132812 -146.088867188 137.16796875 -141.747070312 117.338867188 -141.747070312 c 4
 85.716796875 -141.747070312 69.5810546875 -152.790039062 52.4384765625 -184.171875 c 4
 45.5625 -196.759765625 42.234375 -199.877929688 37.3740234375 -199.877929688 c 4
 30.833984375 -199.877929688 25 -194.232421875 25 -183.916015625 c 4
 25 -153.83203125 74.607421875 -113.004882812 120.163085938 -113.004882812 c 4
 135.487304688 -113.004882812 150.958007812 -117.625 185.87890625 -134.811523438 c 4
 226.799804688 -154.950195312 247.879882812 -161.213867188 276.0390625 -161.213867188 c 4
 306.561523438 -161.213867188 324.551757812 -153.854492188 338.109375 -127.661132812 c 4
 341.747070312 -120.6328125 344.219726562 -117.830078125 350.181640625 -117.830078125 c 4
 358.051757812 -117.830078125 363.01953125 -122.712890625 363.01953125 -131.87109375 c 4
EndSplineSet
EndChar

StartChar: t
Encoding: 116 116 19
Width: 745
VWidth: 1035
Flags: HW
HStem: 189.993 32.2751<559.479 618.222> 361.479 39.1057<137.452 227.353> 382.472 45.3759<646.566 715.003>
VStem: 682.451 39.8344<353.959 421.31>
LayerCount: 2
Back
SplineSet
232.865234375 151.59765625 m 0
 225.36328125 146.899414062 217.54296875 144.76953125 224.072265625 166.518554688 c 0
 230.603515625 188.268554688 251.48046875 233.893554688 269.439453125 275.561523438 c 0
 287.3984375 317.228515625 302.4375 354.931640625 316.951171875 376.420898438 c 0
 331.466796875 397.91015625 345.453125 403.182617188 417.275390625 375.58984375 c 0
 489.09765625 347.99609375 618.75 287.538085938 688.3515625 254.880859375 c 0
 757.951171875 222.223632812 767.494140625 217.37109375 783.80078125 238.286132812 c 0
 800.109375 259.201171875 823.189453125 305.8984375 834.865234375 333.193359375 c 0
 846.5390625 360.489257812 846.82421875 368.416015625 845.0546875 374.021484375 c 0
 843.28515625 379.626953125 839.466796875 382.905273438 757.859375 349.596679688 c 0
 676.25390625 316.288085938 516.923828125 246.41796875 412.837890625 204.772460938 c 0
 308.751953125 163.126953125 259.9453125 149.721679688 237.529296875 147.577148438 c 0
 215.11328125 145.43359375 219.087890625 154.55078125 239.568359375 166.6328125 c 0
 260.05078125 178.713867188 297.037109375 193.759765625 362.36328125 216.750976562 c 0
 427.6875 239.7421875 521.34765625 270.676757812 606.77734375 305.936523438 c 0
 692.20703125 341.1953125 769.396484375 380.776367188 814.373046875 401.125 c 0
 859.34765625 421.474609375 872.107421875 422.590820312 878.904296875 418.3671875 c 0
 885.703125 414.142578125 886.5390625 404.576171875 871.630859375 366.920898438 c 0
 856.720703125 329.265625 826.064453125 263.5234375 809.119140625 227.184570312 c 0
 792.173828125 190.845703125 788.94140625 183.9140625 715.5234375 213.927734375 c 0
 642.107421875 243.942382812 498.509765625 310.903320312 422.900390625 339.845703125 c 0
 347.291015625 368.7890625 339.673828125 359.7109375 323.34375 326.049804688 c 0
 307.013671875 292.388671875 281.97265625 234.147460938 269.0859375 204.176757812 c 0
 256.19921875 174.20703125 255.47265625 172.516601562 251.517578125 168.041015625 c 0
 247.5625 163.565429688 240.369140625 156.294921875 232.865234375 151.59765625 c 0
EndSplineSet
Fore
SplineSet
611.047851562 -150.005859375 m 4xb0
 593.98046875 -150.005859375 552.958007812 -134.408203125 424.939453125 -78.4990234375 c 4
 249.359375 -1.818359375 186.028320312 21.4794921875 157.150390625 21.4794921875 c 4
 144.224609375 21.4794921875 141.340820312 16.8115234375 125.521484375 -19.978515625 c 4
 76.419921875 -134.173828125 40.3759765625 -198.360351562 26.5625 -198.360351562 c 4
 24.423828125 -198.360351562 23 -196.822265625 23 -194.7109375 c 4
 23 -178.536132812 106.532226562 15.1923828125 126.462890625 44.701171875 c 4
 133.569335938 55.2236328125 143.206054688 60.5849609375 155.037109375 60.5849609375 c 4xd0
 180.495117188 60.5849609375 251.560546875 35.755859375 475.232421875 -67.7900390625 c 4
 551.106445312 -102.915039062 585.1171875 -117.731445312 598.3203125 -117.731445312 c 4
 604.361328125 -117.731445312 608.90234375 -114.62890625 615.907226562 -105.645507812 c 4
 640.75 -73.78515625 682.450195312 13.90625 682.450195312 35.6083984375 c 4
 682.450195312 40.212890625 680.573242188 42.4716796875 675.6875 42.4716796875 c 4
 661.553710938 42.4716796875 612.149414062 23.5654296875 437.19140625 -51.13671875 c 4
 174.328125 -163.37109375 76.322265625 -200.28125 35.8857421875 -200.28125 c 4
 27.7470703125 -200.28125 24.5419921875 -198.786132812 24.5419921875 -195.681640625 c 4
 24.5419921875 -185.52734375 58.849609375 -166.572265625 261.241210938 -96.14453125 c 4
 323.864257812 -74.353515625 370.822265625 -57.341796875 429.231445312 -33.234375 c 4
 477.254882812 -13.4140625 516.665039062 4.453125 585.279296875 37.3623046875 c 4
 671.490234375 78.7119140625 693.944335938 87.8486328125 708.116210938 87.8486328125 c 4
 717.77734375 87.8486328125 722.283203125 83.6025390625 722.283203125 75.244140625 c 4
 722.283203125 59.498046875 706.290039062 18.2197265625 665.430664062 -69.4052734375 c 4
 633.306640625 -138.296875 625.834960938 -150.005859375 611.047851562 -150.005859375 c 4xb0
EndSplineSet
EndChar

StartChar: u
Encoding: 117 117 20
Width: 671
VWidth: 1037
Flags: HW
HStem: 2.9178 38.0092<509.389 642.548> 511.846 31.4856<86.3304 448.627>
VStem: 462.886 42.0182<41.4586 510.189>
LayerCount: 2
Back
SplineSet
73.041015625 -89.1953125 m 4xe8
 73.96875 -5.5224609375 76.021484375 153.287109375 77.650390625 232.70703125 c 4
 79.28125 312.126953125 80.484375 312.126953125 152.923828125 312.126953125 c 4
 225.361328125 312.126953125 369.029296875 312.126953125 444.0078125 312.126953125 c 4
 518.984375 312.126953125 525.26953125 312.126953125 528.412109375 232.579101562 c 4
 531.5546875 153.03125 531.5546875 -6.056640625 531.5546875 -85.365234375 c 4
 531.5546875 -164.673828125 531.5546875 -164.198242188 552.826171875 -163.903320312 c 4
 574.09765625 -163.609375 616.640625 -163.49609375 639.474609375 -165.685546875 c 4
 662.30859375 -167.875 665.4375 -172.364257812 662.88671875 -178.029296875 c 4
 660.3359375 -183.693359375 652.107421875 -190.533203125 620.953125 -195.272460938 c 4
 589.796875 -200.01171875 535.734375 -202.6484375 509.017578125 -195.866210938 c 4
 482.30078125 -189.084960938 482.966796875 -172.895507812 482.712890625 -155.551757812 c 4
 482.4609375 -138.208007812 481.287109375 -119.720703125 483.14453125 -46.8662109375 c 4
 485.00390625 25.9873046875 489.89453125 153.227539062 486.7421875 216.9765625 c 4
 483.58984375 280.724609375 472.39453125 280.970703125 439.794921875 281.06640625 c 4
 407.1953125 281.162109375 353.19921875 281.107421875 299.416015625 281.703125 c 4
 245.6328125 282.298828125 192.0703125 283.545898438 162.248046875 279.505859375 c 4
 132.423828125 275.465820312 126.34375 266.139648438 121.27734375 200.5234375 c 4
 116.2109375 134.907226562 112.158203125 13.0126953125 108.599609375 -60.7509765625 c 4xe8
 105.041015625 -134.514648438 101.978515625 -160.12890625 99.638671875 -174.784179688 c 4xd8
 97.30078125 -189.440429688 95.69140625 -193.111328125 91.73828125 -195.080078125 c 4
 87.78515625 -197.049804688 81.48828125 -197.31640625 77.892578125 -196.155273438 c 4
 74.294921875 -194.994140625 73.40234375 -192.403320312 72.85546875 -186.872070312 c 4
 72.310546875 -181.341796875 72.11328125 -172.8671875 73.041015625 -89.1953125 c 4xe8
EndSplineSet
Fore
SplineSet
524.75 -200.08203125 m 4
 465.389648438 -200.08203125 456.364257812 -192.903320312 456.364257812 -122.451171875 c 4
 456.364257812 -108.615234375 456.711914062 -86.34375 458.913085938 15.74609375 c 4
 461.646484375 142.495117188 462.88671875 209.431640625 462.88671875 230.5546875 c 4
 462.88671875 276.645507812 456.98046875 307.418945312 448.627929688 307.443359375 c 5
 407.844726562 307.563476562 382.944335938 307.633789062 347.592773438 307.731445312 c 4
 281.124023438 307.915039062 278.71875 307.927734375 278.71875 307.981445312 c 4
 278.71875 308.294921875 198.819335938 308.844726562 162.783203125 308.844726562 c 4
 85.2822265625 308.844726562 82.0517578125 306.301757812 76.787109375 238.129882812 c 4
 74.107421875 203.420898438 72.1181640625 167.481445312 69.5107421875 112.932617188 c 4
 57.8212890625 -131.680664062 49.443359375 -192.432617188 33.3154296875 -200.466796875 c 4
 27.4990234375 -203.364257812 24 -197.749023438 24 -187.342773438 c 5
 24 -115.124023438 27.546875 159.137695312 29.845703125 271.256835938 c 4
 31.25 339.754882812 32.037109375 340.33203125 108.981445312 340.33203125 c 6
 416.16796875 340.33203125 l 6
 498.487304688 340.33203125 502.046875 337.307617188 504.940429688 264.079101562 c 4
 507.59765625 196.819335938 508.560546875 98.9638671875 508.560546875 -106.5546875 c 4
 508.560546875 -106.728515625 l 4
 508.560546875 -159.897460938 509.62109375 -162.072265625 526.075195312 -162.072265625 c 4
 527.02734375 -162.072265625 527.9765625 -162.065429688 532.01171875 -162.017578125 c 4
 541.706054688 -161.903320312 548.188476562 -161.859375 556.213867188 -161.859375 c 4
 624.908203125 -161.859375 648.3828125 -165.114257812 648.3828125 -174.856445312 c 4
 648.3828125 -189.109375 598.137695312 -200.08203125 524.75 -200.08203125 c 4
EndSplineSet
EndChar

StartChar: v
Encoding: 118 118 21
Width: 542
VWidth: 1037
Flags: HW
HStem: 507.672 21.1065G<251.812 492.552>
LayerCount: 2
Back
SplineSet
361.904296875 83.755859375 m 0
 360.169921875 124.408203125 355.701171875 196.1796875 356.998046875 233.663085938 c 0
 358.294921875 271.146484375 365.359375 274.323242188 441.060546875 317.850585938 c 0
 516.759765625 361.377929688 661.091796875 445.251953125 736.400390625 487.189453125 c 0
 811.7109375 529.126953125 817.99609375 529.126953125 821.138671875 449.579101562 c 0
 824.279296875 370.03125 824.279296875 210.943359375 824.279296875 131.634765625 c 0
 824.279296875 52.326171875 824.279296875 52.8017578125 822.78515625 47.8662109375 c 0
 821.291015625 42.9306640625 818.302734375 32.5869140625 811.9140625 25.7626953125 c 0
 805.5234375 18.939453125 795.734375 15.63671875 720.87890625 15.201171875 c 0
 646.0234375 14.7666015625 506.189453125 17.1982421875 435.4609375 19.1591796875 c 0
 364.734375 21.1201171875 363.181640625 22.609375 362.908203125 28.1044921875 c 0
 362.6328125 33.6005859375 363.638671875 43.103515625 361.904296875 83.755859375 c 0
EndSplineSet
Fore
SplineSet
416.623046875 -199.670898438 m 4
 242.16796875 -199.670898438 30.82421875 -192.36328125 30.82421875 -185.013671875 c 4
 30.82421875 -184.944335938 30.8427734375 -182.94921875 30.8623046875 -180.98046875 c 4
 30.919921875 -174.891601562 30.92578125 -174.052734375 30.92578125 -173.061523438 c 4
 30.92578125 -153.640625 28.693359375 -96.2998046875 23.583984375 14.8505859375 c 4
 23.1201171875 24.9443359375 23 27.611328125 23 27.9267578125 c 5
 23.2666015625 25.34375 23.640625 23.5166015625 23.9033203125 23.5166015625 c 4
 24.25 23.5166015625 24.494140625 26.671875 24.6591796875 31.44140625 c 4
 25.9560546875 68.8759765625 34.47265625 74.4169921875 475.107421875 327.779296875 c 5
 505.508789062 327.779296875 512.192382812 316.233398438 514.92578125 247.01953125 c 4
 516.928710938 196.306640625 517.77734375 90.140625 517.77734375 15.2333984375 c 4
 517.77734375 -160.043945312 513.12890625 -175.29296875 506.5546875 -197.009765625 c 5
 506.08203125 -198.568359375 484.377929688 -199.670898438 416.623046875 -199.670898438 c 4
EndSplineSet
EndChar

StartChar: w
Encoding: 119 119 22
Width: 508
VWidth: 1034
Flags: HW
HStem: 285.451 49.9198<29.972 360.25> 454.952 13.0658G<52.6047 64.3457 208.024 219.766 347.121 358.862>
VStem: 62.2017 21.326<172.332 265.119> 102.994 28.7443<337.058 419.168> 217.62 21.326<171.434 264.227> 258.412 28.7443<336.169 418.276> 356.718 21.327<180.366 273.161> 397.51 28.7443<331.784 427.209>
LayerCount: 2
Back
SplineSet
687.551757812 440.57421875 m 0xa0
 679.465820312 444.635742188 673.633789062 447.524414062 672.372070312 452.564453125 c 0
 671.109375 457.603515625 674.416015625 464.795898438 681.352539062 466.543945312 c 0
 688.2890625 468.291992188 698.85546875 464.594726562 712.237304688 455.154296875 c 0
 725.619140625 445.713867188 741.815429688 430.53125 749.30078125 411.533203125 c 0
 756.786132812 392.53515625 755.559570312 369.724609375 748.046875 347.575195312 c 0
 740.533203125 325.42578125 726.735351562 303.938476562 718.450195312 280.209960938 c 0
 710.165039062 256.48046875 707.39453125 230.510742188 709.180664062 212.921875 c 0
 710.965820312 195.33203125 717.307617188 186.123046875 724.982421875 179.891601562 c 0
 732.658203125 173.661132812 741.666015625 170.408203125 746.202148438 165.813476562 c 0
 750.739257812 161.219726562 750.801757812 155.286132812 747.65625 151.149414062 c 0
 744.51171875 147.01171875 738.159179688 144.670898438 728.15234375 148.8828125 c 0
 718.145507812 153.09375 704.483398438 163.856445312 696.256835938 181.78125 c 0
 688.029296875 199.706054688 685.23828125 224.791992188 693.095703125 256.577148438 c 0
 700.954101562 288.362304688 719.4609375 326.845703125 725.10546875 356.20703125 c 0
 730.750976562 385.568359375 723.533203125 405.805664062 714.75390625 418.541992188 c 0
 705.975585938 431.278320312 695.63671875 436.512695312 687.551757812 440.57421875 c 0xa0
555.745117188 432.110351562 m 0
 547.66015625 436.171875 541.828125 439.060546875 540.565429688 444.100585938 c 0
 539.302734375 449.139648438 542.609375 456.33203125 549.546875 458.080078125 c 0
 556.483398438 459.828125 567.049804688 456.130859375 580.431640625 446.690429688 c 0
 593.813476562 437.25 610.008789062 422.067382812 617.494140625 403.069335938 c 0
 624.979492188 384.071289062 623.75390625 361.260742188 616.240234375 339.111328125 c 0
 608.727539062 316.9609375 594.928710938 295.474609375 586.64453125 271.745117188 c 0
 578.359375 248.016601562 575.588867188 222.046875 577.374023438 204.45703125 c 0
 579.16015625 186.868164062 585.501953125 177.659179688 593.176757812 171.427734375 c 0
 600.8515625 165.197265625 609.860351562 161.944335938 614.396484375 157.349609375 c 0
 618.932617188 152.755859375 618.99609375 146.822265625 615.850585938 142.685546875 c 0
 612.705078125 138.547851562 606.353515625 136.20703125 596.345703125 140.418945312 c 0
 586.338867188 144.629882812 572.677734375 155.392578125 564.450195312 173.317382812 c 0
 556.223632812 191.2421875 553.432617188 216.328125 561.290039062 248.11328125 c 0
 569.147460938 279.8984375 587.654296875 318.381835938 593.299804688 347.743164062 c 0
 598.9453125 377.104492188 591.727539062 397.340820312 582.948242188 410.078125 c 0
 574.168945312 422.814453125 563.831054688 428.048828125 555.745117188 432.110351562 c 0
408.4765625 432.955078125 m 0xc0
 400.390625 437.016601562 394.55859375 439.905273438 393.295898438 444.9453125 c 0
 392.034179688 449.984375 395.340820312 457.176757812 402.27734375 458.924804688 c 0
 409.213867188 460.672851562 419.780273438 456.975585938 433.162109375 447.53515625 c 0
 446.543945312 438.095703125 462.740234375 422.912109375 470.225585938 403.9140625 c 0
 477.709960938 384.916015625 476.484375 362.10546875 468.971679688 339.956054688 c 0
 461.458007812 317.806640625 447.66015625 296.319335938 439.375 272.590820312 c 0
 431.08984375 248.861328125 428.319335938 222.891601562 430.104492188 205.302734375 c 0
 431.890625 187.712890625 438.232421875 178.50390625 445.907226562 172.2734375 c 0
 453.583007812 166.041992188 462.590820312 162.7890625 467.126953125 158.1953125 c 0
 471.6640625 153.600585938 471.7265625 147.666992188 468.581054688 143.530273438 c 0
 465.436523438 139.392578125 459.083984375 137.051757812 449.077148438 141.263671875 c 0
 439.0703125 145.474609375 425.408203125 156.237304688 417.181640625 174.162109375 c 0
 408.954101562 192.086914062 406.163085938 217.172851562 414.020507812 248.958007812 c 0
 421.87890625 280.743164062 440.385742188 319.2265625 446.030273438 348.587890625 c 0
 451.67578125 377.94921875 444.458007812 398.186523438 435.678710938 410.922851562 c 0
 426.900390625 423.659179688 416.561523438 428.893554688 408.4765625 432.955078125 c 0xc0
744.387695312 287.780273438 m 0
 678.942382812 284.548828125 548.034179688 287.579101562 474.686523438 289.475585938 c 0
 401.338867188 291.372070312 385.581054688 292.1328125 377.831054688 299.319335938 c 0
 370.081054688 306.505859375 370.341796875 320.115234375 376.959960938 326.901367188 c 0
 383.577148438 333.686523438 396.549804688 333.64453125 469.70703125 333.651367188 c 0
 542.86328125 333.659179688 676.208007812 333.71484375 742.901367188 329.780273438 c 0
 809.594726562 325.845703125 809.6484375 317.921875 809.708007812 309.211914062 c 0
 809.767578125 300.502929688 809.833007812 291.01171875 744.387695312 287.780273438 c 0
EndSplineSet
Fore
SplineSet
407.384765625 -190.962890625 m 4
 382.176757812 -190.962890625 356.717773438 -153.318359375 356.717773438 -110.5234375 c 4
 356.717773438 -92.2958984375 361.336914062 -70.298828125 380.0703125 -19.0556640625 c 4
 393.03515625 16.4091796875 397.509765625 33.1376953125 397.509765625 53.669921875 c 4
 397.509765625 85.837890625 386.526367188 102.4453125 354.227539062 120.084960938 c 4
 342.551757812 126.461914062 339.37890625 129.581054688 339.37890625 134.568359375 c 4
 339.37890625 141.22265625 345.025390625 147.05859375 355.342773438 147.05859375 c 4
 385.424804688 147.05859375 426.25390625 97.447265625 426.25390625 51.416015625 c 4
 426.25390625 35.828125 421.572265625 20.9716796875 405.438476562 -11.8076171875 c 4
 384.247070312 -54.8662109375 378.045898438 -76.68359375 378.045898438 -104.72265625 c 4
 378.045898438 -135.40625 385.47265625 -152.530273438 411.2109375 -165.8515625 c 4
 418.639648438 -169.696289062 421.426757812 -172.245117188 421.426757812 -178.162109375 c 4
 421.426757812 -185.994140625 416.54296875 -190.962890625 407.384765625 -190.962890625 c 4
268.288085938 -199.895507812 m 4
 243.080078125 -199.895507812 217.62109375 -162.25390625 217.62109375 -117.665039062 c 4
 217.62109375 -98.2470703125 222.44921875 -78.6552734375 238.3515625 -35.15625 c 4
 254.0703125 7.8408203125 258.412109375 25.958984375 258.412109375 44.68359375 c 4
 258.412109375 74.015625 247.758789062 93.330078125 212.45703125 112.61328125 c 4
 203.576171875 117.46484375 200.282226562 120.119140625 200.282226562 125.390625 c 4
 200.282226562 132.291992188 205.926757812 138.126953125 216.243164062 138.126953125 c 4
 246.326171875 138.126953125 287.155273438 88.515625 287.155273438 42.0869140625 c 4
 287.155273438 26.2783203125 282.421875 11.9365234375 267.377929688 -18.6318359375 c 4
 245.064453125 -63.9697265625 238.946289062 -86.7841796875 238.946289062 -114.765625 c 4
 238.946289062 -145.833007812 246.48828125 -161.521484375 271.264648438 -174.346679688 c 4
 279.579101562 -178.650390625 282.329101562 -181.400390625 282.329101562 -187.200195312 c 4
 282.329101562 -194.927734375 277.446289062 -199.895507812 268.288085938 -199.895507812 c 4
112.870117188 -199.00390625 m 4
 87.662109375 -199.00390625 62.2041015625 -161.359375 62.2041015625 -120.431640625 c 4
 62.2041015625 -103.365234375 66.630859375 -78.859375 87.013671875 -23.10546875 c 4
 98.474609375 8.244140625 102.994140625 24.52734375 102.994140625 43.1240234375 c 4
 102.994140625 71.1376953125 92.7392578125 94.00390625 55.4658203125 114.364257812 c 4
 48.203125 118.33203125 44.865234375 120.810546875 44.865234375 126.189453125 c 4
 44.865234375 133.184570312 50.5078125 139.017578125 60.8251953125 139.017578125 c 4
 90.91015625 139.017578125 131.739257812 89.41015625 131.739257812 43.556640625 c 4
 131.739257812 28.0673828125 127.081054688 12.98046875 110.524414062 -20.658203125 c 4
 89.7568359375 -62.853515625 83.5283203125 -84.3515625 83.5283203125 -113.415039062 c 4
 83.5283203125 -145.487304688 91.11328125 -160.650390625 115.434570312 -173.240234375 c 4
 124.180664062 -177.767578125 126.911132812 -180.634765625 126.911132812 -186.368164062 c 4
 126.911132812 -194.036132812 122.02734375 -199.00390625 112.870117188 -199.00390625 c 4
484.69140625 -20.0869140625 m 4
 484.69140625 -38.607421875 454.051757812 -43.5498046875 337.857421875 -43.5498046875 c 4
 284.293945312 -43.5498046875 218.173828125 -42.4990234375 136.932617188 -40.3984375 c 4
 48.5771484375 -38.11328125 36.64453125 -37.0244140625 29.5732421875 -30.466796875 c 4
 25.412109375 -26.607421875 23 -20.9150390625 23 -14.8525390625 c 4
 23 -9.0927734375 25.177734375 -3.6484375 28.990234375 0.26171875 c 4
 34.5556640625 5.9697265625 41.6201171875 6.3701171875 141.982421875 6.3701171875 c 4
 437.493164062 6.3701171875 484.69140625 2.8984375 484.69140625 -20.0869140625 c 4
EndSplineSet
EndChar

StartChar: x
Encoding: 120 120 23
Width: 384
VWidth: 1042
Flags: HW
HStem: 51.3341 28.7431<216.913 312.172> 99.5431 21.327<65.3297 160.782> 317.687 21.1065G<143.204 154.948>
VStem: 152.802 21.327<43.1063 135.895> 193.592 28.7443<194.684 289.944>
LayerCount: 2
Back
SplineSet
572.381835938 303.544921875 m 0
 564.295898438 307.606445312 558.46484375 310.494140625 557.202148438 315.534179688 c 0
 555.939453125 320.57421875 559.24609375 327.765625 566.182617188 329.513671875 c 0
 573.120117188 331.26171875 583.686523438 327.565429688 597.067382812 318.125 c 0
 610.44921875 308.684570312 626.645507812 293.501953125 634.130859375 274.50390625 c 0
 641.616210938 255.505859375 640.389648438 232.694335938 632.876953125 210.544921875 c 0
 625.364257812 188.395507812 611.565429688 166.908203125 603.280273438 143.1796875 c 0
 594.99609375 119.451171875 592.224609375 93.4814453125 594.010742188 75.8916015625 c 0
 595.795898438 58.3017578125 602.137695312 49.0927734375 609.813476562 42.8623046875 c 0
 617.48828125 36.630859375 626.49609375 33.3779296875 631.033203125 28.7841796875 c 0
 635.569335938 24.1904296875 635.631835938 18.2568359375 632.487304688 14.119140625 c 0
 629.341796875 9.982421875 622.989257812 7.6416015625 612.982421875 11.8525390625 c 0
 602.975585938 16.064453125 589.313476562 26.8271484375 581.086914062 44.751953125 c 0
 572.860351562 62.6767578125 570.068359375 87.76171875 577.926757812 119.547851562 c 0
 585.784179688 151.333007812 604.291015625 189.815429688 609.936523438 219.177734375 c 0
 615.581054688 248.5390625 608.36328125 268.775390625 599.584960938 281.51171875 c 0
 590.805664062 294.249023438 580.466796875 299.483398438 572.381835938 303.544921875 c 0
744.190429688 124.328125 m 0
 748.251953125 132.413085938 751.140625 138.245117188 756.1796875 139.5078125 c 0
 761.219726562 140.770507812 768.411132812 137.463867188 770.16015625 130.526367188 c 0
 771.908203125 123.58984375 768.2109375 113.0234375 758.770507812 99.6416015625 c 0
 749.330078125 86.259765625 734.147460938 70.064453125 715.149414062 62.5791015625 c 0
 696.151367188 55.09375 673.340820312 56.3193359375 651.19140625 63.8330078125 c 0
 629.041015625 71.345703125 607.5546875 85.14453125 583.825195312 93.4287109375 c 0
 560.096679688 101.713867188 534.126953125 104.484375 516.537109375 102.69921875 c 0
 498.948242188 100.913085938 489.739257812 94.5712890625 483.5078125 86.896484375 c 0
 477.27734375 79.2216796875 474.024414062 70.212890625 469.4296875 65.6767578125 c 0
 464.8359375 61.140625 458.90234375 61.0771484375 454.765625 64.22265625 c 0
 450.627929688 67.3681640625 448.287109375 73.7197265625 452.499023438 83.7275390625 c 0
 456.709960938 93.734375 467.47265625 107.395507812 485.397460938 115.623046875 c 0
 503.322265625 123.849609375 528.408203125 126.640625 560.193359375 118.783203125 c 0
 591.978515625 110.92578125 630.461914062 92.4189453125 659.823242188 86.7734375 c 0
 689.184570312 81.1279296875 709.420898438 88.345703125 722.158203125 97.125 c 0
 734.89453125 105.904296875 740.12890625 116.2421875 744.190429688 124.328125 c 0
EndSplineSet
Fore
SplineSet
203.467773438 -199.2265625 m 4
 178.259765625 -199.2265625 152.801757812 -161.584960938 152.801757812 -117.479492188 c 4
 152.801757812 -98.3857421875 157.573242188 -78.1416015625 174.455078125 -31.9677734375 c 4
 189.196289062 8.3515625 193.594726562 25.8681640625 193.594726562 45.4814453125 c 4
 193.594726562 76.255859375 182.765625 94.0947265625 148.790039062 112.653320312 c 4
 138.711914062 118.158203125 135.46484375 120.98046875 135.46484375 126.147460938 c 4
 135.46484375 132.958984375 141.108398438 138.79296875 151.424804688 138.79296875 c 4
 181.509765625 138.79296875 222.337890625 89.1845703125 222.337890625 43.4677734375 c 4
 222.337890625 28.0537109375 217.696289062 12.7880859375 200.83984375 -21.4599609375 c 4
 180.375 -63.0400390625 174.12890625 -84.3330078125 174.12890625 -113.86328125 c 4
 174.12890625 -146.541015625 181.778320312 -160.909179688 205.245117188 -173.0546875 c 4
 214.825195312 -178.012695312 217.510742188 -181.138671875 217.510742188 -186.724609375 c 4
 217.510742188 -194.258789062 212.626953125 -199.2265625 203.467773438 -199.2265625 c 4
23 -129.797851562 m 4
 23 -104.58984375 60.64453125 -79.130859375 105.3125 -79.130859375 c 4
 124.788085938 -79.130859375 144.275390625 -83.970703125 187.2421875 -99.6787109375 c 4
 230.776367188 -115.594726562 249.028320312 -119.922851562 268.549804688 -119.922851562 c 4
 299.616210938 -119.922851562 316.396484375 -108.9609375 334.196289062 -76.3759765625 c 4
 340.423828125 -64.974609375 343.482421875 -61.791015625 348.502929688 -61.791015625 c 4
 355.188476562 -61.791015625 361.0234375 -67.4375 361.0234375 -77.7548828125 c 4
 361.0234375 -107.836914062 311.412109375 -148.666992188 265.904296875 -148.666992188 c 4
 250.603515625 -148.666992188 235.072265625 -144.051757812 199.974609375 -126.77734375 c 4
 159.233398438 -106.7265625 138.205078125 -100.45703125 109.282226562 -100.45703125 c 4
 77.6591796875 -100.45703125 61.3984375 -107.951171875 48.35546875 -133.154296875 c 4
 44.2587890625 -141.071289062 41.603515625 -143.838867188 35.7470703125 -143.838867188 c 4
 27.96875 -143.838867188 23 -138.956054688 23 -129.797851562 c 4
EndSplineSet
EndChar

StartChar: y
Encoding: 121 121 24
Width: 605
VWidth: 1034
Flags: HW
HStem: 76.7317 41.6926<231.896 534.238> 253.872 21.326<236.9 329.691> 294.664 28.7443<82.8522 178.111> 538.986 41.6916<231.779 534.137> 541.156 21.1065G<181.397 197.622>
VStem: 168.406 50.9236<379.528 395.545>
LayerCount: 2
Back
SplineSet
494.259765625 160.48046875 m 0
 487.331054688 88.390625 469.913085938 88.5107421875 460.947265625 168.41015625 c 0
 451.98046875 248.310546875 451.463867188 407.98046875 460.259765625 487.7890625 c 0
 469.0546875 567.596679688 487.163085938 567.536132812 552.209960938 567.466796875 c 0
 617.2578125 567.397460938 729.240234375 567.3203125 788.725585938 565.109375 c 0
 848.211914062 562.8984375 855.198242188 558.552734375 855.96484375 553.056640625 c 0
 856.731445312 547.559570312 851.27734375 540.913085938 795.819335938 536.37890625 c 0
 740.362304688 531.845703125 634.904296875 529.424804688 576.27734375 527.241210938 c 0
 517.650390625 525.057617188 505.857421875 523.109375 501.7421875 449.986328125 c 0
 497.626953125 376.86328125 501.188476562 232.569335938 494.259765625 160.48046875 c 0
353.060546875 256.90234375 m 0
 348.999023438 248.81640625 346.111328125 242.985351562 341.071289062 241.72265625 c 0
 336.03125 240.459960938 328.83984375 243.766601562 327.091796875 250.703125 c 0
 325.34375 257.640625 329.040039062 268.20703125 338.48046875 281.587890625 c 0
 347.920898438 294.969726562 363.104492188 311.166015625 382.1015625 318.651367188 c 0
 401.099609375 326.13671875 423.911132812 324.91015625 446.060546875 317.397460938 c 0
 468.209960938 309.884765625 489.697265625 296.0859375 513.42578125 287.80078125 c 0
 537.155273438 279.516601562 563.124023438 276.745117188 580.713867188 278.53125 c 0
 598.303710938 280.31640625 607.512695312 286.658203125 613.743164062 294.333984375 c 0
 619.974609375 302.008789062 623.227539062 311.016601562 627.821289062 315.553710938 c 0
 632.416015625 320.08984375 638.348632812 320.15234375 642.486328125 317.0078125 c 0
 646.623046875 313.862304688 648.963867188 307.509765625 644.752929688 297.502929688 c 0
 640.541015625 287.49609375 629.779296875 273.833984375 611.854492188 265.607421875 c 0
 593.9296875 257.380859375 568.84375 254.588867188 537.057617188 262.447265625 c 0
 505.272460938 270.3046875 466.790039062 288.811523438 437.428710938 294.45703125 c 0
 408.06640625 300.1015625 387.830078125 292.883789062 375.09375 284.10546875 c 0
 362.357421875 275.326171875 357.122070312 264.987304688 353.060546875 256.90234375 c 0
494.354492188 496.928710938 m 0
 501.283203125 424.83984375 497.721679688 280.545898438 501.836914062 207.422851562 c 0
 505.952148438 134.299804688 517.745117188 132.3515625 576.372070312 130.16796875 c 0
 634.999023438 127.984375 740.456054688 125.564453125 795.9140625 121.030273438 c 0
 851.372070312 116.49609375 856.826171875 109.849609375 856.059570312 104.352539062 c 0
 855.29296875 98.8564453125 848.305664062 94.51171875 788.8203125 92.30078125 c 0
 729.333984375 90.08984375 617.352539062 90.01171875 552.3046875 89.9423828125 c 0
 487.256835938 89.873046875 469.149414062 89.8125 460.354492188 169.62109375 c 0
 451.55859375 249.4296875 452.075195312 409.099609375 461.041015625 488.999023438 c 0
 470.0078125 568.899414062 487.42578125 569.018554688 494.354492188 496.928710938 c 0
EndSplineSet
Fore
SplineSet
400.760742188 303.678710938 m 4xf4
 544.48828125 303.678710938 581.6328125 300.899414062 581.6328125 288.438476562 c 4
 581.6328125 279.98828125 564.548828125 274.665039062 517.325195312 270.8046875 c 4
 486.13671875 268.254882812 439.409179688 266.147460938 334.28515625 262.895507812 c 4
 321.78515625 262.508789062 314.674804688 262.279296875 307.959960938 262.029296875 c 4
 220.365234375 258.763671875 211.848632812 252.375976562 208.02734375 184.482421875 c 4
 206.658203125 160.154296875 205.916015625 128.37109375 205.19140625 50.103515625 c 4
 204.23828125 -52.865234375 203.099609375 -92.12890625 200.10546875 -123.284179688 c 4
 196.41015625 -161.728515625 190.462890625 -181.853515625 183.423828125 -181.853515625 c 4
 167.974609375 -181.853515625 157.305664062 -84.9228515625 157.305664062 55.0078125 c 4
 157.305664062 123.493164062 159.861328125 182.211914062 163.92578125 219.09375 c 4
 172.594726562 297.763671875 191.061523438 303.678710938 400.760742188 303.678710938 c 4xf4
361.021484375 27.5400390625 m 4
 361.021484375 2.330078125 323.380859375 -23.126953125 278.99609375 -23.126953125 c 4
 259.71484375 -23.126953125 239.84765625 -18.3232421875 195.142578125 -1.978515625 c 4
 153.36328125 13.2958984375 135.536132812 17.6650390625 115.645507812 17.6650390625 c 4
 84.08984375 17.6650390625 67.6083984375 6.66796875 50.0869140625 -25.4091796875 c 4
 43.5888671875 -37.3056640625 40.4228515625 -40.46484375 35.462890625 -40.46484375 c 4
 28.833984375 -40.46484375 23 -34.8212890625 23 -24.5048828125 c 4
 23 5.5791015625 72.61328125 46.4091796875 115.215820312 46.4091796875 c 4
 129.017578125 46.4091796875 148.28125 42.1240234375 190.98828125 21.1044921875 c 4
 224.51171875 4.6044921875 244.030273438 -1.7998046875 273.8359375 -1.7998046875 c 4
 306.02734375 -1.7998046875 322.615234375 5.669921875 335.76953125 31.087890625 c 4
 339.765625 38.8076171875 342.375 41.58203125 348.25390625 41.58203125 c 4
 356.053710938 41.58203125 361.021484375 36.6982421875 361.021484375 27.5400390625 c 4
157.404296875 49.9345703125 m 4
 157.404296875 187.895507812 167.46875 285.262695312 183.344726562 285.262695312 c 4xec
 190.486328125 285.262695312 196.471679688 265.563476562 200.188476562 226.875976562 c 4
 203.165039062 195.896484375 204.336914062 156.384765625 205.310546875 51.2255859375 c 4
 206.014648438 -24.8232421875 206.725585938 -56.17578125 208.106445312 -80.7099609375 c 4
 211.947265625 -148.966796875 220.46484375 -155.354492188 307.940429688 -158.615234375 c 4
 314.823242188 -158.87109375 322.228515625 -159.109375 334.469726562 -159.48828125 c 4
 439.55859375 -162.740234375 486.274414062 -164.848632812 517.525390625 -167.403320312 c 4
 564.27734375 -171.225585938 581.732421875 -176.48046875 581.732421875 -185.016601562 c 4
 581.732421875 -197.388671875 545.061523438 -200.26953125 399.587890625 -200.26953125 c 4
 191.162109375 -200.26953125 172.6953125 -194.356445312 164.0703125 -116.09375 c 4
 160.123046875 -80.2822265625 157.404296875 -21.771484375 157.404296875 49.9345703125 c 4
EndSplineSet
EndChar

StartChar: z
Encoding: 122 122 25
Width: 587
VWidth: 1461
Flags: HW
HStem: 33.5335 33.8524<325.994 496.315> 98.2824 45.6258<104.504 229.21> 222.474 33.8508<345.064 492.352> 287.223 45.6258<100.542 229.076> 643.028 33.5024G<256.015 285.62>
VStem: 231.467 79.2378<132.338 480.021>
LayerCount: 2
Back
SplineSet
533.411132812 144.110351562 m 0
 529.349609375 136.025390625 526.461914062 130.193359375 521.421875 128.930664062 c 0
 516.381835938 127.66796875 509.190429688 130.974609375 507.442382812 137.912109375 c 0
 505.694335938 144.848632812 509.390625 155.415039062 518.831054688 168.796875 c 0
 528.271484375 182.178710938 543.454101562 198.374023438 562.452148438 205.859375 c 0
 581.450195312 213.344726562 604.26171875 212.119140625 626.411132812 204.60546875 c 0
 648.560546875 197.092773438 670.047851562 183.293945312 693.776367188 175.009765625 c 0
 717.504882812 166.724609375 743.474609375 163.954101562 761.064453125 165.739257812 c 0
 778.654296875 167.525390625 787.862304688 173.8671875 794.09375 181.541992188 c 0
 800.325195312 189.216796875 803.578125 198.225585938 808.171875 202.76171875 c 0
 812.765625 207.297851562 818.69921875 207.361328125 822.836914062 204.215820312 c 0
 826.973632812 201.0703125 829.314453125 194.71875 825.103515625 184.7109375 c 0
 820.891601562 174.704101562 810.12890625 161.041992188 792.204101562 152.815429688 c 0
 774.279296875 144.588867188 749.194335938 141.797851562 717.408203125 149.655273438 c 0
 685.623046875 157.512695312 647.140625 176.01953125 617.778320312 181.665039062 c 0
 588.416992188 187.309570312 568.180664062 180.091796875 555.444335938 171.313476562 c 0
 542.70703125 162.534179688 537.47265625 152.196289062 533.411132812 144.110351562 c 0
531.044921875 256.90234375 m 0
 526.983398438 248.81640625 524.095703125 242.985351562 519.055664062 241.72265625 c 0
 514.015625 240.459960938 506.82421875 243.766601562 505.076171875 250.703125 c 0
 503.328125 257.640625 507.024414062 268.20703125 516.46484375 281.587890625 c 0
 525.905273438 294.969726562 541.088867188 311.166015625 560.0859375 318.651367188 c 0
 579.083984375 326.13671875 601.895507812 324.91015625 624.044921875 317.397460938 c 0
 646.194335938 309.884765625 667.681640625 296.0859375 691.41015625 287.80078125 c 0
 715.139648438 279.516601562 741.108398438 276.745117188 758.698242188 278.53125 c 0
 776.288085938 280.31640625 785.497070312 286.658203125 791.727539062 294.333984375 c 0
 797.958984375 302.008789062 801.211914062 311.016601562 805.805664062 315.553710938 c 0
 810.400390625 320.08984375 816.333007812 320.15234375 820.470703125 317.0078125 c 0
 824.607421875 313.862304688 826.948242188 307.509765625 822.737304688 297.502929688 c 0
 818.525390625 287.49609375 807.763671875 273.833984375 789.838867188 265.607421875 c 0
 771.9140625 257.380859375 746.828125 254.588867188 715.041992188 262.447265625 c 0
 683.256835938 270.3046875 644.774414062 288.811523438 615.413085938 294.45703125 c 0
 586.05078125 300.1015625 565.814453125 292.883789062 553.078125 284.10546875 c 0
 540.341796875 275.326171875 535.106445312 264.987304688 531.044921875 256.90234375 c 0
674.974609375 463.53515625 m 0
 678.206054688 398.08984375 675.17578125 267.181640625 673.279296875 193.833984375 c 0
 671.383789062 120.486328125 670.622070312 104.728515625 663.435546875 96.978515625 c 0
 656.249023438 89.228515625 642.639648438 89.490234375 635.854492188 96.107421875 c 0
 629.068359375 102.724609375 629.110351562 115.697265625 629.103515625 188.854492188 c 0
 629.096679688 262.010742188 629.041015625 395.35546875 632.975585938 462.048828125 c 0
 636.909179688 528.7421875 644.833984375 528.795898438 653.54296875 528.85546875 c 0
 662.252929688 528.915039062 671.743164062 528.98046875 674.974609375 463.53515625 c 0
EndSplineSet
Fore
SplineSet
563.505859375 -29.0400390625 m 4
 563.505859375 -69.0556640625 503.758789062 -109.466796875 433.34765625 -109.466796875 c 4
 402.767578125 -109.466796875 371.169921875 -101.844726562 299.978515625 -75.8154296875 c 4
 233.901367188 -51.65625 205.66015625 -44.716796875 174.7890625 -44.716796875 c 4
 126.197265625 -44.716796875 97.9140625 -61.9111328125 68.47265625 -115.806640625 c 4
 59.7177734375 -131.833984375 55.232421875 -136.986328125 47.03515625 -136.986328125 c 4
 36.224609375 -136.986328125 26.9638671875 -128.026367188 26.9638671875 -111.650390625 c 4
 26.9638671875 -63.8984375 105.708984375 0.9072265625 180.556640625 0.9072265625 c 4
 206.303710938 0.9072265625 227.581054688 -6.76171875 266.6328125 -25.98046875 c 4
 348.92578125 -66.48046875 392.772460938 -75.6123046875 432.880859375 -75.6123046875 c 4
 478.99609375 -75.6123046875 502.65234375 -63.5400390625 522.424804688 -25.3330078125 c 4
 529.807617188 -11.0654296875 534.46875 -6.751953125 543.505859375 -6.751953125 c 4
 555.62109375 -6.751953125 563.505859375 -14.501953125 563.505859375 -29.0400390625 c 4
559.54296875 159.8984375 m 4
 559.54296875 119.884765625 499.791015625 79.47265625 430.143554688 79.47265625 c 4
 400.079101562 79.47265625 367.463867188 87.0029296875 292.475585938 114.418945312 c 4
 230.133789062 137.211914062 202.6484375 144.223632812 171 144.223632812 c 4
 121.28515625 144.223632812 93.89453125 126.921875 65.037109375 74.09375 c 4
 55.7333984375 57.0615234375 51.0771484375 51.953125 42.9814453125 51.953125 c 4
 32.2607421875 51.953125 23 60.912109375 23 77.2880859375 c 4
 23 125.041015625 101.748046875 189.850585938 175.7421875 189.850585938 c 4
 201.004882812 189.850585938 223.389648438 182.295898438 269.958984375 159.374023438 c 4
 343.962890625 122.948242188 381.278320312 113.32421875 424.87109375 113.32421875 c 4
 473.443359375 113.32421875 498.622070312 125.2734375 519.087890625 164.81640625 c 4
 525.814453125 177.8125 530.129882812 182.186523438 539.364257812 182.186523438 c 4
 551.657226562 182.186523438 559.54296875 174.434570312 559.54296875 159.8984375 c 4
273.412109375 533.530273438 m 4
 302.859375 533.530273438 310.703125 484.8828125 310.703125 300.431640625 c 4
 310.703125 215.4453125 309.038085938 110.495117188 305.70703125 -18.3720703125 c 4
 302.08203125 -158.658203125 300.349609375 -177.647460938 289.935546875 -188.87890625 c 4
 283.817382812 -195.4765625 274.791992188 -199.301757812 265.176757812 -199.301757812 c 4
 256.012695312 -199.301757812 247.341796875 -195.828125 241.208007812 -189.845703125 c 4
 232.104492188 -180.969726562 231.46484375 -169.376953125 231.46484375 -9.6630859375 c 4
 231.46484375 459.059570312 236.977539062 533.530273438 273.412109375 533.530273438 c 4
EndSplineSet
EndChar

StartChar: A
Encoding: 65 65 26
Width: 757
VWidth: 1320
Flags: HW
HStem: -87.0235 726.424<24.9997 732.196> 737.309 38.1484<179.594 489.96>
VStem: 24.9997 707.195<-87.0235 639.401>
LayerCount: 2
Back
SplineSet
637.16796875 687.509765625 m 4
 640.485351562 688.673828125 645.745117188 688.606445312 662.624023438 679.508789062 c 4
 679.502929688 670.411132812 707.982421875 652.29296875 722.806640625 641.984375 c 4
 737.629882812 631.674804688 738.7890625 629.1796875 739.624023438 626.540039062 c 4
 740.458984375 623.900390625 740.96875 621.1171875 729.150390625 614.409179688 c 4
 717.331054688 607.702148438 693.184570312 597.073242188 675.362304688 589.1015625 c 4
 657.5390625 581.129882812 646.049804688 575.8203125 640.119140625 574.037109375 c 4
 634.188476562 572.25390625 633.833984375 574.002929688 634.46875 578.24609375 c 4
 635.103515625 582.489257812 636.728515625 589.225585938 648.541015625 595.953125 c 4
 660.354492188 602.6796875 682.34765625 609.396484375 692.876953125 613.001953125 c 4
 703.40625 616.607421875 702.458007812 617.099609375 665.071289062 616.181640625 c 4
 627.685546875 615.262695312 553.849609375 612.932617188 517.166015625 617.715820312 c 4
 480.482421875 622.5 480.94921875 634.397460938 518.266601562 638.20703125 c 4
 555.583007812 642.016601562 629.745117188 637.736328125 665.506835938 636.19140625 c 4
 701.268554688 634.646484375 698.633789062 635.837890625 687.274414062 642.497070312 c 4
 675.915039062 649.15625 655.822265625 661.290039062 645.002929688 668.713867188 c 4
 634.18359375 676.137695312 632.64453125 678.84765625 632.561523438 681.399414062 c 4
 632.478515625 683.952148438 633.850585938 686.346679688 637.16796875 687.509765625 c 4
388.384765625 72.2685546875 m 1
 388.384765625 550.373046875 l 1
 853.833984375 550.373046875 l 1
 853.833984375 72.2685546875 l 1
 388.384765625 72.2685546875 l 1
EndSplineSet
Fore
SplineSet
399.361328125 570.541992188 m 4
 399.361328125 585.354492188 421.129882812 600.28125 484.62109375 620.51953125 c 4
 492.801757812 623.126953125 496.256835938 624.361328125 496.256835938 625.41015625 c 4
 496.256835938 626.57421875 491.98828125 627.015625 481.33984375 627.015625 c 4
 474.330078125 627.015625 464.302734375 626.82421875 436.3046875 626.165039062 c 4
 376.254882812 624.750976562 348.57421875 624.309570312 324.436523438 624.309570312 c 4
 228.827148438 624.309570312 179.3359375 631.236328125 179.3359375 644.0703125 c 4
 179.3359375 655.498046875 218.5703125 662.45703125 280.171875 662.45703125 c 4
 303.967773438 662.45703125 338.049804688 661.418945312 424.473632812 657.719726562 c 4
 457.810546875 656.291992188 470.92578125 655.793945312 478.220703125 655.793945312 c 4
 486.563476562 655.793945312 490.2265625 656.4453125 490.2265625 657.895507812 c 4
 490.2265625 659.938476562 482.94921875 664.646484375 455.663085938 679.881835938 c 4
 404.87890625 708.239257812 388.427734375 719.65625 388.427734375 726.57421875 c 4
 388.427734375 730.018554688 392.506835938 731.951171875 398.077148438 731.951171875 c 4
 432.848632812 731.951171875 559.89453125 656.65234375 559.89453125 636.748046875 c 4
 559.89453125 630.140625 545.89453125 623.201171875 412.536132812 563.553710938 c 4
 410.96875 562.852539062 410.96875 562.852539062 410.96875 562.852539062 c 4
 402.516601562 562.852539062 399.361328125 564.90234375 399.361328125 570.541992188 c 4
25 -200.0234375 m 5
 25 526.400390625 l 5
 732.1953125 526.400390625 l 5
 732.1953125 -200.0234375 l 5
 25 -200.0234375 l 5
EndSplineSet
EndChar

StartChar: B
Encoding: 66 66 27
Width: 657
VWidth: 1312
Flags: HW
HStem: -67.3584 60.026<107.212 542.538> 601.287 30.3877G<591.515 607.593> 745.315 38.1493<116.191 426.558>
LayerCount: 2
Back
SplineSet
644.001953125 697.509765625 m 4
 647.319335938 698.673828125 652.579101562 698.606445312 669.458007812 689.508789062 c 4
 686.336914062 680.411132812 714.81640625 662.29296875 729.640625 651.984375 c 4
 744.463867188 641.674804688 745.623046875 639.1796875 746.458007812 636.540039062 c 4
 747.29296875 633.900390625 747.802734375 631.1171875 735.984375 624.409179688 c 4
 724.165039062 617.702148438 700.018554688 607.073242188 682.196289062 599.1015625 c 4
 664.373046875 591.129882812 652.883789062 585.8203125 646.953125 584.037109375 c 4
 641.022460938 582.25390625 640.66796875 584.002929688 641.302734375 588.24609375 c 4
 641.9375 592.489257812 643.5625 599.225585938 655.375 605.953125 c 4
 667.188476562 612.6796875 689.181640625 619.396484375 699.7109375 623.001953125 c 4
 710.240234375 626.607421875 709.291992188 627.099609375 671.905273438 626.181640625 c 4
 634.51953125 625.262695312 560.68359375 622.932617188 524 627.715820312 c 4
 487.31640625 632.5 487.783203125 644.397460938 525.100585938 648.20703125 c 4
 562.416992188 652.016601562 636.579101562 647.736328125 672.340820312 646.19140625 c 4
 708.102539062 644.646484375 705.467773438 645.837890625 694.108398438 652.497070312 c 4
 682.749023438 659.15625 662.65625 671.290039062 651.836914062 678.713867188 c 4
 641.017578125 686.137695312 639.478515625 688.84765625 639.395507812 691.399414062 c 4
 639.3125 693.952148438 640.684570312 696.346679688 644.001953125 697.509765625 c 4
797.387695312 496.928710938 m 0
 804.31640625 569.018554688 821.734375 568.899414062 830.700195312 488.999023438 c 0
 839.666992188 409.099609375 840.18359375 249.4296875 831.387695312 169.62109375 c 0
 822.591796875 89.8125 804.484375 89.873046875 739.4375 89.9423828125 c 0
 674.389648438 90.01171875 562.407226562 90.08984375 502.921875 92.30078125 c 0
 443.435546875 94.51171875 436.44921875 98.8564453125 435.682617188 104.352539062 c 0
 434.915039062 109.849609375 440.370117188 116.49609375 495.827148438 121.030273438 c 0
 551.28515625 125.564453125 656.7421875 127.984375 715.370117188 130.16796875 c 0
 773.997070312 132.3515625 785.7890625 134.299804688 789.904296875 207.422851562 c 0
 794.020507812 280.545898438 790.458984375 424.83984375 797.387695312 496.928710938 c 0
EndSplineSet
Fore
SplineSet
335.958984375 559.83203125 m 4
 335.958984375 575.559570312 358.22265625 589.447265625 418.916015625 608.793945312 c 4
 429.479492188 612.161132812 432.853515625 613.443359375 432.853515625 614.44921875 c 4
 432.853515625 615.58203125 428.584960938 616.022460938 417.924804688 616.022460938 c 4
 410.856445312 616.022460938 400.767578125 615.829101562 373.565429688 615.188476562 c 4
 312.61328125 613.752929688 284.982421875 613.315429688 260.970703125 613.315429688 c 4
 165.431640625 613.315429688 115.932617188 620.244140625 115.932617188 633.078125 c 4
 115.932617188 644.505859375 155.17578125 651.465820312 217.411132812 651.465820312 c 4
 241.63671875 651.465820312 275.03125 650.411132812 358.181640625 646.8515625 c 4
 394.662109375 645.290039062 407.758789062 644.801757812 414.90625 644.801757812 c 4
 423.16015625 644.801757812 426.82421875 645.453125 426.82421875 646.9375 c 4
 426.82421875 649.046875 419.43359375 653.715820312 394.375 667.708984375 c 4
 341.313476562 697.338867188 325.0234375 708.868164062 325.0234375 715.638671875 c 4
 325.0234375 719.026367188 329.102539062 720.958984375 334.672851562 720.958984375 c 4
 369.444335938 720.958984375 496.493164062 645.659179688 496.493164062 625.739257812 c 4
 496.493164062 619.1640625 482.646484375 612.280273438 351.26953125 553.516601562 c 4
 347.565429688 551.859375 347.565429688 551.859375 347.565429688 551.859375 c 4
 339.115234375 551.859375 335.958984375 553.91015625 335.958984375 559.83203125 c 4
283.383789062 -199.357421875 m 4
 76.568359375 -199.357421875 23 -195.36328125 23 -177.4140625 c 4
 23 -165.260742188 47.5615234375 -157.591796875 114.681640625 -152.103515625 c 4
 158.724609375 -148.502929688 227.166015625 -145.34375 380.498046875 -140.598632812 c 4
 396.221679688 -140.112304688 406.759765625 -139.775390625 416.876953125 -139.3984375 c 4
 543.12109375 -134.696289062 555.387695312 -125.502929688 560.981445312 -26.119140625 c 4
 563.006835938 9.8603515625 563.935546875 53.7138671875 564.873046875 154.986328125 c 4
 566.350585938 314.631835938 568.188476562 372.629882812 572.389648438 416.337890625 c 4
 577.61328125 470.693359375 586.176757812 499.674804688 596.3125 499.674804688 c 4
 618.553710938 499.674804688 633.9140625 360.115234375 633.9140625 158.6484375 c 4
 633.9140625 60.0478515625 630.234375 -24.48828125 624.3828125 -77.5927734375 c 4
 611.901367188 -190.842773438 585.327148438 -199.357421875 283.383789062 -199.357421875 c 4
EndSplineSet
EndChar

StartChar: C
Encoding: 67 67 28
Width: 457
VWidth: 1375
Flags: HW
HStem: -65.2116 47.3098<243.291 336.319> 665.101 39.5667<133.601 249.951> 843.826 41.2013<23.2819 358.478>
VStem: 152.805 45.8901<38.8409 280.007> 270.902 40.6131<494.995 643.536>
LayerCount: 2
Back
SplineSet
673.962890625 747.509765625 m 4
 677.279296875 748.673828125 682.5390625 748.606445312 699.41796875 739.508789062 c 4
 716.296875 730.411132812 744.77734375 712.29296875 759.6015625 701.984375 c 4
 774.423828125 691.674804688 775.583984375 689.1796875 776.41796875 686.540039062 c 4
 777.25390625 683.900390625 777.763671875 681.1171875 765.9453125 674.409179688 c 4
 754.125 667.702148438 729.978515625 657.073242188 712.15625 649.1015625 c 4
 694.333984375 641.129882812 682.84375 635.8203125 676.9140625 634.037109375 c 4
 670.982421875 632.25390625 670.62890625 634.002929688 671.263671875 638.24609375 c 4
 671.8984375 642.489257812 673.5234375 649.225585938 685.3359375 655.953125 c 4
 697.1484375 662.6796875 719.142578125 669.396484375 729.671875 673.001953125 c 4
 740.201171875 676.607421875 739.251953125 677.099609375 701.865234375 676.181640625 c 4
 664.48046875 675.262695312 590.64453125 672.932617188 553.9609375 677.715820312 c 4
 517.27734375 682.5 517.744140625 694.397460938 555.060546875 698.20703125 c 4
 592.376953125 702.016601562 666.5390625 697.736328125 702.30078125 696.19140625 c 4
 738.0625 694.646484375 735.427734375 695.837890625 724.068359375 702.497070312 c 4
 712.708984375 709.15625 692.6171875 721.290039062 681.796875 728.713867188 c 4
 670.978515625 736.137695312 669.439453125 738.84765625 669.35546875 741.399414062 c 4
 669.2734375 743.952148438 670.64453125 746.346679688 673.962890625 747.509765625 c 4
577.158203125 538.9296875 m 0
 577.447265625 538.174804688 578.0234375 536.666015625 574.431640625 537.954101562 c 0
 570.837890625 539.2421875 563.07421875 543.327148438 566.380859375 552.302734375 c 0
 569.689453125 561.278320312 584.0703125 575.143554688 605.44921875 583.330078125 c 0
 626.826171875 591.516601562 655.19921875 594.022460938 675.765625 580.032226562 c 0
 696.33203125 566.041015625 709.09375 535.5546875 699.17578125 485.533203125 c 0
 689.259765625 435.510742188 656.66796875 365.954101562 642.74609375 314.123046875 c 0
 628.82421875 262.291015625 633.576171875 228.190429688 640.9765625 202.729492188 c 0
 648.37890625 177.267578125 658.431640625 160.447265625 670.056640625 153.549804688 c 0
 681.68359375 146.65234375 694.8828125 149.676757812 707.37109375 156.903320312 c 0
 719.857421875 164.129882812 731.634765625 175.559570312 739.232421875 173.393554688 c 0
 746.83203125 171.2265625 750.251953125 155.465820312 740.591796875 143.151367188 c 0
 730.931640625 130.8359375 708.193359375 121.96875 686.67578125 120.936523438 c 0
 665.15625 119.903320312 644.861328125 126.706054688 630.712890625 149.626953125 c 0
 616.564453125 172.546875 608.564453125 211.58203125 606.41015625 246.250976562 c 0
 604.255859375 280.919921875 607.9453125 311.21875 623.681640625 355.168945312 c 0
 639.416015625 399.119140625 667.193359375 456.715820312 675.23828125 495.163085938 c 0
 683.28125 533.610351562 671.58984375 552.904296875 655.568359375 560.987304688 c 0
 639.546875 569.0703125 619.197265625 565.938476562 605.359375 560.51953125 c 0
 591.521484375 555.099609375 584.1953125 547.392578125 580.533203125 543.538085938 c 0
 576.869140625 539.684570312 576.869140625 539.684570312 577.158203125 538.9296875 c 0
EndSplineSet
Fore
SplineSet
260.626953125 601.958007812 m 4
 260.626953125 619.217773438 284.828125 633.911132812 348.982421875 654.361328125 c 4
 361.706054688 658.416992188 365.275390625 659.828125 365.275390625 660.884765625 c 4
 365.275390625 662.0859375 360.658203125 662.5625 349.578125 662.5625 c 4
 342.447265625 662.5625 331.182617188 662.365234375 295.65625 661.528320312 c 4
 235.935546875 660.122070312 207.099609375 659.638671875 180.6171875 659.638671875 c 4
 76.458984375 659.638671875 23 667.12109375 23 680.982421875 c 4
 23 693.32421875 65.3828125 700.840820312 133.125 700.840820312 c 4
 159.654296875 700.840820312 195.157226562 699.688476562 281.006835938 696.012695312 c 4
 324.163085938 694.166015625 338.49609375 693.64453125 346.044921875 693.64453125 c 4
 354.809570312 693.64453125 358.76171875 694.34765625 358.76171875 695.942382812 c 4
 358.76171875 698.203125 350.81640625 703.250976562 323.137695312 718.706054688 c 4
 266.463867188 750.352539062 248.818359375 762.772460938 248.818359375 770.12890625 c 4
 248.818359375 773.805664062 253.224609375 775.892578125 259.241210938 775.892578125 c 4
 296.794921875 775.892578125 434.00390625 694.5703125 434.00390625 673.073242188 c 4
 434.00390625 665.9375 418.887695312 658.448242188 277.018554688 594.991210938 c 4
 273.16015625 593.265625 273.16015625 593.265625 273.16015625 593.265625 c 4
 264.03515625 593.265625 260.626953125 595.481445312 260.626953125 601.958007812 c 4
87.091796875 504.091796875 m 4
 87.091796875 532.166992188 154.0625 570.481445312 211.986328125 570.481445312 c 4
 272.991210938 570.481445312 311.51171875 527.984375 311.51171875 450.499023438 c 4
 311.51171875 407.16796875 299.465820312 359.772460938 255.364257812 242.926757812 c 4
 211.998046875 128.026367188 198.693359375 77.8134765625 198.693359375 21.8681640625 c 4
 198.693359375 -73.3232421875 237.213867188 -152.087890625 285.185546875 -152.087890625 c 4
 298.127929688 -152.087890625 311.999023438 -146.354492188 340.946289062 -126.049804688 c 4
 355.310546875 -115.97265625 361.357421875 -112.715820312 367.357421875 -112.715820312 c 4
 377.357421875 -112.715820312 383.5234375 -121.764648438 383.5234375 -134.615234375 c 4
 383.5234375 -170.271484375 336.05078125 -199.397460938 286.627929688 -199.397460938 c 4
 201.53125 -199.397460938 152.802734375 -113.051757812 152.802734375 19.333984375 c 4
 152.802734375 96.25 169.251953125 158.926757812 224.815429688 292.395507812 c 4
 260.487304688 378.081054688 270.8984375 412.634765625 270.8984375 446.954101562 c 4
 270.8984375 501.838867188 244.271484375 530.915039062 201.103515625 530.915039062 c 4
 158.861328125 530.915039062 106.740234375 503.072265625 101.856445312 492.506835938 c 4
 97.4580078125 482.993164062 87.091796875 493.045898438 87.091796875 504.091796875 c 4
EndSplineSet
EndChar

StartChar: D
Encoding: 68 68 29
Width: 658
VWidth: 1305
Flags: HW
HStem: -27.9009 60.026<115.409 550.702> 640.744 30.3877G<42.704 66.064> 784.773 38.1493<147.596 457.964>
LayerCount: 2
Back
SplineSet
637.513671875 727.509765625 m 4
 640.831054688 728.673828125 646.090820312 728.606445312 662.969726562 719.508789062 c 4
 679.848632812 710.411132812 708.328125 692.29296875 723.15234375 681.984375 c 4
 737.975585938 671.674804688 739.134765625 669.1796875 739.969726562 666.540039062 c 4
 740.8046875 663.900390625 741.314453125 661.1171875 729.49609375 654.409179688 c 4
 717.676757812 647.702148438 693.530273438 637.073242188 675.708007812 629.1015625 c 4
 657.884765625 621.129882812 646.395507812 615.8203125 640.46484375 614.037109375 c 4
 634.534179688 612.25390625 634.1796875 614.002929688 634.814453125 618.24609375 c 4
 635.44921875 622.489257812 637.07421875 629.225585938 648.88671875 635.953125 c 4
 660.700195312 642.6796875 682.693359375 649.396484375 693.22265625 653.001953125 c 4
 703.751953125 656.607421875 702.803710938 657.099609375 665.416992188 656.181640625 c 4
 628.03125 655.262695312 554.1953125 652.932617188 517.51171875 657.715820312 c 4
 480.828125 662.5 481.294921875 674.397460938 518.612304688 678.20703125 c 4
 555.928710938 682.016601562 630.090820312 677.736328125 665.852539062 676.19140625 c 4
 701.614257812 674.646484375 698.979492188 675.837890625 687.620117188 682.497070312 c 4
 676.260742188 689.15625 656.16796875 701.290039062 645.348632812 708.713867188 c 4
 634.529296875 716.137695312 632.990234375 718.84765625 632.907226562 721.399414062 c 4
 632.82421875 723.952148438 634.196289062 726.346679688 637.513671875 727.509765625 c 4
449.456054688 526.928710938 m 0
 456.384765625 454.83984375 452.823242188 310.545898438 456.938476562 237.422851562 c 0
 461.053710938 164.299804688 472.846679688 162.3515625 531.473632812 160.16796875 c 0
 590.100585938 157.984375 695.557617188 155.564453125 751.015625 151.030273438 c 0
 806.473632812 146.49609375 811.927734375 139.849609375 811.161132812 134.352539062 c 0
 810.39453125 128.856445312 803.407226562 124.51171875 743.921875 122.30078125 c 0
 684.435546875 120.08984375 572.454101562 120.01171875 507.40625 119.942382812 c 0
 442.358398438 119.873046875 424.250976562 119.8125 415.456054688 199.62109375 c 0
 406.66015625 279.4296875 407.176757812 439.099609375 416.142578125 518.999023438 c 0
 425.109375 598.899414062 442.52734375 599.018554688 449.456054688 526.928710938 c 0
EndSplineSet
Fore
SplineSet
367.364257812 559.813476562 m 4
 367.364257812 575.484375 389.598632812 589.439453125 450.54296875 608.865234375 c 4
 460.883789062 612.161132812 464.258789062 613.435546875 464.258789062 614.4453125 c 4
 464.258789062 615.581054688 459.989257812 616.022460938 449.38671875 616.022460938 c 4
 442.37890625 616.022460938 432.228515625 615.830078125 404.06640625 615.166992188 c 4
 344.111328125 613.754882812 316.694335938 613.315429688 292.576171875 613.315429688 c 4
 196.837890625 613.315429688 147.338867188 620.244140625 147.338867188 633.078125 c 4
 147.338867188 644.505859375 186.58203125 651.465820312 249.245117188 651.465820312 c 4
 273.776367188 651.465820312 306.72265625 650.399414062 386.6640625 646.977539062 c 4
 426.240234375 645.283203125 439.424804688 644.801757812 446.422851562 644.801757812 c 4
 454.565429688 644.801757812 458.228515625 645.453125 458.228515625 646.913085938 c 4
 458.228515625 648.9765625 450.916992188 653.672851562 424.249023438 668.564453125 c 4
 372.8359375 697.2734375 356.430664062 708.713867188 356.430664062 715.595703125 c 4
 356.430664062 719.026367188 360.509765625 720.958984375 366.080078125 720.958984375 c 4
 400.852539062 720.958984375 527.897460938 645.659179688 527.897460938 625.740234375 c 4
 527.897460938 619.1640625 514.049804688 612.278320312 380.831054688 552.69140625 c 4
 378.971679688 551.859375 378.971679688 551.859375 378.971679688 551.859375 c 4
 370.51953125 551.859375 367.364257812 553.909179688 367.364257812 559.813476562 c 4
24 160.862304688 m 4
 24 359.50390625 38.48828125 499.674804688 61.3427734375 499.674804688 c 4
 71.623046875 499.674804688 80.2412109375 471.315429688 85.6220703125 415.328125 c 4
 89.9423828125 370.384765625 91.5703125 313.935546875 92.935546875 166.4140625 c 4
 93.9833984375 53.083984375 95.0634765625 7.0888671875 97.03125 -27.8818359375 c 4
 102.524414062 -125.500976562 114.79296875 -134.696289062 240.588867188 -139.381835938 c 4
 250.58203125 -139.754882812 261.556640625 -140.108398438 280.1015625 -140.682617188 c 4
 430.126953125 -145.32421875 497.189453125 -148.338867188 542.338867188 -152.03125 c 4
 609.788085938 -157.545898438 634.9140625 -165.110351562 634.9140625 -177.3984375 c 4
 634.9140625 -195.2109375 582.124023438 -199.357421875 372.686523438 -199.357421875 c 4
 72.5947265625 -199.357421875 46.0107421875 -190.84375 33.5947265625 -78.1689453125 c 4
 27.9130859375 -26.607421875 24 57.6328125 24 160.862304688 c 4
EndSplineSet
EndChar

StartChar: E
Encoding: 69 69 30
Width: 616
VWidth: 1238
Flags: HW
HStem: 772.344 35.0973<118.283 403.821>
LayerCount: 2
Back
SplineSet
608.89453125 737.509765625 m 4
 612.211914062 738.673828125 617.471679688 738.606445312 634.350585938 729.508789062 c 4
 651.229492188 720.411132812 679.708984375 702.29296875 694.533203125 691.984375 c 4
 709.356445312 681.674804688 710.515625 679.1796875 711.350585938 676.540039062 c 4
 712.185546875 673.900390625 712.6953125 671.1171875 700.876953125 664.409179688 c 4
 689.057617188 657.702148438 664.911132812 647.073242188 647.088867188 639.1015625 c 4
 629.265625 631.129882812 617.776367188 625.8203125 611.845703125 624.037109375 c 4
 605.915039062 622.25390625 605.560546875 624.002929688 606.1953125 628.24609375 c 4
 606.830078125 632.489257812 608.455078125 639.225585938 620.267578125 645.953125 c 4
 632.081054688 652.6796875 654.07421875 659.396484375 664.603515625 663.001953125 c 4
 675.1328125 666.607421875 674.184570312 667.099609375 636.797851562 666.181640625 c 4
 599.412109375 665.262695312 525.576171875 662.932617188 488.892578125 667.715820312 c 4
 452.208984375 672.5 452.67578125 684.397460938 489.993164062 688.20703125 c 4
 527.309570312 692.016601562 601.471679688 687.736328125 637.233398438 686.19140625 c 4
 672.995117188 684.646484375 670.360351562 685.837890625 659.000976562 692.497070312 c 4
 647.641601562 699.15625 627.548828125 711.290039062 616.729492188 718.713867188 c 4
 605.91015625 726.137695312 604.37109375 728.84765625 604.288085938 731.399414062 c 4
 604.205078125 733.952148438 605.577148438 736.346679688 608.89453125 737.509765625 c 4
605.237304688 562.010742188 m 2
 699.178710938 347.349609375 l 1
 804.702148438 106.227539062 l 2
 805.857421875 103.5859375 805.930664062 100.225585938 804.668945312 97.3984375 c 0
 803.408203125 94.5703125 801.135742188 92.9990234375 798.801757812 93 c 0
 798.797851562 92.990234375 609.143554688 93.0625 609.143554688 93.0625 c 1
 396.104492188 93.1328125 l 2
 393.771484375 93.1337890625 391.506835938 94.716796875 390.26953125 97.544921875 c 0
 389.03125 100.373046875 389.13671875 103.723632812 390.314453125 106.364257812 c 0
 390.309570312 106.374023438 486.03125 320.961914062 486.03125 320.961914062 c 1
 593.546875 562.014648438 l 2
 594.724609375 564.655273438 596.915039062 566.432617188 599.4140625 566.431640625 c 0
 601.913085938 566.430664062 604.081054688 564.651367188 605.237304688 562.010742188 c 2
EndSplineSet
Fore
SplineSet
320.470703125 550.122070312 m 4
 320.470703125 564.154296875 340.71875 577.4296875 398.092773438 595.717773438 c 4
 406.46484375 598.38671875 409.614257812 599.536132812 409.614257812 600.486328125 c 4
 409.614257812 601.547851562 405.680664062 601.954101562 395.891601562 601.954101562 c 4
 389.46484375 601.954101562 380.268554688 601.779296875 354.416992188 601.169921875 c 4
 299.095703125 599.868164062 273.783203125 599.462890625 251.6015625 599.462890625 c 4
 163.584960938 599.462890625 118.047851562 605.836914062 118.047851562 617.64453125 c 4
 118.047851562 628.157226562 154.146484375 634.559570312 211.262695312 634.559570312 c 4
 233.493164062 634.559570312 264.438476562 633.58984375 341.372070312 630.295898438 c 4
 374.423828125 628.880859375 386.47265625 628.4296875 393.079101562 628.4296875 c 4
 400.694335938 628.4296875 404.065429688 629.029296875 404.065429688 630.391601562 c 4
 404.065429688 632.32421875 397.284179688 636.622070312 373.916992188 649.669921875 c 4
 325.430664062 676.744140625 310.412109375 687.33984375 310.412109375 693.590820312 c 4
 310.412109375 696.715820312 314.166015625 698.494140625 319.291015625 698.494140625 c 4
 351.28125 698.494140625 468.162109375 629.21875 468.162109375 610.885742188 c 4
 468.162109375 604.8515625 455.497070312 598.543945312 334.303710938 544.334960938 c 4
 331.147460938 542.922851562 331.147460938 542.922851562 331.147460938 542.922851562 c 4
 323.373046875 542.922851562 320.470703125 544.809570312 320.470703125 550.122070312 c 4
475.817382812 96.5888671875 m 4
 581.90625 -145.98046875 592.75390625 -176.028320312 592.75390625 -193.088867188 c 4
 592.75390625 -198.073242188 591.828125 -199.8359375 589.357421875 -199.8359375 c 6
 586.502929688 -199.8359375 l 6
 569.282226562 -199.8359375 471.420898438 -199.802734375 324.163085938 -199.748046875 c 6
 26.3701171875 -199.650390625 l 6
 23.951171875 -199.649414062 23 -198.135742188 23 -194.173828125 c 4
 23 -176.907226562 41.0595703125 -129.75390625 152.09765625 119.028320312 c 4
 261.959960938 365.1796875 284.659179688 409.487304688 310.182617188 409.487304688 c 4
 336.190429688 409.487304688 359.088867188 363.482421875 475.817382812 96.5888671875 c 4
EndSplineSet
EndChar

StartChar: F
Encoding: 70 70 31
Width: 786
VWidth: 1227
Flags: HW
HStem: 0.542337 55.2239<285.123 685.591> 235.175 28.2474<291.751 414.658> 289.206 38.0731<87.7062 199.65> 615.697 27.9566G<218.235 239.725> 818.095 35.0973<286.778 572.315>
LayerCount: 2
Back
SplineSet
666.884765625 777.509765625 m 4
 670.202148438 778.673828125 675.461914062 778.606445312 692.340820312 769.508789062 c 4
 709.219726562 760.411132812 737.69921875 742.29296875 752.5234375 731.984375 c 4
 767.346679688 721.674804688 768.505859375 719.1796875 769.340820312 716.540039062 c 4
 770.17578125 713.900390625 770.685546875 711.1171875 758.8671875 704.409179688 c 4
 747.047851562 697.702148438 722.901367188 687.073242188 705.079101562 679.1015625 c 4
 687.255859375 671.129882812 675.766601562 665.8203125 669.8359375 664.037109375 c 4
 663.905273438 662.25390625 663.55078125 664.002929688 664.185546875 668.24609375 c 4
 664.8203125 672.489257812 666.4453125 679.225585938 678.2578125 685.953125 c 4
 690.071289062 692.6796875 712.064453125 699.396484375 722.59375 703.001953125 c 4
 733.123046875 706.607421875 732.174804688 707.099609375 694.788085938 706.181640625 c 4
 657.40234375 705.262695312 583.56640625 702.932617188 546.8828125 707.715820312 c 4
 510.19921875 712.5 510.666015625 724.397460938 547.983398438 728.20703125 c 4
 585.299804688 732.016601562 659.461914062 727.736328125 695.223632812 726.19140625 c 4
 730.985351562 724.646484375 728.350585938 725.837890625 716.991210938 732.497070312 c 4
 705.631835938 739.15625 685.5390625 751.290039062 674.719726562 758.713867188 c 4
 663.900390625 766.137695312 662.361328125 768.84765625 662.278320312 771.399414062 c 4
 662.1953125 773.952148438 663.567382812 776.346679688 666.884765625 777.509765625 c 4
357.533203125 286.90234375 m 0
 353.471679688 278.81640625 350.583984375 272.985351562 345.543945312 271.72265625 c 0
 340.50390625 270.459960938 333.3125 273.766601562 331.564453125 280.703125 c 0
 329.81640625 287.640625 333.512695312 298.20703125 342.953125 311.587890625 c 0
 352.393554688 324.969726562 367.577148438 341.166015625 386.57421875 348.651367188 c 0
 405.572265625 356.13671875 428.383789062 354.91015625 450.533203125 347.397460938 c 0
 472.682617188 339.884765625 494.169921875 326.0859375 517.8984375 317.80078125 c 0
 541.627929688 309.516601562 567.596679688 306.745117188 585.186523438 308.53125 c 0
 602.776367188 310.31640625 611.985351562 316.658203125 618.215820312 324.333984375 c 0
 624.447265625 332.008789062 627.700195312 341.016601562 632.293945312 345.553710938 c 0
 636.888671875 350.08984375 642.821289062 350.15234375 646.958984375 347.0078125 c 0
 651.095703125 343.862304688 653.436523438 337.509765625 649.225585938 327.502929688 c 0
 645.013671875 317.49609375 634.251953125 303.833984375 616.327148438 295.607421875 c 0
 598.40234375 287.380859375 573.31640625 284.588867188 541.530273438 292.447265625 c 0
 509.745117188 300.3046875 471.262695312 318.811523438 441.901367188 324.45703125 c 0
 412.5390625 330.1015625 392.302734375 322.883789062 379.56640625 314.10546875 c 0
 366.830078125 305.326171875 361.594726562 294.987304688 357.533203125 286.90234375 c 0
498.827148438 526.928710938 m 0
 505.755859375 454.83984375 502.194335938 310.545898438 506.309570312 237.422851562 c 0
 510.424804688 164.299804688 522.217773438 162.3515625 580.844726562 160.16796875 c 0
 639.471679688 157.984375 744.928710938 155.564453125 800.38671875 151.030273438 c 0
 855.844726562 146.49609375 861.298828125 139.849609375 860.532226562 134.352539062 c 0
 859.765625 128.856445312 852.778320312 124.51171875 793.29296875 122.30078125 c 0
 733.806640625 120.08984375 621.825195312 120.01171875 556.77734375 119.942382812 c 0
 491.729492188 119.873046875 473.622070312 119.8125 464.827148438 199.62109375 c 0
 456.03125 279.4296875 456.547851562 439.099609375 465.513671875 518.999023438 c 0
 474.48046875 598.899414062 491.8984375 599.018554688 498.827148438 526.928710938 c 0
EndSplineSet
Fore
SplineSet
488.96484375 567.6875 m 4
 488.96484375 581.614257812 509.15234375 595.0078125 566.830078125 613.392578125 c 4
 574.951171875 615.981445312 578.110351562 617.125976562 578.110351562 618.080078125 c 4
 578.110351562 619.145507812 574.17578125 619.551757812 564.723632812 619.551757812 c 4
 558.649414062 619.551757812 549.08984375 619.383789062 518.828125 618.671875 c 4
 467.872070312 617.471679688 443.344726562 617.060546875 420.806640625 617.060546875 c 4
 332.079101562 617.060546875 286.540039062 623.434570312 286.540039062 635.2421875 c 4
 286.540039062 645.755859375 322.64453125 652.158203125 380.177734375 652.158203125 c 4
 402.650390625 652.158203125 433.064453125 651.181640625 507.592773438 647.991210938 c 4
 543.014648438 646.474609375 555.168945312 646.02734375 561.665039062 646.02734375 c 4
 569.188476562 646.02734375 572.561523438 646.626953125 572.561523438 647.955078125 c 4
 572.561523438 649.822265625 565.8984375 654.15234375 540.426757812 668.375976562 c 4
 494.05859375 694.267578125 478.905273438 704.75390625 478.905273438 711.13671875 c 4
 478.905273438 714.313476562 482.658203125 716.091796875 487.784179688 716.091796875 c 4
 519.772460938 716.091796875 636.65625 646.815429688 636.65625 628.5 c 4
 636.65625 622.427734375 623.810546875 616.060546875 503.299804688 562.15625 c 4
 499.639648438 560.51953125 499.639648438 560.51953125 499.639648438 560.51953125 c 4
 491.8671875 560.51953125 488.96484375 562.40625 488.96484375 567.6875 c 4
470.727539062 101.251953125 m 4
 470.727539062 67.8623046875 420.868164062 34.1416015625 362.795898438 34.1416015625 c 4
 337.73828125 34.1416015625 310.456054688 40.419921875 247.6484375 63.3828125 c 4
 195.852539062 82.3203125 172.965820312 88.173828125 147.016601562 88.173828125 c 4
 106.27734375 88.173828125 82.033203125 73.74609375 56.9267578125 27.6005859375 c 4
 51.2001953125 17.07421875 48.0849609375 12.9150390625 42.8203125 11.595703125 c 4
 41.7509765625 11.328125 40.669921875 11.1962890625 39.5927734375 11.1962890625 c 0
 31.166015625 11.1962890625 23 19.2451171875 23 33.037109375 c 4
 23 72.1640625 88.712890625 126.244140625 150.458984375 126.244140625 c 4
 171.5390625 126.244140625 190.216796875 119.940429688 229.077148438 100.814453125 c 4
 290.83984375 70.4169921875 321.973632812 62.3876953125 355.244140625 62.3876953125 c 4
 391.274414062 62.3876953125 419.60546875 71.8037109375 438.439453125 108.196289062 c 4
 442.529296875 116.098632812 445.578125 119.8515625 453.606445312 119.8515625 c 4
 464.146484375 119.8515625 470.727539062 113.3828125 470.727539062 101.251953125 c 4
201.025390625 130.905273438 m 4
 201.025390625 313.653320312 214.35546875 442.619140625 235.383789062 442.619140625 c 4
 244.841796875 442.619140625 252.76953125 416.530273438 257.505859375 367.248046875 c 4
 261.236328125 328.426757812 263.176757812 273.231445312 264.629882812 116.321289062 c 4
 265.403320312 32.794921875 266.171875 -6.4130859375 268.069335938 -40.1171875 c 4
 273.270507812 -132.543945312 284.55859375 -141.001953125 400.840820312 -145.333984375 c 4
 410.000976562 -145.674804688 419.390625 -145.974609375 433.293945312 -146.405273438 c 4
 575.360351562 -150.803710938 638.315429688 -153.713867188 678.87890625 -157.030273438 c 4
 739.951171875 -162.0234375 763.068359375 -168.982421875 763.068359375 -180.2890625 c 4
 763.068359375 -196.67578125 714.50390625 -200.491210938 521.822265625 -200.491210938 c 4
 245.737304688 -200.491210938 221.278320312 -192.659179688 209.853515625 -89.0009765625 c 4
 204.625976562 -41.5693359375 201.025390625 35.927734375 201.025390625 130.905273438 c 4
EndSplineSet
EndChar

StartChar: G
Encoding: 71 71 32
Width: 954
VWidth: 1128
Flags: HW
HStem: -14.6564 42.5036<111.453 209.184> 722.529 30.5194<319.843 568.136>
VStem: 214.342 554.752<28.2693 597.689>
LayerCount: 2
Back
SplineSet
571.736328125 737.509765625 m 4x30
 575.053710938 738.673828125 580.313476562 738.606445312 597.192382812 729.508789062 c 4
 614.071289062 720.411132812 642.55078125 702.29296875 657.375 691.984375 c 4
 672.198242188 681.674804688 673.357421875 679.1796875 674.192382812 676.540039062 c 4
 675.02734375 673.900390625 675.537109375 671.1171875 663.71875 664.409179688 c 4
 651.899414062 657.702148438 627.752929688 647.073242188 609.930664062 639.1015625 c 4
 592.107421875 631.129882812 580.618164062 625.8203125 574.6875 624.037109375 c 4
 568.756835938 622.25390625 568.40234375 624.002929688 569.037109375 628.24609375 c 4
 569.671875 632.489257812 571.296875 639.225585938 583.109375 645.953125 c 4
 594.922851562 652.6796875 616.916015625 659.396484375 627.4453125 663.001953125 c 4
 637.974609375 666.607421875 637.026367188 667.099609375 599.639648438 666.181640625 c 4
 562.25390625 665.262695312 488.41796875 662.932617188 451.734375 667.715820312 c 4
 415.05078125 672.5 415.517578125 684.397460938 452.834960938 688.20703125 c 4
 490.151367188 692.016601562 564.313476562 687.736328125 600.075195312 686.19140625 c 4
 635.836914062 684.646484375 633.202148438 685.837890625 621.842773438 692.497070312 c 4
 610.483398438 699.15625 590.390625 711.290039062 579.571289062 718.713867188 c 4
 568.751953125 726.137695312 567.212890625 728.84765625 567.129882812 731.399414062 c 4
 567.046875 733.952148438 568.418945312 736.346679688 571.736328125 737.509765625 c 4x30
338.239257812 172.639648438 m 0
 340.823242188 252.00390625 340.823242188 410.549804688 341.42578125 489.838867188 c 0
 342.029296875 569.126953125 343.233398438 569.126953125 415.671875 569.126953125 c 0
 488.110351562 569.126953125 631.778320312 569.126953125 706.755859375 569.126953125 c 0xb0
 781.733398438 569.126953125 788.018554688 569.126953125 791.161132812 489.579101562 c 0
 794.302734375 410.03125 794.302734375 250.943359375 794.302734375 171.634765625 c 0
 794.302734375 92.326171875 794.302734375 92.8017578125 815.575195312 93.0966796875 c 0
 836.846679688 93.390625 879.388671875 93.50390625 902.223632812 91.314453125 c 0
 925.057617188 89.125 928.185546875 84.6357421875 925.634765625 78.970703125 c 0
 923.084960938 73.306640625 914.856445312 66.466796875 790.584960938 62.248046875 c 0
 666.313476562 58.029296875 426.012695312 56.431640625 304.106445312 61.37890625 c 0
 182.200195312 66.3251953125 178.703125 77.8173828125 180.749023438 84.3046875 c 0
 182.795898438 90.7919921875 190.385742188 92.2744140625 215.407226562 92.8935546875 c 0
 240.428710938 93.513671875 282.870117188 93.26953125 306.678710938 93.2099609375 c 0x70
 330.487304688 93.150390625 335.654296875 93.2744140625 338.239257812 172.639648438 c 0
EndSplineSet
Fore
SplineSet
495.655273438 494.8984375 m 4
 495.655273438 507.341796875 513.479492188 518.438476562 561.955078125 533.891601562 c 4
 570.486328125 536.611328125 573.171875 537.633789062 573.171875 538.436523438 c 4
 573.171875 539.342773438 569.754882812 539.6953125 561.42578125 539.6953125 c 4
 555.991210938 539.6953125 547.720703125 539.544921875 522.982421875 538.961914062 c 4
 477.344726562 537.88671875 455.70703125 537.529296875 436.170898438 537.529296875 c 4
 359.229492188 537.529296875 319.633789062 543.071289062 319.633789062 553.338867188 c 4
 319.633789062 562.481445312 351.030273438 568.048828125 401.330078125 568.048828125 c 4
 421.073242188 568.048828125 447.255859375 567.19140625 509.751953125 564.515625 c 4
 542.806640625 563.100585938 553.447265625 562.717773438 558.969726562 562.717773438 c 4
 565.415039062 562.717773438 568.34765625 563.239257812 568.34765625 564.459960938 c 4
 568.34765625 566.208984375 562.326171875 569.909179688 545.053710938 579.553710938 c 4
 499.657226562 604.903320312 486.908203125 614.361328125 486.908203125 619.499023438 c 4
 486.908203125 622.098632812 490.169921875 623.64453125 494.462890625 623.64453125 c 4
 521.094726562 623.64453125 624.08203125 564.147460938 624.08203125 553.208007812 c 4
 624.08203125 541.883789062 513.735351562 488.36328125 500.272460938 488.36328125 c 4
 497.067382812 488.36328125 495.655273438 491.396484375 495.655273438 494.8984375 c 4
23 -166.75 m 4
 23 -158.564453125 35.7470703125 -157.15234375 117.427734375 -157.15234375 c 4
 127.4765625 -157.15234375 141.565429688 -157.173828125 169.9296875 -157.239257812 c 4
 175.951171875 -157.252929688 177.578125 -157.256835938 178.212890625 -157.256835938 c 4
 208.381835938 -157.256835938 211.8671875 -149.107421875 214.473632812 -69.041015625 c 4
 216.309570312 -12.6728515625 217.319335938 67.3427734375 218.329101562 271.563476562 c 4
 218.46875 299.921875 218.572265625 318.470703125 218.7109375 336.764648438 c 4
 219.348632812 420.50390625 220.15625 421.22265625 308.865234375 421.22265625 c 6
 662.680664062 421.22265625 l 6
 757.49609375 421.22265625 761.594726562 417.741210938 764.92578125 333.40625 c 4
 767.985351562 255.948242188 769.09375 143.282226562 769.09375 -93.486328125 c 4
 769.09375 -93.6826171875 l 4
 769.09375 -155.014648438 771.764648438 -157.436523438 789.337890625 -157.436523438 c 4
 790.594726562 -157.436523438 791.938476562 -157.423828125 795.448242188 -157.3828125 c 4
 807.456054688 -157.2421875 815.225585938 -157.192382812 824.2109375 -157.192382812 c 4
 900.188476562 -157.192382812 931.208984375 -160.731445312 931.208984375 -169.944335938 c 4
 931.208984375 -190.053710938 783.413085938 -199.657226562 449.327148438 -199.657226562 c 4
 137.618164062 -199.657226562 23 -191.296875 23 -166.75 c 4
EndSplineSet
EndChar

StartChar: H
Encoding: 72 72 33
Width: 654
VWidth: 1134
Flags: HW
HStem: -14.549 25.5256G<14.8244 18.7174> 179.742 24.5641<465.761 572.637> 226.727 33.1059<288.33 396.755> 517.468 47.1531<334.303 382.048> 668.356 30.5194<203.617 451.912>
VStem: 389.189 36.8949<189.914 516.579>
LayerCount: 2
Back
SplineSet
801.3046875 687.509765625 m 4
 804.623046875 688.673828125 809.8828125 688.606445312 826.76171875 679.508789062 c 4
 843.640625 670.411132812 872.119140625 652.29296875 886.943359375 641.984375 c 4
 901.767578125 631.674804688 902.92578125 629.1796875 903.76171875 626.540039062 c 4
 904.595703125 623.900390625 905.10546875 621.1171875 893.287109375 614.409179688 c 4
 881.46875 607.702148438 857.322265625 597.073242188 839.5 589.1015625 c 4
 821.67578125 581.129882812 810.1875 575.8203125 804.255859375 574.037109375 c 4
 798.326171875 572.25390625 797.970703125 574.002929688 798.60546875 578.24609375 c 4
 799.240234375 582.489257812 800.865234375 589.225585938 812.677734375 595.953125 c 4
 824.4921875 602.6796875 846.484375 609.396484375 857.013671875 613.001953125 c 4
 867.54296875 616.607421875 866.595703125 617.099609375 829.208984375 616.181640625 c 4
 791.822265625 615.262695312 717.986328125 612.932617188 681.302734375 617.715820312 c 4
 644.619140625 622.5 645.0859375 634.397460938 682.404296875 638.20703125 c 4
 719.720703125 642.016601562 793.8828125 637.736328125 829.64453125 636.19140625 c 4
 865.40625 634.646484375 862.771484375 635.837890625 851.412109375 642.497070312 c 4
 840.052734375 649.15625 819.958984375 661.290039062 809.140625 668.713867188 c 4
 798.3203125 676.137695312 796.78125 678.84765625 796.69921875 681.399414062 c 4
 796.615234375 683.952148438 797.98828125 686.346679688 801.3046875 687.509765625 c 4
704.0625 211.934570312 m 0
 700.001953125 203.849609375 697.11328125 198.017578125 692.07421875 196.754882812 c 0
 687.033203125 195.4921875 679.841796875 198.799804688 678.09375 205.736328125 c 0
 676.345703125 212.672851562 680.04296875 223.239257812 689.482421875 236.62109375 c 0
 698.923828125 250.002929688 714.10546875 266.19921875 733.103515625 273.68359375 c 0
 752.1015625 281.168945312 774.9140625 279.943359375 797.0625 272.4296875 c 0
 819.212890625 264.916992188 840.69921875 251.118164062 864.427734375 242.833984375 c 0
 888.158203125 234.548828125 914.126953125 231.778320312 931.716796875 233.563476562 c 0
 949.306640625 235.349609375 958.515625 241.69140625 964.74609375 249.366210938 c 0
 970.9765625 257.041015625 974.23046875 266.049804688 978.82421875 270.5859375 c 0
 983.41796875 275.122070312 989.3515625 275.185546875 993.48828125 272.040039062 c 0
 997.625 268.89453125 999.966796875 262.54296875 995.755859375 252.53515625 c 0
 991.54296875 242.528320312 980.78125 228.8671875 962.857421875 220.639648438 c 0
 944.931640625 212.413085938 919.845703125 209.622070312 888.060546875 217.479492188 c 0
 856.275390625 225.336914062 817.79296875 243.84375 788.4296875 249.489257812 c 0
 759.068359375 255.134765625 738.83203125 247.916992188 726.095703125 239.137695312 c 0
 713.359375 230.358398438 708.125 220.020507812 704.0625 211.934570312 c 0
521.80859375 126.903320312 m 0
 559.806640625 212.8359375 643.1015625 371.1796875 699.98046875 450.528320312 c 0
 756.857421875 529.877929688 787.31640625 530.231445312 805.90234375 529.393554688 c 0
 824.486328125 528.555664062 831.1953125 526.528320312 834.548828125 445.720703125 c 0
 837.90234375 364.913085938 837.90234375 205.333007812 835.982421875 125.836914062 c 0
 834.0625 46.3408203125 830.21875 46.931640625 827.275390625 47.052734375 c 0
 824.33203125 47.173828125 822.2890625 46.82421875 819.130859375 119.890625 c 0
 815.97265625 192.956054688 811.703125 339.428710938 806.962890625 413.814453125 c 0
 802.22265625 488.200195312 797.009765625 490.489257812 788.5703125 490.672851562 c 0
 780.12890625 490.856445312 768.462890625 488.934570312 719.5625 409.125 c 0
 670.6640625 329.315429688 584.5390625 171.629882812 537.82421875 99.541015625 c 0
 491.111328125 27.453125 483.8125 40.9716796875 521.80859375 126.903320312 c 0
EndSplineSet
Fore
SplineSet
389.43359375 447.673828125 m 0
 389.43359375 459.891601562 407.138671875 471.228515625 456.47265625 486.955078125 c 0
 464.23828125 489.430664062 466.94921875 490.435546875 466.94921875 491.251953125 c 0
 466.94921875 492.169921875 463.528320312 492.5234375 455.146484375 492.5234375 c 0
 449.6640625 492.5234375 441.456054688 492.372070312 417.291015625 491.802734375 c 0
 370.998046875 490.711914062 349.3203125 490.356445312 329.862304688 490.356445312 c 0
 253.015625 490.356445312 213.4140625 495.899414062 213.4140625 506.166992188 c 0
 213.4140625 515.30859375 244.8046875 520.875976562 293.676757812 520.875976562 c 0
 312.45703125 520.875976562 340.185546875 520.053710938 411.09375 517.018554688 c 0
 436.19921875 515.943359375 446.592773438 515.544921875 452.46875 515.544921875 c 0
 459.190429688 515.544921875 462.125 516.067382812 462.125 517.229492188 c 0
 462.125 518.866210938 456.3046875 522.625 434.578125 534.7578125 c 0
 393.834960938 557.508789062 380.685546875 566.643554688 380.685546875 572.171875 c 0
 380.685546875 574.92578125 383.94921875 576.471679688 388.2421875 576.471679688 c 0
 414.873046875 576.471679688 517.859375 516.973632812 517.859375 506.034179688 c 0
 517.859375 494.709960938 407.512695312 441.19140625 394.049804688 441.19140625 c 0
 390.845703125 441.19140625 389.43359375 444.223632812 389.43359375 447.673828125 c 0
631.39453125 60.1015625 m 0
 631.39453125 31.0654296875 588.037109375 1.7412109375 538.10546875 1.7412109375 c 0
 516.6875 1.7412109375 492.200195312 7.13671875 435.331054688 27.9287109375 c 0
 392.467773438 43.6005859375 372.922851562 48.7265625 349.849609375 48.7265625 c 0
 313.606445312 48.7265625 293.346679688 36.080078125 271.962890625 -3.2197265625 c 0
 266.571289062 -13.126953125 263.750976562 -16.7470703125 259.233398438 -17.87890625 c 0
 251.100585938 -19.9169921875 242.068359375 -12.7431640625 242.068359375 0.7841796875 c 0
 242.068359375 34.8076171875 299.206054688 81.8330078125 352.530273438 81.8330078125 c 0
 370.655273438 81.8330078125 387.372070312 76.400390625 423.491210938 58.6240234375 c 0
 474.764648438 33.3896484375 500.595703125 26.3056640625 532.715820312 26.3056640625 c 0
 568.12890625 26.3056640625 587.158203125 34.916015625 602.282226562 64.138671875 c 0
 606.909179688 73.0791015625 609.926757812 76.2744140625 616.694335938 76.2744140625 c 0
 625.672851562 76.2744140625 631.39453125 70.6494140625 631.39453125 60.1015625 c 0
436.0859375 -38.19921875 m 1
 436.0859375 -132.83984375 431.6640625 -199.760742188 424.567382812 -199.760742188 c 0
 418.487304688 -199.760742188 414.94140625 -150.646484375 407.900390625 50.1513671875 c 0
 404.470703125 147.958984375 402.284179688 197.950195312 399.430664062 242.717773438 c 0
 394.372070312 322.076171875 390.120117188 339.467773438 376.41796875 339.467773438 c 0
 359.817382812 339.467773438 338.076171875 313.940429688 292.0390625 238.801757812 c 0
 272.100585938 206.26171875 251.791015625 171.247070312 214.950195312 106.94921875 c 0
 123.422851562 -52.79296875 90.76953125 -107.115234375 71.15625 -137.3828125 c 0
 48.4072265625 -172.48828125 31.9794921875 -192.549804688 25.73828125 -192.549804688 c 0
 23.9072265625 -192.549804688 23 -190.823242188 23 -187.265625 c 0
 23 -139.81640625 184.443359375 172.458007812 271.44140625 293.825195312 c 0
 322.426757812 364.952148438 359.389648438 386.620117188 428.142578125 386.620117188 c 1
 432.795898438 386.620117188 436.0859375 210.654296875 436.0859375 -38.19921875 c 1
EndSplineSet
EndChar

StartChar: I
Encoding: 73 73 34
Width: 515
VWidth: 1355
Flags: HW
HStem: -83.7154 31.907G<435.297 485.516> 288.719 107.654<260.812 316.673> 603.95 38.1493<77.732 388.1>
VStem: 23.001 469.412<-69.3006 -34.6545>
LayerCount: 2
Back
SplineSet
653.254882812 577.509765625 m 4
 656.572265625 578.673828125 661.83203125 578.606445312 678.7109375 569.508789062 c 4
 695.58984375 560.411132812 724.069335938 542.29296875 738.893554688 531.984375 c 4
 753.716796875 521.674804688 754.875976562 519.1796875 755.7109375 516.540039062 c 4
 756.545898438 513.900390625 757.055664062 511.1171875 745.237304688 504.409179688 c 4
 733.41796875 497.702148438 709.271484375 487.073242188 691.44921875 479.1015625 c 4
 673.625976562 471.129882812 662.13671875 465.8203125 656.206054688 464.037109375 c 4
 650.275390625 462.25390625 649.920898438 464.002929688 650.555664062 468.24609375 c 4
 651.190429688 472.489257812 652.815429688 479.225585938 664.627929688 485.953125 c 4
 676.44140625 492.6796875 698.434570312 499.396484375 708.963867188 503.001953125 c 4
 719.493164062 506.607421875 718.544921875 507.099609375 681.158203125 506.181640625 c 4
 643.772460938 505.262695312 569.936523438 502.932617188 533.252929688 507.715820312 c 4
 496.569335938 512.5 497.036132812 524.397460938 534.353515625 528.20703125 c 4
 571.669921875 532.016601562 645.83203125 527.736328125 681.59375 526.19140625 c 4
 717.35546875 524.646484375 714.720703125 525.837890625 703.361328125 532.497070312 c 4
 692.001953125 539.15625 671.909179688 551.290039062 661.08984375 558.713867188 c 4
 650.270507812 566.137695312 648.731445312 568.84765625 648.6484375 571.399414062 c 4
 648.565429688 573.952148438 649.9375 576.346679688 653.254882812 577.509765625 c 4
471.184570312 64.42578125 m 0
 468.565429688 72.140625 468.716796875 84.3779296875 494.68359375 134.420898438 c 0
 520.649414062 184.462890625 572.426757812 272.303710938 601.125 317.575195312 c 0
 629.823242188 362.84765625 635.4375 365.54296875 641.377929688 367.485351562 c 0
 647.318359375 369.426757812 653.583984375 370.61328125 668.677734375 343.12109375 c 0
 683.771484375 315.62890625 707.693359375 259.461914062 728.799804688 206.284179688 c 0
 749.907226562 153.107421875 768.190429688 102.943359375 775.369140625 77.4306640625 c 0
 782.547851562 51.9169921875 778.610351562 51.0927734375 769.061523438 52.5693359375 c 0
 759.512695312 54.0458984375 744.354492188 57.8251953125 723.498046875 105.890625 c 0
 702.641601562 153.956054688 676.08984375 246.303710938 657.51953125 280.373046875 c 0
 638.94921875 314.44140625 628.36328125 290.225585938 603.919921875 243.959960938 c 0
 579.475585938 197.693359375 541.176757812 129.380859375 518.977539062 93.4326171875 c 0
 496.77734375 57.4853515625 490.678710938 53.90625 484.935546875 53.7119140625 c 0
 479.192382812 53.5185546875 473.803710938 56.7109375 471.184570312 64.42578125 c 0
EndSplineSet
Fore
SplineSet
297.5 434.46484375 m 4
 297.5 450.1953125 319.771484375 464.083984375 380.447265625 483.423828125 c 4
 391.025390625 486.795898438 394.396484375 488.077148438 394.396484375 489.08203125 c 4
 394.396484375 490.215820312 390.114257812 490.658203125 379.322265625 490.658203125 c 4
 372.141601562 490.658203125 362.224609375 490.461914062 337.048828125 489.869140625 c 4
 274.075195312 488.384765625 245.60546875 487.950195312 221.837890625 487.950195312 c 4
 126.970703125 487.950195312 77.4755859375 494.876953125 77.4755859375 507.7109375 c 4
 77.4755859375 519.138671875 116.727539062 526.098632812 179.092773438 526.098632812 c 4
 203.419921875 526.098632812 236.684570312 525.040039062 318.853515625 521.522460938 c 4
 356.268554688 519.920898438 369.372070312 519.434570312 376.47265625 519.434570312 c 4
 384.700195312 519.434570312 388.3671875 520.086914062 388.3671875 521.544921875 c 4
 388.3671875 523.603515625 381.063476562 528.301757812 354.26171875 543.267578125 c 4
 302.987304688 571.8984375 286.567382812 583.3359375 286.567382812 590.2265625 c 4
 286.567382812 593.66015625 290.645507812 595.592773438 296.215820312 595.592773438 c 4
 330.987304688 595.592773438 458.034179688 520.293945312 458.034179688 500.381835938 c 4
 458.034179688 493.786132812 444.095703125 486.872070312 310.032226562 426.908203125 c 4
 309.103515625 426.4921875 309.103515625 426.4921875 309.103515625 426.4921875 c 4
 300.65625 426.4921875 297.5 428.543945312 297.5 434.46484375 c 4
41.0966796875 -197.604492188 m 4
 31.4892578125 -197.604492188 23 -185.395507812 23 -173.573242188 c 4
 23 -135.834960938 109.505859375 26.1064453125 210.170898438 184.912109375 c 4
 262.052734375 266.7578125 274.971679688 280.373046875 288.393554688 280.373046875 c 4
 299.563476562 280.373046875 308.83203125 270.943359375 323.380859375 244.442382812 c 4
 373.681640625 152.823242188 492.4140625 -152.53515625 492.4140625 -190.940429688 c 4
 492.4140625 -197.1484375 489.311523438 -199.715820312 480.706054688 -199.715820312 c 4
 439.33984375 -199.715820312 407.814453125 -140.379882812 350.03515625 44.7333984375 c 4
 318.579101562 145.512695312 306.232421875 172.71875 292.848632812 172.71875 c 4
 276.815429688 172.71875 250.912109375 133.673828125 179.638671875 6.1494140625 c 4
 90.4599609375 -153.412109375 59.3759765625 -197.604492188 41.0966796875 -197.604492188 c 4
EndSplineSet
EndChar

StartChar: J
Encoding: 74 74 35
Width: 653
VWidth: 1339
Flags: HW
HStem: 455.897 107.654<390.43 449.163> 725.546 38.1493<214.952 525.32>
LayerCount: 2
Back
SplineSet
700.974609375 667.509765625 m 4
 704.291992188 668.673828125 709.551757812 668.606445312 726.430664062 659.508789062 c 4
 743.309570312 650.411132812 771.7890625 632.29296875 786.61328125 621.984375 c 4
 801.436523438 611.674804688 802.595703125 609.1796875 803.430664062 606.540039062 c 4
 804.265625 603.900390625 804.775390625 601.1171875 792.95703125 594.409179688 c 4
 781.137695312 587.702148438 756.991210938 577.073242188 739.168945312 569.1015625 c 4
 721.345703125 561.129882812 709.856445312 555.8203125 703.92578125 554.037109375 c 4
 697.995117188 552.25390625 697.640625 554.002929688 698.275390625 558.24609375 c 4
 698.91015625 562.489257812 700.53515625 569.225585938 712.34765625 575.953125 c 4
 724.161132812 582.6796875 746.154296875 589.396484375 756.68359375 593.001953125 c 4
 767.212890625 596.607421875 766.264648438 597.099609375 728.877929688 596.181640625 c 4
 691.4921875 595.262695312 617.65625 592.932617188 580.97265625 597.715820312 c 4
 544.2890625 602.5 544.755859375 614.397460938 582.073242188 618.20703125 c 4
 619.389648438 622.016601562 693.551757812 617.736328125 729.313476562 616.19140625 c 4
 765.075195312 614.646484375 762.440429688 615.837890625 751.081054688 622.497070312 c 4
 739.721679688 629.15625 719.62890625 641.290039062 708.809570312 648.713867188 c 4
 697.990234375 656.137695312 696.451171875 658.84765625 696.368164062 661.399414062 c 4
 696.28515625 663.952148438 697.657226562 666.346679688 700.974609375 667.509765625 c 4
431.94921875 54.2021484375 m 0
 443.26171875 87.0234375 479.923828125 151.818359375 524.146484375 228.140625 c 0
 568.369140625 304.462890625 620.146484375 392.303710938 648.844726562 437.575195312 c 0
 677.54296875 482.84765625 683.157226562 485.54296875 689.09765625 487.485351562 c 0
 695.038085938 489.426757812 701.303710938 490.61328125 716.397460938 463.12109375 c 0
 731.4921875 435.62890625 755.413085938 379.461914062 776.51953125 326.284179688 c 0
 797.626953125 273.107421875 815.91015625 222.943359375 823.088867188 197.430664062 c 0
 830.267578125 171.916992188 826.330078125 171.092773438 816.78125 172.569335938 c 0
 807.232421875 174.045898438 792.07421875 177.825195312 771.217773438 225.890625 c 0
 750.361328125 273.956054688 723.809570312 366.303710938 705.239257812 400.373046875 c 0
 686.668945312 434.44140625 676.083007812 410.225585938 651.639648438 363.959960938 c 0
 627.1953125 317.693359375 588.896484375 249.379882812 554.504882812 188.756835938 c 0
 520.11328125 128.133789062 489.6328125 75.2060546875 472.651367188 48.3115234375 c 0
 455.670898438 21.4169921875 452.189453125 20.5556640625 443.430664062 20.546875 c 0
 434.671875 20.5380859375 420.63671875 21.3818359375 431.94921875 54.2021484375 c 0
EndSplineSet
Fore
SplineSet
434.720703125 619.025390625 m 4
 434.720703125 634.637695312 456.926757812 648.661132812 518.077148438 668.151367188 c 4
 528.227539062 671.38671875 531.615234375 672.657226562 531.615234375 673.671875 c 4
 531.615234375 674.8125 527.337890625 675.254882812 516.694335938 675.254882812 c 4
 509.662109375 675.254882812 499.571289062 675.061523438 471.952148438 674.411132812 c 4
 411.43359375 672.986328125 383.865234375 672.547851562 359.799804688 672.547851562 c 4
 264.185546875 672.547851562 214.6953125 679.474609375 214.6953125 692.30859375 c 4
 214.6953125 703.736328125 253.93359375 710.6953125 315.7265625 710.6953125 c 4
 339.654296875 710.6953125 373.532226562 709.651367188 458.994140625 705.993164062 c 4
 493.212890625 704.529296875 506.344726562 704.032226562 513.608398438 704.032226562 c 4
 521.924804688 704.032226562 525.5859375 704.682617188 525.5859375 706.1875 c 4
 525.5859375 708.333984375 518.130859375 712.982421875 494.596679688 726.124023438 c 4
 439.938476562 756.64453125 423.786132812 768.28125 423.786132812 774.919921875 c 4
 423.786132812 778.256835938 427.865234375 780.189453125 433.435546875 780.189453125 c 4
 468.206054688 780.189453125 595.254882812 704.888671875 595.254882812 684.984375 c 4
 595.254882812 678.376953125 581.254882812 671.442382812 448.713867188 612.157226562 c 4
 446.32421875 611.088867188 446.32421875 611.088867188 446.32421875 611.088867188 c 4
 437.875976562 611.088867188 434.720703125 613.139648438 434.720703125 619.025390625 c 4
23 -178.775390625 m 4
 23 -147.463867188 57.0908203125 -78.896484375 180.759765625 134.54296875 c 4
 253.275390625 259.696289062 322.501953125 375.828125 361.955078125 438.06640625 c 4
 398.4375 495.619140625 411.655273438 510.55078125 425.658203125 510.55078125 c 4
 436.783203125 510.55078125 446.049804688 501.125 460.594726562 474.634765625 c 4
 510.891601562 383.029296875 629.6328125 77.646484375 629.6328125 39.23828125 c 4
 629.6328125 33.0302734375 626.53125 30.462890625 617.836914062 30.462890625 c 4
 577.536132812 30.462890625 547.536132812 85.638671875 490.838867188 258.112304688 c 4
 453.161132812 372.725585938 438.00390625 402.897460938 421.958007812 402.897460938 c 4
 409.73046875 402.897460938 396.98828125 385.375976562 362.237304688 319.598632812 c 4
 299.553710938 200.952148438 135.74609375 -87.638671875 86.720703125 -165.284179688 c 4
 68.1123046875 -194.754882812 62.1591796875 -199.984375 47.1923828125 -199.984375 c 4
 30.591796875 -199.984375 23 -193.55078125 23 -178.775390625 c 4
EndSplineSet
EndChar

StartChar: K
Encoding: 75 75 36
Width: 739
VWidth: 1324
Flags: HW
HStem: -110.247 715.773<226.93 512.164> 817.613 38.1484<160.412 470.779>
VStem: 22.9999 693.093<100.356 394.923>
LayerCount: 2
Back
SplineSet
631.203125 737.509765625 m 4
 634.520507812 738.673828125 639.780273438 738.606445312 656.659179688 729.508789062 c 4
 673.538085938 720.411132812 702.017578125 702.29296875 716.841796875 691.984375 c 4
 731.665039062 681.674804688 732.82421875 679.1796875 733.659179688 676.540039062 c 4
 734.494140625 673.900390625 735.00390625 671.1171875 723.185546875 664.409179688 c 4
 711.366210938 657.702148438 687.219726562 647.073242188 669.397460938 639.1015625 c 4
 651.57421875 631.129882812 640.084960938 625.8203125 634.154296875 624.037109375 c 4
 628.223632812 622.25390625 627.869140625 624.002929688 628.50390625 628.24609375 c 4
 629.138671875 632.489257812 630.763671875 639.225585938 642.576171875 645.953125 c 4
 654.389648438 652.6796875 676.3828125 659.396484375 686.912109375 663.001953125 c 4
 697.44140625 666.607421875 696.493164062 667.099609375 659.106445312 666.181640625 c 4
 621.720703125 665.262695312 547.884765625 662.932617188 511.201171875 667.715820312 c 4
 474.517578125 672.5 474.984375 684.397460938 512.301757812 688.20703125 c 4
 549.618164062 692.016601562 623.780273438 687.736328125 659.541992188 686.19140625 c 4
 695.303710938 684.646484375 692.668945312 685.837890625 681.309570312 692.497070312 c 4
 669.950195312 699.15625 649.857421875 711.290039062 639.038085938 718.713867188 c 4
 628.21875 726.137695312 626.6796875 728.84765625 626.596679688 731.399414062 c 4
 626.513671875 733.952148438 627.885742188 736.346679688 631.203125 737.509765625 c 4
393.728515625 289.677734375 m 0
 393.728515625 419.766601562 495.844726562 525.224609375 621.8125 525.224609375 c 0
 747.780273438 525.224609375 849.896484375 419.766601562 849.896484375 289.677734375 c 0
 849.896484375 159.587890625 747.780273438 54.1298828125 621.8125 54.1298828125 c 0
 495.844726562 54.1298828125 393.728515625 159.587890625 393.728515625 289.677734375 c 0
EndSplineSet
Fore
SplineSet
380.178710938 571.3203125 m 4
 380.178710938 586.40234375 402.094726562 601.024414062 464.954101562 621.061523438 c 4
 473.63671875 623.829101562 477.075195312 625.071289062 477.075195312 626.110351562 c 4
 477.075195312 627.26953125 472.80078125 627.7109375 462.188476562 627.7109375 c 4
 455.196289062 627.7109375 445.090820312 627.51953125 416.823242188 626.853515625 c 4
 356.9765625 625.444335938 329.510742188 625.00390625 305.372070312 625.00390625 c 4
 209.643554688 625.00390625 160.153320312 631.930664062 160.153320312 644.765625 c 4
 160.153320312 656.193359375 199.387695312 663.15234375 262.024414062 663.15234375 c 4
 286.51171875 663.15234375 319.459960938 662.088867188 399.743164062 658.65234375 c 4
 438.889648438 656.9765625 452.200195312 656.489257812 459.2421875 656.489257812 c 4
 467.3828125 656.489257812 471.043945312 657.140625 471.043945312 658.608398438 c 4
 471.043945312 660.685546875 463.7109375 665.372070312 437.514648438 679.999023438 c 4
 385.625 708.973632812 369.245117188 720.443359375 369.245117188 727.294921875 c 4
 369.245117188 730.713867188 373.323242188 732.646484375 378.893554688 732.646484375 c 4
 413.665039062 732.646484375 540.711914062 657.34765625 540.711914062 637.435546875 c 4
 540.711914062 630.845703125 526.793945312 623.934570312 394.026367188 564.55078125 c 4
 391.782226562 563.546875 391.782226562 563.546875 391.782226562 563.546875 c 4
 383.333984375 563.546875 380.178710938 565.59765625 380.178710938 571.3203125 c 4
23 155.029296875 m 4
 23 352.685546875 178.154296875 512.916015625 369.546875 512.916015625 c 4
 560.939453125 512.916015625 716.09375 352.685546875 716.09375 155.029296875 c 4
 716.09375 -42.626953125 560.939453125 -202.857421875 369.546875 -202.857421875 c 4
 178.154296875 -202.857421875 23 -42.626953125 23 155.029296875 c 4
EndSplineSet
EndChar

StartChar: L
Encoding: 76 76 37
Width: 1031
VWidth: 1333
Flags: HW
HStem: -103.461 41.9196<28.2541 464.037> 469.987 64.2043<336.632 541.695> 704.659 38.1493<274.153 584.52>
VStem: 194.118 52.1739<142.531 374.93> 615.995 66.4478<66.1186 382.72>
LayerCount: 2
Back
SplineSet
613.466796875 657.509765625 m 4
 616.784179688 658.673828125 622.043945312 658.606445312 638.922851562 649.508789062 c 4
 655.801757812 640.411132812 684.28125 622.29296875 699.10546875 611.984375 c 4
 713.928710938 601.674804688 715.087890625 599.1796875 715.922851562 596.540039062 c 4
 716.7578125 593.900390625 717.267578125 591.1171875 705.44921875 584.409179688 c 4
 693.629882812 577.702148438 669.483398438 567.073242188 651.661132812 559.1015625 c 4
 633.837890625 551.129882812 622.348632812 545.8203125 616.41796875 544.037109375 c 4
 610.487304688 542.25390625 610.1328125 544.002929688 610.767578125 548.24609375 c 4
 611.40234375 552.489257812 613.02734375 559.225585938 624.83984375 565.953125 c 4
 636.653320312 572.6796875 658.646484375 579.396484375 669.17578125 583.001953125 c 4
 679.705078125 586.607421875 678.756835938 587.099609375 641.370117188 586.181640625 c 4
 603.984375 585.262695312 530.1484375 582.932617188 493.46484375 587.715820312 c 4
 456.78125 592.5 457.248046875 604.397460938 494.565429688 608.20703125 c 4
 531.881835938 612.016601562 606.043945312 607.736328125 641.805664062 606.19140625 c 4
 677.567382812 604.646484375 674.932617188 605.837890625 663.573242188 612.497070312 c 4
 652.213867188 619.15625 632.12109375 631.290039062 621.301757812 638.713867188 c 4
 610.482421875 646.137695312 608.943359375 648.84765625 608.860351562 651.399414062 c 4
 608.77734375 653.952148438 610.149414062 656.346679688 613.466796875 657.509765625 c 4
304.276367188 58.302734375 m 0
 300.55078125 62.9853515625 299.799804688 71.7568359375 303.383789062 76.142578125 c 0
 306.96875 80.5283203125 314.887695312 80.5283203125 349.635742188 80.5283203125 c 0
 384.3828125 80.5283203125 445.955078125 80.5283203125 494.1015625 80.14453125 c 0
 542.248046875 79.7607421875 576.963867188 78.994140625 606.26953125 89.0234375 c 0
 635.576171875 99.052734375 659.470703125 119.87890625 673.713867188 152.587890625 c 0
 687.958007812 185.296875 692.548828125 229.885742188 691.186523438 271.883789062 c 0
 689.825195312 313.880859375 682.508789062 353.28125 666.446289062 381.5859375 c 0
 650.383789062 409.891601562 625.575195312 427.096679688 592.048828125 429.928710938 c 0
 558.522460938 432.760742188 516.283203125 421.217773438 488.009765625 394.232421875 c 0
 459.736328125 367.248046875 445.43359375 324.825195312 448.50390625 279.94921875 c 0
 451.575195312 235.072265625 472.018554688 187.747070312 495.0859375 155.837890625 c 0
 518.154296875 123.927734375 543.84375 107.435546875 580.006835938 97.8154296875 c 0
 616.170898438 88.1953125 662.8046875 85.4482421875 727.977539062 83.33203125 c 0
 793.150390625 81.216796875 876.858398438 79.7333984375 916.37890625 74.857421875 c 0
 955.900390625 69.98046875 951.232421875 61.712890625 945.43359375 57.5791015625 c 0
 939.635742188 53.4453125 932.705078125 53.4453125 870.618164062 53.5048828125 c 0
 808.530273438 53.5654296875 691.288085938 53.6845703125 612.806640625 62.6337890625 c 0
 534.325195312 71.58203125 494.610351562 89.359375 460.08984375 147.564453125 c 0
 425.5703125 205.76953125 396.248046875 304.400390625 425.419921875 373.018554688 c 0
 454.591796875 441.63671875 542.254882812 480.236328125 608.239257812 471.260742188 c 0
 674.223632812 462.28515625 718.522460938 405.734375 731.1953125 335.708007812 c 0
 743.8671875 265.681640625 724.913085938 182.182617188 701.80078125 132.267578125 c 0
 678.689453125 82.353515625 651.422851562 66.02734375 624.52734375 58.5009765625 c 0
 597.631835938 50.974609375 571.109375 52.248046875 520.650390625 52.703125 c 0
 470.190429688 53.1572265625 395.807617188 52.79296875 355.254882812 52.908203125 c 0
 314.701171875 53.0244140625 308.001953125 53.6201171875 304.276367188 58.302734375 c 0
EndSplineSet
Fore
SplineSet
493.920898438 556.053710938 m 4
 493.920898438 571.383789062 515.96875 585.721679688 578.106445312 605.52734375 c 4
 587.389648438 608.486328125 590.818359375 609.743164062 590.818359375 610.7734375 c 4
 590.818359375 611.924804688 586.5390625 612.3671875 575.7421875 612.3671875 c 4
 568.55859375 612.3671875 558.662109375 612.171875 533.491210938 611.578125 c 4
 470.515625 610.09375 441.994140625 609.659179688 418.228515625 609.659179688 c 4
 323.390625 609.659179688 273.896484375 616.586914062 273.896484375 629.420898438 c 4
 273.896484375 640.848632812 313.135742188 647.80859375 376.307617188 647.80859375 c 4
 401.166015625 647.80859375 433.533203125 646.73046875 508.841796875 643.506835938 c 4
 553.021484375 641.616210938 566.509765625 641.14453125 573.228515625 641.14453125 c 4
 581.125 641.14453125 584.786132812 641.795898438 584.786132812 643.278320312 c 4
 584.786132812 645.384765625 577.400390625 650.056640625 552.211914062 664.12109375 c 4
 499.291015625 693.670898438 482.987304688 705.196289062 482.987304688 711.977539062 c 4
 482.987304688 715.369140625 487.065429688 717.301757812 492.635742188 717.301757812 c 4
 527.408203125 717.301757812 654.455078125 642.00390625 654.455078125 622.095703125 c 4
 654.455078125 615.491210938 640.4765625 608.5625 508.349609375 549.466796875 c 4
 505.5234375 548.202148438 505.5234375 548.202148438 505.5234375 548.202148438 c 4
 497.076171875 548.202148438 493.920898438 550.25390625 493.920898438 556.053710938 c 4
436.206054688 -199.173828125 m 4
 430.333007812 -199.173828125 421.565429688 -199.135742188 395.938476562 -199.005859375 c 4
 315.579101562 -198.596679688 274.205078125 -198.462890625 235.287109375 -198.462890625 c 4
 226.919921875 -198.462890625 219.08984375 -198.46875 194.474609375 -198.49609375 c 4
 161.826171875 -198.53125 146.056640625 -198.541992188 133.465820312 -198.541992188 c 4
 41.427734375 -198.541992188 33.8544921875 -197.947265625 28.328125 -191.000976562 c 4
 21.712890625 -182.685546875 21.3369140625 -169.426757812 26.7587890625 -162.794921875 c 4
 31.509765625 -156.984375 40.48046875 -156.54296875 139.856445312 -156.54296875 c 4
 182.549804688 -156.54296875 227.056640625 -156.624023438 320.87890625 -156.966796875 c 4
 385.095703125 -157.201171875 418.184570312 -157.286132812 467.377929688 -157.286132812 c 5
 554.436523438 -157.286132812 615.99609375 -45.37890625 615.99609375 121.786132812 c 4
 615.99609375 284.447265625 557.708007812 374.986328125 443.828125 374.986328125 c 4
 335.522460938 374.986328125 246.293945312 293.09375 246.293945312 158.155273438 c 4
 246.293945312 30.09375 326.659179688 -98.337890625 454.7109375 -132.401367188 c 4
 500.211914062 -144.504882812 572.864257812 -150.315429688 747.10546875 -155.372070312 c 4
 955.033203125 -161.40625 1007.8984375 -168.213867188 1007.8984375 -185.786132812 c 4
 1007.8984375 -193.216796875 998.443359375 -197.612304688 985.073242188 -197.612304688 c 5
 426.184570312 -197.612304688 339.2265625 -180.654296875 264.57421875 -54.78125 c 4
 220.653320312 19.275390625 194.119140625 108.899414062 194.119140625 181.108398438 c 4
 194.119140625 332.01171875 310.00390625 439.19140625 448.182617188 439.19140625 c 4
 590.283203125 439.19140625 682.443359375 325.841796875 682.443359375 144.037109375 c 4
 682.443359375 -16.3125 610.751953125 -163.036132812 502.83203125 -193.236328125 c 4
 486.436523438 -197.82421875 471.166015625 -199.173828125 436.206054688 -199.173828125 c 4
EndSplineSet
EndChar

StartChar: M
Encoding: 77 77 38
Width: 843
VWidth: 1318
Flags: HW
HStem: -63.5598 51.7896<306.823 719.351> 61.2136 30.7052<315.119 448.718> 119.945 41.3824<93.3311 211.543> 605.086 30.3877G<228.168 251.528> 809.889 38.1493<317.867 628.233>
VStem: 209.464 61.216<349.756 589.823> 220.233 62.538<7.13765 271.179> 719.356 101.049<-51.1384 1.57433>
LayerCount: 2
Back
SplineSet
700.881835938 737.509765625 m 4
 704.19921875 738.673828125 709.458984375 738.606445312 726.337890625 729.508789062 c 4
 743.216796875 720.411132812 771.6953125 702.29296875 786.51953125 691.984375 c 4
 801.34375 681.674804688 802.502929688 679.1796875 803.337890625 676.540039062 c 4
 804.171875 673.900390625 804.682617188 671.1171875 792.86328125 664.409179688 c 4
 781.044921875 657.702148438 756.8984375 647.073242188 739.076171875 639.1015625 c 4
 721.252929688 631.129882812 709.763671875 625.8203125 703.83203125 624.037109375 c 4
 697.90234375 622.25390625 697.546875 624.002929688 698.182617188 628.24609375 c 4
 698.81640625 632.489257812 700.44140625 639.225585938 712.25390625 645.953125 c 4
 724.068359375 652.6796875 746.061523438 659.396484375 756.58984375 663.001953125 c 4
 767.120117188 666.607421875 766.171875 667.099609375 728.78515625 666.181640625 c 4
 691.3984375 665.262695312 617.5625 662.932617188 580.87890625 667.715820312 c 4
 544.1953125 672.5 544.663085938 684.397460938 581.98046875 688.20703125 c 4
 619.296875 692.016601562 693.458984375 687.736328125 729.220703125 686.19140625 c 4
 764.982421875 684.646484375 762.34765625 685.837890625 750.98828125 692.497070312 c 4
 739.62890625 699.15625 719.53515625 711.290039062 708.716796875 718.713867188 c 4
 697.897460938 726.137695312 696.358398438 728.84765625 696.275390625 731.399414062 c 4
 696.19140625 733.952148438 697.564453125 736.346679688 700.881835938 737.509765625 c 4
386.166015625 171.168945312 m 0
 382.104492188 163.083984375 379.21484375 157.251953125 374.17578125 155.989257812 c 0
 369.13671875 154.7265625 361.944335938 158.034179688 360.1953125 164.970703125 c 0
 358.448242188 171.907226562 362.14453125 182.473632812 371.584960938 195.85546875 c 0
 381.025390625 209.237304688 396.208984375 225.43359375 415.20703125 232.91796875 c 0
 434.205078125 240.403320312 457.015625 239.177734375 479.1640625 231.6640625 c 0
 501.314453125 224.151367188 522.80078125 210.352539062 546.530273438 202.068359375 c 0
 570.259765625 193.783203125 596.229492188 191.012695312 613.818359375 192.797851562 c 0
 631.408203125 194.583984375 640.6171875 200.92578125 646.84765625 208.600585938 c 0
 653.078125 216.275390625 656.33203125 225.284179688 660.92578125 229.8203125 c 0
 665.51953125 234.356445312 671.453125 234.419921875 675.58984375 231.274414062 c 0
 679.728515625 228.12890625 682.069335938 221.77734375 677.857421875 211.770507812 c 0
 673.646484375 201.762695312 662.8828125 188.1015625 644.958984375 179.874023438 c 0
 627.034179688 171.647460938 601.948242188 168.856445312 570.163085938 176.713867188 c 0
 538.376953125 184.571289062 499.89453125 203.078125 470.533203125 208.723632812 c 0
 441.171875 214.369140625 420.93359375 207.151367188 408.198242188 198.372070312 c 0
 395.4609375 189.592773438 390.2265625 179.254882812 386.166015625 171.168945312 c 0
522.82421875 496.928710938 m 0
 529.752929688 424.83984375 526.19140625 280.545898438 530.306640625 207.422851562 c 0
 534.421875 134.299804688 546.216796875 132.3515625 595.796875 130.203125 c 0
 645.37890625 128.055664062 732.749023438 125.706054688 777.84375 124.505859375 c 0
 822.94140625 123.305664062 825.76171875 123.25390625 807.178710938 135.791015625 c 0
 788.596679688 148.328125 748.639648438 173.436523438 696.181640625 205.493164062 c 0
 643.724609375 237.549804688 578.796875 276.53515625 542.8125 296.474609375 c 0
 506.830078125 316.413085938 499.788085938 317.3046875 493.96484375 327.958984375 c 0
 488.140625 338.61328125 483.541015625 359.025390625 493.1953125 362.264648438 c 0
 502.8515625 365.50390625 526.765625 351.568359375 566.416992188 327.9765625 c 0
 606.068359375 304.384765625 661.448242188 271.141601562 700.350585938 246.755859375 c 0
 739.252929688 222.37109375 761.66796875 206.84765625 787.9296875 187.720703125 c 0
 814.19140625 168.592773438 844.284179688 145.872070312 862.0625 131.18359375 c 0
 879.842773438 116.495117188 885.295898438 109.849609375 884.529296875 104.352539062 c 0
 883.76171875 98.8564453125 876.775390625 94.51171875 817.2890625 92.30078125 c 0
 757.803710938 90.08984375 645.822265625 90.01171875 580.7734375 89.9423828125 c 0
 515.7265625 89.873046875 497.619140625 89.8125 488.82421875 169.62109375 c 0
 480.02734375 249.4296875 480.544921875 409.099609375 489.510742188 488.999023438 c 0
 498.4765625 568.899414062 515.89453125 569.018554688 522.82421875 496.928710938 c 0
EndSplineSet
Fore
SplineSet
537.6328125 620.067382812 m 4
 537.6328125 635.30078125 559.629882812 649.749023438 622.068359375 669.653320312 c 4
 631.104492188 672.533203125 634.529296875 673.78125 634.529296875 674.815429688 c 4
 634.529296875 675.969726562 630.255859375 676.411132812 619.39453125 676.411132812 c 4
 612.13671875 676.411132812 602.30859375 676.213867188 578.506835938 675.653320312 c 4
 514.051757812 674.133789062 484.956054688 673.703125 461.430664062 673.703125 c 4
 367.102539062 673.703125 317.607421875 680.630859375 317.607421875 693.46484375 c 4
 317.607421875 704.893554688 356.8515625 711.853515625 418.92578125 711.853515625 c 4xf9
 443.078125 711.853515625 476.705078125 710.799804688 560.493164062 707.211914062 c 4
 596.294921875 705.678710938 609.37109375 705.188476562 616.5546875 705.188476562 c 4
 624.837890625 705.188476562 628.501953125 705.83984375 628.501953125 707.338867188 c 4
 628.501953125 709.474609375 621.063476562 714.130859375 597.041992188 727.543945312 c 4
 542.900390625 757.776367188 526.701171875 769.375976562 526.701171875 776.059570312 c 4
 526.701171875 779.4140625 530.780273438 781.346679688 536.350585938 781.346679688 c 4
 571.122070312 781.346679688 698.166015625 706.046875 698.166015625 686.124023438 c 4
 698.166015625 679.560546875 684.376953125 672.69140625 550.495117188 612.807617188 c 4
 549.240234375 612.24609375 549.240234375 612.24609375 549.240234375 612.24609375 c 4
 540.7890625 612.24609375 537.6328125 614.296875 537.6328125 620.067382812 c 4
509.662109375 -2.025390625 m 4
 509.662109375 -38.3173828125 455.463867188 -74.9736328125 392.171875 -74.9736328125 c 4
 364.82421875 -74.9736328125 335.400390625 -68.1298828125 267.887695312 -43.447265625 c 4
 210.845703125 -22.5927734375 185.831054688 -16.2421875 156.309570312 -16.2421875 c 4
 109.170898438 -16.2421875 86.8896484375 -32.43359375 63.5849609375 -75.2685546875 c 4
 53.3994140625 -93.9873046875 48.3603515625 -98.5224609375 43.5078125 -99.73828125 c 4
 42.5498046875 -99.978515625 41.5693359375 -100.096679688 40.580078125 -100.096679688 c 0
 32.06640625 -100.096679688 23 -91.3203125 23 -76.1689453125 c 4
 23 -33.6416015625 94.4248046875 25.140625 162.309570312 25.140625 c 4
 185.6640625 25.140625 204.96875 18.1826171875 240.390625 0.7490234375 c 4
 315.028320312 -35.9853515625 354.797851562 -44.2685546875 391.85546875 -44.2685546875 c 4
 434.729492188 -44.2685546875 454.53125 -33.1806640625 471.356445312 -0.673828125 c 4
 479.162109375 14.4072265625 484.146484375 18.19140625 491.916992188 18.19140625 c 4
 502.5078125 18.19140625 509.662109375 11.16015625 509.662109375 -2.025390625 c 4
209.46484375 160.473632812 m 4xfd
 209.46484375 359.116210938 223.953125 499.287109375 246.80859375 499.287109375 c 4
 257.087890625 499.287109375 265.704101562 470.932617188 270.684570312 419.124023438 c 4xfd
 274.560546875 378.798828125 277.010742188 316.174804688 278.672851562 136.30078125 c 4
 279.430664062 54.2490234375 280.206054688 12.400390625 282.4609375 -27.650390625 c 4
 287.772460938 -122.016601562 297.268554688 -134.91796875 394.865234375 -139.1484375 c 4
 440.920898438 -141.145507812 662.232421875 -147.95703125 698.735351562 -147.95703125 c 4
 711.595703125 -147.95703125 719.35546875 -147.111328125 719.35546875 -145.559570312 c 4
 719.35546875 -135.932617188 420.8125 47.72265625 266.491210938 133.236328125 c 4
 260.673828125 136.459960938 257.033203125 138.452148438 252.810546875 140.749023438 c 4
 229.661132812 153.342773438 228.12890625 154.53515625 228.12890625 157.678710938 c 4
 228.12890625 159.578125 227.569335938 161.276367188 225.508789062 165.744140625 c 4
 219.401367188 178.983398438 217.30078125 187.828125 217.30078125 200.342773438 c 5
 217.30078125 208.84765625 221.15234375 214.862304688 228.966796875 214.862304688 c 4
 288.94921875 214.862304688 820.40625 -139.471679688 820.40625 -181.859375 c 4
 820.40625 -195.611328125 764.461914062 -199.745117188 556.458007812 -199.745117188 c 4
 258.168945312 -199.745117188 231.477539062 -191.244140625 219.051757812 -78.486328125 c 4xfb
 213.377929688 -26.9990234375 209.46484375 57.2392578125 209.46484375 160.473632812 c 4xfd
EndSplineSet
EndChar

StartChar: N
Encoding: 78 78 39
Width: 657
VWidth: 1314
Flags: HW
HStem: -65.6011 51.7896<124.055 524.79> 603.044 30.3877G<591.542 615.441> 838.235 38.1493<146.599 456.965>
VStem: 22.9997 101.049<-54.2799 -9.12601> 560.635 62.538<12.1484 269.139>
LayerCount: 2
Back
SplineSet
664.946289062 757.509765625 m 4
 668.263671875 758.673828125 673.5234375 758.606445312 690.40234375 749.508789062 c 4
 707.28125 740.411132812 735.760742188 722.29296875 750.584960938 711.984375 c 4
 765.408203125 701.674804688 766.567382812 699.1796875 767.40234375 696.540039062 c 4
 768.237304688 693.900390625 768.747070312 691.1171875 756.928710938 684.409179688 c 4
 745.109375 677.702148438 720.962890625 667.073242188 703.140625 659.1015625 c 4
 685.317382812 651.129882812 673.828125 645.8203125 667.897460938 644.037109375 c 4
 661.966796875 642.25390625 661.612304688 644.002929688 662.247070312 648.24609375 c 4
 662.881835938 652.489257812 664.506835938 659.225585938 676.319335938 665.953125 c 4
 688.1328125 672.6796875 710.125976562 679.396484375 720.655273438 683.001953125 c 4
 731.184570312 686.607421875 730.236328125 687.099609375 692.849609375 686.181640625 c 4
 655.463867188 685.262695312 581.627929688 682.932617188 544.944335938 687.715820312 c 4
 508.260742188 692.5 508.727539062 704.397460938 546.044921875 708.20703125 c 4
 583.361328125 712.016601562 657.5234375 707.736328125 693.28515625 706.19140625 c 4
 729.046875 704.646484375 726.412109375 705.837890625 715.052734375 712.497070312 c 4
 703.693359375 719.15625 683.600585938 731.290039062 672.78125 738.713867188 c 4
 661.961914062 746.137695312 660.422851562 748.84765625 660.33984375 751.399414062 c 4
 660.256835938 753.952148438 661.62890625 756.346679688 664.946289062 757.509765625 c 4
798.338867188 496.928710938 m 0
 805.267578125 569.018554688 822.684570312 568.899414062 831.651367188 488.999023438 c 0
 840.618164062 409.099609375 841.133789062 249.4296875 832.338867188 169.62109375 c 0
 823.54296875 89.8125 805.435546875 89.873046875 740.387695312 89.9423828125 c 0
 675.340820312 90.01171875 563.358398438 90.08984375 503.872070312 92.30078125 c 0
 444.38671875 94.51171875 437.399414062 98.8564453125 436.6328125 104.352539062 c 0
 435.866210938 109.849609375 441.319335938 116.495117188 459.098632812 131.18359375 c 0
 476.877929688 145.872070312 506.970703125 168.592773438 533.232421875 187.720703125 c 0
 559.494140625 206.84765625 581.91015625 222.37109375 620.811523438 246.755859375 c 0
 659.713867188 271.141601562 715.09375 304.384765625 754.745117188 327.9765625 c 0
 794.395507812 351.568359375 818.309570312 365.50390625 827.965820312 362.264648438 c 0
 837.622070312 359.025390625 833.020507812 338.61328125 827.197265625 327.958984375 c 0
 821.374023438 317.3046875 814.33203125 316.413085938 778.348632812 296.474609375 c 0
 742.364257812 276.53515625 677.4375 237.549804688 624.98046875 205.493164062 c 0
 572.5234375 173.436523438 532.565429688 148.328125 513.983398438 135.791015625 c 0
 495.400390625 123.25390625 498.220703125 123.305664062 543.317382812 124.505859375 c 0
 588.4140625 125.706054688 675.782226562 128.055664062 725.364257812 130.203125 c 0
 774.9453125 132.3515625 786.740234375 134.299804688 790.85546875 207.422851562 c 0
 794.970703125 280.545898438 791.41015625 424.83984375 798.338867188 496.928710938 c 0
EndSplineSet
Fore
SplineSet
366.365234375 580.364257812 m 4
 366.365234375 595.930664062 388.543945312 610.001953125 449.862304688 629.546875 c 4
 459.864257812 632.735351562 463.26171875 634.00390625 463.26171875 635.022460938 c 4
 463.26171875 636.163085938 458.9921875 636.604492188 448.271484375 636.604492188 c 4
 441.147460938 636.604492188 431.141601562 636.41015625 404.90234375 635.791992188 c 4
 342.938476562 634.333007812 315.01953125 633.897460938 291.123046875 633.897460938 c 4
 195.833984375 633.897460938 146.340820312 640.825195312 146.340820312 653.659179688 c 4
 146.340820312 665.086914062 185.579101562 672.046875 248.072265625 672.046875 c 4
 272.463867188 672.046875 305.568359375 670.986328125 387.1015625 667.49609375 c 4
 425.124023438 665.869140625 438.30078125 665.3828125 445.377929688 665.3828125 c 4
 453.569335938 665.3828125 457.231445312 666.034179688 457.231445312 667.494140625 c 4
 457.231445312 669.556640625 449.930664062 674.248046875 423.217773438 689.163085938 c 4
 371.83984375 717.8515625 355.4296875 729.29296875 355.4296875 736.17578125 c 4
 355.4296875 739.607421875 359.508789062 741.540039062 365.079101562 741.540039062 c 4
 399.852539062 741.540039062 526.899414062 666.241210938 526.899414062 646.313476562 c 4
 526.899414062 639.759765625 513.157226562 632.907226562 380.336914062 573.497070312 c 4
 377.97265625 572.439453125 377.97265625 572.439453125 377.97265625 572.439453125 c 4
 369.522460938 572.439453125 366.365234375 574.491210938 366.365234375 580.364257812 c 4
23 -181.861328125 m 4
 23 -139.60546875 549.178710938 214.668945312 615.440429688 214.668945312 c 5
 621.688476562 214.668945312 626.106445312 206.732421875 626.106445312 194.658203125 c 4
 626.106445312 186.231445312 623.954101562 177.665039062 617.368164062 162.8984375 c 4
 615.666015625 159.080078125 615.109375 157.583007812 615.109375 156.276367188 c 4
 615.109375 155.768554688 615.193359375 155.47265625 615.859375 154.153320312 c 4
 615.876953125 154.118164062 615.876953125 154.118164062 614.879882812 153.58984375 c 4
 598.764648438 145.056640625 591.375 141.0546875 580.18359375 134.853515625 c 4
 423.811523438 48.205078125 124.049804688 -136.047851562 124.049804688 -145.665039062 c 4
 124.049804688 -147.005859375 129.872070312 -148.149414062 141.775390625 -148.149414062 c 4
 167.72265625 -148.149414062 370.666992188 -142.713867188 435.19140625 -139.91796875 c 4
 542.5390625 -135.267578125 555.454101562 -125.415039062 560.94921875 -27.7666015625 c 4
 562.862304688 6.228515625 563.95703125 52.2900390625 565.017578125 166.947265625 c 4
 566.37109375 313.268554688 567.982421875 369.610351562 572.309570312 414.635742188 c 4
 577.643554688 470.119140625 586.205078125 499.092773438 596.33984375 499.092773438 c 4
 618.58203125 499.092773438 633.943359375 359.5390625 633.943359375 158.080078125 c 4
 633.943359375 59.4765625 630.263671875 -25.0634765625 624.415039062 -78.126953125 c 4
 611.927734375 -191.432617188 585.2890625 -199.939453125 283.676757812 -199.939453125 c 4
 83.5283203125 -199.939453125 23 -196.193359375 23 -181.861328125 c 4
EndSplineSet
EndChar

StartChar: O
Encoding: 79 79 40
Width: 665
VWidth: 1296
Flags: HW
HStem: 566.018 57.0191<140.318 471.461> 757.816 36.2418<152.86 447.709>
VStem: 198.182 103.865<277.648 335.3> 471.475 117.686<547.209 616.896> 542.842 98.8189<119.703 171.076>
LayerCount: 2
Back
SplineSet
634.876953125 697.509765625 m 4x20
 638.1953125 698.673828125 643.455078125 698.606445312 660.333984375 689.508789062 c 4
 677.212890625 680.411132812 705.69140625 662.29296875 720.515625 651.984375 c 4
 735.33984375 641.674804688 736.498046875 639.1796875 737.333984375 636.540039062 c 4
 738.16796875 633.900390625 738.677734375 631.1171875 726.859375 624.409179688 c 4
 715.041015625 617.702148438 690.89453125 607.073242188 673.072265625 599.1015625 c 4
 655.248046875 591.129882812 643.759765625 585.8203125 637.828125 584.037109375 c 4
 631.8984375 582.25390625 631.54296875 584.002929688 632.177734375 588.24609375 c 4
 632.8125 592.489257812 634.4375 599.225585938 646.25 605.953125 c 4
 658.064453125 612.6796875 680.056640625 619.396484375 690.5859375 623.001953125 c 4
 701.115234375 626.607421875 700.16796875 627.099609375 662.78125 626.181640625 c 4
 625.39453125 625.262695312 551.55859375 622.932617188 514.875 627.715820312 c 4
 478.19140625 632.5 478.658203125 644.397460938 515.9765625 648.20703125 c 4
 553.29296875 652.016601562 627.455078125 647.736328125 663.216796875 646.19140625 c 4
 698.978515625 644.646484375 696.34375 645.837890625 684.984375 652.497070312 c 4
 673.625 659.15625 653.53125 671.290039062 642.712890625 678.713867188 c 4
 631.892578125 686.137695312 630.353515625 688.84765625 630.271484375 691.399414062 c 4
 630.1875 693.952148438 631.560546875 696.346679688 634.876953125 697.509765625 c 4x20
477.19921875 530.904296875 m 0x60
 541.53515625 532.434570312 665.49609375 530.25 727.607421875 529.08203125 c 0
 789.716796875 527.915039062 789.978515625 527.764648438 790.107421875 524.622070312 c 0
 790.236328125 521.48046875 790.236328125 515.346679688 754.71875 478.296875 c 0
 719.19921875 441.247070312 648.166015625 373.282226562 614.25390625 338.040039062 c 0
 580.34375 302.796875 583.5546875 300.27734375 626.466796875 287.8203125 c 0
 669.376953125 275.36328125 751.98046875 252.969726562 794.041015625 237.87109375 c 0
 836.1015625 222.772460938 837.611328125 214.971679688 796.505859375 170.724609375 c 0
 755.3984375 126.477539062 671.6796875 45.7890625 625.763671875 6.8447265625 c 0
 579.84765625 -32.0986328125 571.73828125 -29.29296875 566.92578125 -24.048828125 c 0
 562.11328125 -18.8046875 560.59765625 -11.123046875 564.45703125 -3.26953125 c 0
 568.314453125 4.583984375 577.546875 12.6064453125 612.728515625 45.787109375 c 0
 647.912109375 78.9677734375 709.046875 137.307617188 738.359375 169.895507812 c 0
 767.671875 202.484375 765.162109375 209.3203125 724.240234375 222.569335938 c 0
 683.3203125 235.817382812 603.9921875 255.475585938 559.662109375 270.622070312 c 0
 515.330078125 285.767578125 505.99609375 296.401367188 539.537109375 332.775390625 c 0
 573.076171875 369.150390625 649.486328125 431.26171875 685.25 461.708984375 c 0
 721.013671875 492.15625 716.125 490.936523438 664.615234375 492.58984375 c 0xa0
 613.107421875 494.243164062 515.021484375 498.767578125 464.869140625 501.33984375 c 0
 414.71875 503.911132812 412.5859375 504.52734375 410.3515625 507.124023438 c 0
 408.119140625 509.720703125 405.787109375 514.303710938 406.97265625 519.216796875 c 0
 408.16015625 524.129882812 412.865234375 529.374023438 477.19921875 530.904296875 c 0x60
EndSplineSet
Fore
SplineSet
361.640625 641.659179688 m 4
 361.640625 655.448242188 382.171875 669.954101562 443.079101562 689.37109375 c 4
 450.399414062 691.705078125 453.69140625 692.870117188 453.69140625 693.87109375 c 4
 453.69140625 694.982421875 449.635742188 695.401367188 439.483398438 695.401367188 c 4
 432.79296875 695.401367188 423.333007812 695.219726562 397.291992188 694.60546875 c 4
 339.666992188 693.247070312 313.203125 692.828125 290.322265625 692.828125 c 4
 199.637695312 692.828125 152.615234375 699.41015625 152.615234375 711.602539062 c 4
 152.615234375 722.458984375 189.897460938 729.0703125 248.938476562 729.0703125 c 4xe0
 271.942382812 729.0703125 303.83203125 728.06640625 382.85546875 724.682617188 c 4
 417.370117188 723.205078125 429.822265625 722.739257812 436.629882812 722.739257812 c 4
 444.481445312 722.739257812 447.962890625 723.358398438 447.962890625 724.733398438 c 4
 447.962890625 726.669921875 441.057617188 731.14453125 415.009765625 745.689453125 c 4
 366.883789062 772.563476562 351.25390625 783.399414062 351.25390625 789.978515625 c 4
 351.25390625 793.25390625 355.12890625 795.08984375 360.421875 795.08984375 c 4
 393.455078125 795.08984375 514.14453125 723.556640625 514.14453125 704.634765625 c 4
 514.14453125 698.381835938 500.965820312 691.83203125 375.540039062 635.731445312 c 4
 372.66015625 634.443359375 372.66015625 634.443359375 372.66015625 634.443359375 c 4
 364.63671875 634.443359375 361.640625 636.391601562 361.640625 641.659179688 c 4
207.5546875 605.55078125 m 4
 400.897460938 605.55078125 589.162109375 596.952148438 589.162109375 584.392578125 c 4xf0
 589.162109375 578.935546875 553.630859375 542.6875 486.267578125 476.432617188 c 4
 329.776367188 322.514648438 302.048828125 288.21875 302.048828125 277.56640625 c 4
 302.048828125 270.650390625 313.737304688 265.295898438 362.143554688 251.2421875 c 4
 370.49609375 248.81640625 379.932617188 246.135742188 393.823242188 242.208984375 c 4
 512.791992188 208.575195312 561.657226562 193.721679688 592.428710938 182.674804688 c 4
 628.774414062 169.625976562 641.66015625 161.247070312 641.66015625 152.69140625 c 4
 641.66015625 122.891601562 485.33203125 -38.515625 362.573242188 -142.635742188 c 4
 308.845703125 -188.206054688 288.126953125 -200.258789062 277.514648438 -200.258789062 c 4
 267.833007812 -200.258789062 259.23828125 -190.227539062 259.23828125 -179.111328125 c 4
 259.23828125 -176.24609375 259.809570312 -173.658203125 261.081054688 -171.0703125 c 4
 266.0625 -160.931640625 287.583984375 -139.001953125 354.779296875 -74.96875 c 4
 499.09765625 62.560546875 542.84375 110.796875 542.84375 129.958984375 c 4xe8
 542.84375 140.409179688 529.834960938 148.149414062 491.663085938 160.508789062 c 4
 473.513671875 166.384765625 450.095703125 173.169921875 389.748046875 189.873046875 c 4
 314.938476562 210.578125 285.397460938 219.220703125 261.666015625 227.329101562 c 4
 215.095703125 243.240234375 198.18359375 254.602539062 198.18359375 269.608398438 c 4
 198.18359375 294.015625 242.931640625 341.66796875 396.004882812 469.358398438 c 4
 452.479492188 516.467773438 471.4765625 533.719726562 471.4765625 540.836914062 c 4
 471.4765625 545.685546875 462.658203125 547.721679688 386.901367188 550.154296875 c 4
 190.338867188 556.466796875 23 573.6484375 23 591.76953125 c 4
 23 600.919921875 65.66796875 605.55078125 207.5546875 605.55078125 c 4
EndSplineSet
EndChar

StartChar: P
Encoding: 80 80 41
Width: 657
VWidth: 1317
Flags: HW
HStem: 575.331 60.0245<107.22 542.533> 764.223 38.1493<161.773 472.139>
LayerCount: 2
Back
SplineSet
676.501953125 707.509765625 m 4
 679.819335938 708.673828125 685.079101562 708.606445312 701.958007812 699.508789062 c 4
 718.836914062 690.411132812 747.31640625 672.29296875 762.140625 661.984375 c 4
 776.963867188 651.674804688 778.123046875 649.1796875 778.958007812 646.540039062 c 4
 779.79296875 643.900390625 780.302734375 641.1171875 768.484375 634.409179688 c 4
 756.665039062 627.702148438 732.518554688 617.073242188 714.696289062 609.1015625 c 4
 696.873046875 601.129882812 685.383789062 595.8203125 679.453125 594.037109375 c 4
 673.522460938 592.25390625 673.16796875 594.002929688 673.802734375 598.24609375 c 4
 674.4375 602.489257812 676.0625 609.225585938 687.875 615.953125 c 4
 699.688476562 622.6796875 721.681640625 629.396484375 732.2109375 633.001953125 c 4
 742.740234375 636.607421875 741.791992188 637.099609375 704.405273438 636.181640625 c 4
 667.01953125 635.262695312 593.18359375 632.932617188 556.5 637.715820312 c 4
 519.81640625 642.5 520.283203125 654.397460938 557.600585938 658.20703125 c 4
 594.916992188 662.016601562 669.079101562 657.736328125 704.840820312 656.19140625 c 4
 740.602539062 654.646484375 737.967773438 655.837890625 726.608398438 662.497070312 c 4
 715.249023438 669.15625 695.15625 681.290039062 684.336914062 688.713867188 c 4
 673.517578125 696.137695312 671.978515625 698.84765625 671.895507812 701.399414062 c 4
 671.8125 703.952148438 673.184570312 706.346679688 676.501953125 707.509765625 c 4
799.887695312 143.009765625 m 0
 792.958984375 215.098632812 796.520507812 359.392578125 792.404296875 432.515625 c 0
 788.2890625 505.638671875 776.497070312 507.586914062 717.870117188 509.770507812 c 0
 659.2421875 511.954101562 553.78515625 514.375 498.327148438 518.908203125 c 0
 442.870117188 523.442382812 437.415039062 530.088867188 438.182617188 535.5859375 c 0
 438.94921875 541.08203125 445.935546875 545.427734375 505.421875 547.638671875 c 0
 564.907226562 549.849609375 676.889648438 549.926757812 741.9375 549.99609375 c 0
 806.984375 550.065429688 825.091796875 550.125976562 833.887695312 470.318359375 c 0
 842.68359375 390.509765625 842.166992188 230.83984375 833.200195312 150.939453125 c 0
 824.234375 71.0400390625 806.81640625 70.919921875 799.887695312 143.009765625 c 0
EndSplineSet
Fore
SplineSet
381.540039062 574.38671875 m 4
 381.540039062 589.962890625 403.724609375 604.024414062 465.040039062 623.5703125 c 4
 475.055664062 626.762695312 478.434570312 628.025390625 478.434570312 629.041992188 c 4
 478.434570312 630.184570312 474.157226562 630.626953125 463.619140625 630.626953125 c 4
 456.665039062 630.626953125 446.396484375 630.434570312 417.448242188 629.751953125 c 4
 358.401367188 628.361328125 331.12109375 627.918945312 306.900390625 627.918945312 c 4
 211.008789062 627.918945312 161.514648438 634.846679688 161.514648438 647.680664062 c 4
 161.514648438 659.108398438 200.75390625 666.067382812 263.008789062 666.067382812 c 4
 287.270507812 666.067382812 320.693359375 665.010742188 403.389648438 661.470703125 c 4
 440.1484375 659.896484375 453.350585938 659.405273438 460.510742188 659.405273438 c 4
 468.748046875 659.405273438 472.405273438 660.055664062 472.405273438 661.465820312 c 4
 472.405273438 663.436523438 465.254882812 668.185546875 435.939453125 684.5546875 c 4
 387.163085938 711.791015625 370.60546875 723.127929688 370.60546875 730.146484375 c 4
 370.60546875 733.629882812 374.682617188 735.5625 380.252929688 735.5625 c 4
 415.024414062 735.5625 542.075195312 660.26171875 542.075195312 640.341796875 c 4
 542.075195312 633.767578125 528.235351562 626.885742188 395.015625 567.298828125 c 4
 393.141601562 566.4609375 393.141601562 566.4609375 393.141601562 566.4609375 c 4
 384.6953125 566.4609375 381.540039062 568.512695312 381.540039062 574.38671875 c 4
633.9140625 138.841796875 m 4
 633.9140625 -59.7958984375 619.424804688 -199.981445312 596.5703125 -199.981445312 c 4
 586.291015625 -199.981445312 577.672851562 -171.622070312 572.322265625 -115.944335938 c 4
 568.036132812 -71.353515625 566.345703125 -14.4443359375 564.942382812 137.15234375 c 4
 563.930664062 246.453125 562.909179688 291.557617188 560.920898438 326.892578125 c 4
 555.387695312 425.193359375 543.125 434.387695312 418.0703125 439.046875 c 4
 408.349609375 439.409179688 396.622070312 439.79296875 374.129882812 440.489257812 c 4
 228.344726562 445 162.224609375 447.911132812 116.5078125 451.6484375 c 4
 47.4638671875 457.29296875 23 464.981445312 23 477.106445312 c 4
 23 495.081054688 76.7578125 499.05078125 283.10546875 499.05078125 c 4
 585.323242188 499.05078125 611.901367188 490.536132812 624.318359375 377.865234375 c 4
 630.000976562 326.305664062 633.9140625 242.073242188 633.9140625 138.841796875 c 4
EndSplineSet
EndChar

